<?xml version="1.0" standalone="no"?>
<!DOCTYPE svg PUBLIC "-//W3C//DTD SVG 20010904//EN"
 "http://www.w3.org/TR/2001/REC-SVG-20010904/DTD/svg10.dtd">
<svg version="1.0" xmlns="http://www.w3.org/2000/svg"
 width="700.000000pt" height="700.000000pt" viewBox="0 0 700.000000 700.000000"
 preserveAspectRatio="xMidYMid meet">
<metadata>
Created by potrace 1.14, written by Peter Selinger 2001-2017
</metadata>
<g transform="translate(0.000000,700.000000) scale(0.100000,-0.100000)"
fill="#000000" stroke="none">
<path d="M3278 6995 c-1 -1 -42 -5 -89 -9 -47 -4 -95 -8 -105 -10 -10 -2 -48
-7 -84 -12 -36 -4 -67 -8 -70 -9 -3 -1 -25 -5 -50 -9 -356 -62 -759 -207
-1090 -392 -79 -44 -321 -199 -358 -229 -10 -8 -55 -43 -101 -79 -547 -427
-962 -1034 -1179 -1726 -54 -172 -106 -420 -128 -605 -26 -227 -26 -683 0
-822 2 -10 7 -43 10 -74 4 -31 9 -67 11 -80 3 -13 7 -39 10 -58 2 -18 7 -41 9
-50 3 -9 8 -29 10 -46 24 -137 112 -426 184 -606 50 -123 156 -336 226 -453
36 -60 66 -113 66 -117 0 -4 3 -9 8 -11 4 -2 28 -34 53 -73 257 -392 672 -780
1110 -1040 107 -63 407 -215 426 -215 5 0 27 -9 49 -19 45 -22 253 -93 337
-116 31 -8 81 -21 110 -29 44 -12 90 -22 227 -51 13 -2 109 -17 205 -30 190
-27 683 -27 847 0 13 2 45 6 72 10 160 20 389 71 563 126 99 32 355 129 389
148 11 6 71 36 134 67 169 82 437 250 555 346 304 248 495 444 682 698 194
263 363 575 470 869 70 193 145 477 168 636 3 22 10 67 15 100 31 200 34 765
5 910 -2 11 -7 43 -11 70 -3 28 -8 62 -10 77 -3 22 -32 164 -49 238 -61 273
-216 664 -363 915 -387 666 -949 1170 -1642 1475 -248 109 -580 206 -840 246
-25 3 -53 8 -62 10 -9 1 -43 6 -75 9 -32 4 -76 9 -98 12 -44 5 -541 13 -547 8z
m-1448 -1884 c135 -56 265 -110 290 -121 25 -11 133 -56 240 -100 107 -44 206
-85 220 -92 14 -6 34 -14 45 -19 315 -130 637 -264 660 -274 17 -7 93 -39 170
-70 77 -31 154 -62 170 -70 17 -7 46 -19 65 -28 19 -8 260 -108 535 -222 582
-240 561 -231 567 -247 3 -7 5 -167 5 -355 0 -301 -2 -344 -16 -356 -9 -8
-225 -101 -481 -206 -256 -106 -474 -196 -485 -201 -11 -6 -292 -122 -625
-260 -333 -138 -627 -260 -655 -272 -27 -11 -63 -27 -80 -33 -16 -7 -95 -40
-175 -73 -538 -225 -753 -312 -757 -308 -3 2 -5 202 -5 443 l0 438 23 15 c16
11 714 296 1069 437 11 5 347 139 490 196 255 102 424 174 424 181 1 4 -71 38
-159 73 -88 36 -173 71 -190 78 -16 7 -115 48 -220 90 -104 42 -273 111 -375
152 -102 41 -198 81 -214 89 -16 8 -33 14 -38 14 -4 0 -27 9 -51 19 -23 11
-172 72 -332 136 -159 64 -303 123 -319 131 -16 8 -35 14 -42 14 -7 0 -25 10
-40 23 l-26 23 0 404 c1 223 1 422 1 442 l1 37 33 -13 c17 -8 142 -59 277
-115z m3563 -2416 c218 -46 347 -220 333 -450 -11 -181 -116 -318 -286 -375
-75 -24 -218 -29 -290 -10 -147 39 -254 142 -294 280 -100 350 172 633 537
555z"/>
</g>
</svg>
