<svg width="70" height="70" viewBox="0 0 70 70" fill="none" xmlns="http://www.w3.org/2000/svg">
<circle cx="35" cy="35" r="34" stroke="#F7F7FB" stroke-width="2"/>
<path d="M24 33.5C23.1716 33.5 22.5 34.1716 22.5 35C22.5 35.8284 23.1716 36.5 24 36.5V33.5ZM47.0607 36.0607C47.6464 35.4749 47.6464 34.5251 47.0607 33.9393L37.5147 24.3934C36.9289 23.8076 35.9792 23.8076 35.3934 24.3934C34.8076 24.9792 34.8076 25.9289 35.3934 26.5147L43.8787 35L35.3934 43.4853C34.8076 44.0711 34.8076 45.0208 35.3934 45.6066C35.9792 46.1924 36.9289 46.1924 37.5147 45.6066L47.0607 36.0607ZM24 36.5H46V33.5H24V36.5Z" fill="white"/>
</svg>
