<svg width="113" height="113" viewBox="0 0 113 113" fill="none" xmlns="http://www.w3.org/2000/svg">
<g filter="url(#filter0_d_143_281)">
<circle cx="56.5" cy="52.5" r="52.5" fill="#FA1E5A" fill-opacity="0.8"/>
<path d="M56.5 90C35.8201 90 19 73.1799 19 52.5C19 31.8201 35.8201 15 56.5 15C77.1799 15 94 31.8201 94 52.5C94 73.1799 77.1799 90 56.5 90ZM56.5 18.8302C37.9356 18.8302 22.8302 33.9356 22.8302 52.5C22.8302 71.0644 37.9356 86.1698 56.5 86.1698C75.0644 86.1698 90.1698 71.0644 90.1698 52.5C90.1698 33.9356 75.0644 18.8302 56.5 18.8302Z" fill="#F6F6FA"/>
<path d="M40.1624 61.6969V40.0371H46.5979C50.8067 40.0371 53.991 40.9427 56.1511 42.7539C58.3037 44.565 59.3874 47.2372 59.3874 50.7779C59.3874 52.9751 58.9124 54.8901 57.9548 56.5306C56.9973 58.171 55.6463 59.4403 53.8945 60.3459C52.1428 61.2515 50.0941 61.7043 47.7336 61.7043H40.1624V61.6969ZM44.1261 58.1933H47.5703C50.1163 58.1933 52.0463 57.5772 53.3675 56.345C54.6888 55.1128 55.3494 53.3091 55.3494 50.9264C55.3494 48.4471 54.6739 46.5914 53.323 45.3741C51.972 44.1568 49.9011 43.5407 47.1175 43.5407H44.1261V58.1933Z" fill="#F6F6FA"/>
<path d="M61.4585 61.6969V40.0371H65.4223V58.223H75.0645L74.7899 61.7043H61.4585V61.6969Z" fill="#F6F6FA"/>
</g>
<defs>
<filter id="filter0_d_143_281" x="0" y="0" width="113" height="113" filterUnits="userSpaceOnUse" color-interpolation-filters="sRGB">
<feFlood flood-opacity="0" result="BackgroundImageFix"/>
<feColorMatrix in="SourceAlpha" type="matrix" values="0 0 0 0 0 0 0 0 0 0 0 0 0 0 0 0 0 0 127 0" result="hardAlpha"/>
<feOffset dy="4"/>
<feGaussianBlur stdDeviation="2"/>
<feComposite in2="hardAlpha" operator="out"/>
<feColorMatrix type="matrix" values="0 0 0 0 0 0 0 0 0 0 0 0 0 0 0 0 0 0 0.25 0"/>
<feBlend mode="normal" in2="BackgroundImageFix" result="effect1_dropShadow_143_281"/>
<feBlend mode="normal" in="SourceGraphic" in2="effect1_dropShadow_143_281" result="shape"/>
</filter>
</defs>
</svg>
