<svg width="113" height="113" viewBox="0 0 113 113" fill="none" xmlns="http://www.w3.org/2000/svg">
<g filter="url(#filter0_d_143_259)">
<circle cx="56.5" cy="52.5" r="52.5" fill="#FA1E5A" fill-opacity="0.8"/>
<path d="M56.5 90.0015C35.8227 90.0015 19 73.1795 19 52.5007C19 31.822 35.8227 15 56.5 15C77.1773 15 94 31.8227 94 52.5007C94 73.1788 77.178 90.0015 56.5 90.0015ZM56.5 18.8316C37.9352 18.8316 22.8316 33.9359 22.8316 52.5007C22.8316 71.0655 37.9352 86.1699 56.5 86.1699C75.0648 86.1699 90.1684 71.067 90.1684 52.5007C90.1684 33.9345 75.0648 18.8316 56.5 18.8316Z" fill="#F6F6FA"/>
<path d="M38.339 63.3973V41.6348H44.8064C49.0368 41.6348 52.2349 42.544 54.4009 44.3626C56.5668 46.1811 57.6498 48.8691 57.6498 52.4266C57.6498 54.6336 57.1695 56.5595 56.209 58.2044C55.2485 59.8492 53.8897 61.1264 52.1325 62.0359C50.3748 62.9455 48.3108 63.4 45.9405 63.3995L38.339 63.3973ZM42.3227 59.8722H45.7861C48.34 59.8722 50.2813 59.2537 51.61 58.0166C52.9386 56.7795 53.6037 54.9656 53.6052 52.575C53.6052 50.0825 52.9257 48.2231 51.5669 46.9969C50.2081 45.7707 48.1297 45.1576 45.3319 45.1576H42.3227V59.8722Z" fill="#F6F6FA"/>
<path d="M66.5384 63.6733C63.9835 63.6733 61.991 63.1013 60.5609 61.9572C59.1308 60.8131 58.3143 59.1373 58.1115 56.9298L61.851 56.3783C62.2187 58.9941 63.8432 60.3017 66.7247 60.3012C67.9702 60.3012 68.9409 60.0511 69.6366 59.5508C70.3324 59.0505 70.6787 58.3505 70.6758 57.4509C70.6758 56.6334 70.3294 56.0149 69.6366 55.5952C68.9438 55.1756 67.8304 54.7822 66.2964 54.415C64.8663 54.0686 63.6403 53.6547 62.6185 53.1732C61.5966 52.6917 60.815 52.043 60.2737 51.227C59.7318 50.41 59.4611 49.327 59.4616 47.9781C59.4616 46.6915 59.7937 45.5472 60.4578 44.5451C61.1218 43.5431 62.0373 42.7563 63.2041 42.1847C64.3685 41.6132 65.7172 41.3272 67.2502 41.3267C69.2731 41.3267 70.9281 41.8579 72.2152 42.9203C73.5023 43.9827 74.2562 45.4443 74.4769 47.3049L70.9831 47.8868C70.5536 45.7619 69.2457 44.6995 67.0595 44.6995C65.9965 44.6995 65.1333 44.9751 64.4697 45.5264C63.8061 46.0777 63.4738 46.8031 63.4728 47.7027C63.4728 48.6023 63.7999 49.2922 64.4541 49.7722C65.1083 50.2522 66.2217 50.676 67.7943 51.0437C69.2041 51.3708 70.4199 51.754 71.4418 52.1934C72.4636 52.6329 73.2554 53.2408 73.817 54.0172C74.3792 54.7941 74.6603 55.8568 74.6603 57.2052C74.6603 58.4725 74.3181 59.5913 73.6337 60.5617C72.9493 61.5321 71.999 62.2932 70.7827 62.8449C69.5673 63.3967 68.1526 63.6728 66.5384 63.6733Z" fill="#F6F6FA"/>
</g>
<defs>
<filter id="filter0_d_143_259" x="0" y="0" width="113" height="113" filterUnits="userSpaceOnUse" color-interpolation-filters="sRGB">
<feFlood flood-opacity="0" result="BackgroundImageFix"/>
<feColorMatrix in="SourceAlpha" type="matrix" values="0 0 0 0 0 0 0 0 0 0 0 0 0 0 0 0 0 0 127 0" result="hardAlpha"/>
<feOffset dy="4"/>
<feGaussianBlur stdDeviation="2"/>
<feComposite in2="hardAlpha" operator="out"/>
<feColorMatrix type="matrix" values="0 0 0 0 0 0 0 0 0 0 0 0 0 0 0 0 0 0 0.25 0"/>
<feBlend mode="normal" in2="BackgroundImageFix" result="effect1_dropShadow_143_259"/>
<feBlend mode="normal" in="SourceGraphic" in2="effect1_dropShadow_143_259" result="shape"/>
</filter>
</defs>
</svg>
