<svg width="30" height="30" viewBox="0 0 30 30" fill="none" xmlns="http://www.w3.org/2000/svg">
<g clip-path="url(#clip0_143_348)">
<path d="M15 2.89883C18.9417 2.89883 19.4081 2.91406 20.9649 2.98496C22.404 3.05059 23.1856 3.29082 23.7059 3.49297C24.395 3.76074 24.8866 4.08066 25.4034 4.59687C25.9202 5.11367 26.2401 5.60527 26.5073 6.29434C26.7094 6.81465 26.9497 7.59629 27.0153 9.03535C27.0862 10.5916 27.1014 11.0586 27.1014 15.0002C27.1014 18.9418 27.0862 19.4082 27.0153 20.965C26.9497 22.4041 26.7094 23.1857 26.5073 23.7061C26.2395 24.3951 25.9196 24.8867 25.4034 25.4035C24.8866 25.9203 24.395 26.2402 23.7059 26.5074C23.1856 26.7096 22.404 26.9498 20.9649 27.0154C19.4086 27.0863 18.9417 27.1016 15 27.1016C11.0584 27.1016 10.5915 27.0863 9.0352 27.0154C7.59614 26.9498 6.8145 26.7096 6.29419 26.5074C5.60513 26.2397 5.11353 25.9197 4.59673 25.4035C4.07993 24.8867 3.76001 24.3951 3.49282 23.7061C3.29067 23.1857 3.05044 22.4041 2.98481 20.965C2.91392 19.4088 2.89868 18.9418 2.89868 15.0002C2.89868 11.0586 2.91392 10.5922 2.98481 9.03535C3.05044 7.59629 3.29067 6.81465 3.49282 6.29434C3.7606 5.60527 4.08052 5.11367 4.59673 4.59687C5.11294 4.08008 5.60513 3.76016 6.29419 3.49297C6.8145 3.29082 7.59614 3.05059 9.0352 2.98496C10.5915 2.91406 11.0584 2.89883 15 2.89883ZM15 0.239258C10.9911 0.239258 10.4883 0.25625 8.91392 0.32832C7.34302 0.399805 6.26958 0.649414 5.33091 1.01445C4.36001 1.3918 3.53677 1.89629 2.71646 2.71719C1.89556 3.53809 1.39106 4.36074 1.01372 5.33164C0.648682 6.27031 0.399072 7.34375 0.327588 8.91465C0.255518 10.4891 0.238525 10.9918 0.238525 15.0008C0.238525 19.0098 0.255518 19.5125 0.327588 21.0869C0.399072 22.6578 0.648682 23.7313 1.01372 24.6699C1.39106 25.6408 1.89556 26.4641 2.71646 27.2844C3.53735 28.1053 4.36001 28.6098 5.33091 28.9871C6.26958 29.3521 7.34302 29.6018 8.91392 29.6732C10.4883 29.7453 10.9911 29.7623 15 29.7623C19.009 29.7623 19.5118 29.7453 21.0862 29.6732C22.6571 29.6018 23.7305 29.3521 24.6692 28.9871C25.6401 28.6098 26.4633 28.1053 27.2836 27.2844C28.1045 26.4635 28.609 25.6408 28.9864 24.6699C29.3514 23.7313 29.601 22.6578 29.6725 21.0869C29.7446 19.5125 29.7616 19.0098 29.7616 15.0008C29.7616 10.9918 29.7446 10.4891 29.6725 8.91465C29.601 7.34375 29.3514 6.27031 28.9864 5.33164C28.609 4.36074 28.1045 3.5375 27.2836 2.71719C26.4627 1.89629 25.6401 1.3918 24.6692 1.01445C23.7305 0.649414 22.6571 0.399805 21.0862 0.32832C19.5118 0.25625 19.009 0.239258 15 0.239258Z" fill="#F7F7FB"/>
<path d="M15.0001 7.42041C10.8136 7.42041 7.42041 10.8142 7.42041 15.0001C7.42041 19.186 10.8142 22.5798 15.0001 22.5798C19.186 22.5798 22.5798 19.186 22.5798 15.0001C22.5798 10.8142 19.186 7.42041 15.0001 7.42041ZM15.0001 19.9208C12.2825 19.9208 10.08 17.7177 10.08 15.0007C10.08 12.2837 12.2831 10.0806 15.0001 10.0806C17.7171 10.0806 19.9202 12.2837 19.9202 15.0007C19.9202 17.7177 17.7171 19.9208 15.0001 19.9208Z" fill="#F7F7FB"/>
<path d="M22.8797 8.8917C23.8579 8.8917 24.651 8.09867 24.651 7.12041C24.651 6.14215 23.8579 5.34912 22.8797 5.34912C21.9014 5.34912 21.1084 6.14215 21.1084 7.12041C21.1084 8.09867 21.9014 8.8917 22.8797 8.8917Z" fill="#F7F7FB"/>
</g>
<defs>
<clipPath id="clip0_143_348">
<rect width="30" height="30" fill="white"/>
</clipPath>
</defs>
</svg>
