<svg width="222" height="166" viewBox="0 0 222 166" fill="none" xmlns="http://www.w3.org/2000/svg">
<g clip-path="url(#clip0_143_707)">
<path opacity="0.48" d="M208.676 6.22144H31.2433C28.7553 6.22144 26.7383 8.2466 26.7383 10.7448V121.604C26.7383 124.102 28.7553 126.128 31.2433 126.128H208.676C211.164 126.128 213.181 124.102 213.181 121.604V10.7448C213.181 8.2466 211.164 6.22144 208.676 6.22144Z" fill="#464646"/>
<path opacity="0.18" d="M209.491 134.881C209.355 138.808 208.459 142.806 206.27 146.061C203.512 150.159 199.032 152.696 194.693 155.082L182.391 161.88C177 164.861 171.317 167.914 165.171 168C160.822 168.066 156.614 166.625 152.431 165.417C132.896 159.757 112.319 158.963 92.1241 160.394C81.7802 161.127 71.4866 162.415 61.2382 163.967C53.0386 165.19 43.198 169.258 35.8037 164.442C27.75 159.186 22.8071 150.675 18.2568 142.412C14.2954 135.24 10.2786 127.891 8.96987 119.8C6.95645 107.296 11.7786 94.4542 19.3239 84.2957C21.593 81.2618 24.0705 78.3909 26.7383 75.7039V121.609C26.7383 122.811 27.2121 123.964 28.0563 124.817C28.9004 125.669 30.0462 126.151 31.2433 126.158H208.671C209.302 129.02 209.578 131.951 209.491 134.881V134.881Z" fill="#464646"/>
<path opacity="0.18" d="M143.2 6.22655H95.7583C97.5439 4.86336 99.4834 3.71659 101.537 2.81005C105.287 1.1675 109.374 0.434672 113.451 0.14154C123.71 -0.601398 133.998 1.6729 143.2 6.22655Z" fill="#464646"/>
<path d="M99.7902 111.036C100.253 111.652 100.808 112.191 101.436 112.634C102.37 113.139 103.399 113.446 104.456 113.533L120.523 115.964C120.683 115.975 120.837 116.027 120.971 116.116C121.061 116.213 121.128 116.328 121.169 116.454C121.209 116.579 121.223 116.712 121.208 116.843C121.283 119.864 120.876 122.877 120.005 125.769C119.959 126.005 119.845 126.223 119.678 126.396C119.461 126.543 119.205 126.62 118.943 126.618C113.537 127.078 108.106 126.931 102.684 126.785C101.773 126.798 100.863 126.697 99.9764 126.487C98.4664 126.062 97.2331 125.026 96.0956 123.96C93.6543 121.68 83.7734 112.517 83.1744 111.274C82.3801 109.493 81.7401 107.646 81.2617 105.755C80.7583 103.936 84.4379 103.708 84.3623 101.818C84.3093 100.511 84.4656 99.2038 84.8254 97.9466C85.0933 96.8253 85.6486 95.7938 86.4362 94.9546C86.9899 94.4492 86.1342 91.0226 86.8993 90.9822C87.7852 94.0146 91.7919 100.079 93.5335 102.677C95.4692 105.574 97.5578 108.364 99.7902 111.036V111.036Z" fill="#464646"/>
<path d="M99.7902 111.036C100.253 111.652 100.808 112.191 101.436 112.634C102.37 113.139 103.399 113.446 104.456 113.533L120.523 115.964C120.683 115.975 120.837 116.027 120.971 116.116C121.061 116.213 121.128 116.328 121.169 116.454C121.209 116.579 121.223 116.712 121.208 116.843C121.283 119.864 120.876 122.877 120.005 125.769C119.959 126.005 119.845 126.223 119.678 126.396C119.461 126.543 119.205 126.62 118.943 126.618C113.537 127.078 108.106 126.931 102.684 126.785C101.773 126.798 100.863 126.697 99.9764 126.487C98.4664 126.062 97.2331 125.026 96.0956 123.96C93.6543 121.68 83.7734 112.517 83.1744 111.274C82.3801 109.493 81.7401 107.646 81.2617 105.755C80.7583 103.936 84.4379 103.708 84.3623 101.818C84.3093 100.511 84.4656 99.2038 84.8254 97.9466C85.0933 96.8253 85.6486 95.7938 86.4362 94.9546C86.9899 94.4492 86.1342 91.0226 86.8993 90.9822C87.7852 94.0146 91.7919 100.079 93.5335 102.677C95.4692 105.574 97.5578 108.364 99.7902 111.036V111.036Z" fill="url(#paint0_linear_143_707)"/>
<path d="M59.1344 85.4327C58.0523 86.4012 57.0428 87.4485 56.1143 88.5662C53.8894 91.3105 52.4096 94.5754 51.0304 97.8302C47.3609 106.493 44.1646 115.757 45.116 125.122C45.134 125.685 45.2858 126.236 45.5589 126.729C45.9921 127.286 46.6007 127.68 47.2854 127.846C49.0522 128.412 50.9398 128.437 52.8223 128.452C60.0757 128.518 67.3391 128.584 74.5874 128.23C75.7099 128.174 76.8978 128.088 77.829 127.452C78.5092 126.929 79.0518 126.247 79.4095 125.465C81.3575 121.786 81.9263 117.531 83.4364 113.659C85.4498 108.605 90.9867 104.011 89.8189 98.6843C84.8256 76.0677 61.4196 83.3454 59.1344 85.4327Z" fill="#464646"/>
<path d="M59.1344 85.4327C58.0523 86.4012 57.0428 87.4485 56.1143 88.5662C53.8894 91.3105 52.4096 94.5754 51.0304 97.8302C47.3609 106.493 44.1646 115.757 45.116 125.122C45.134 125.685 45.2858 126.236 45.5589 126.729C45.9921 127.286 46.6007 127.68 47.2854 127.846C49.0522 128.412 50.9398 128.437 52.8223 128.452C60.0757 128.518 67.3391 128.584 74.5874 128.23C75.7099 128.174 76.8978 128.088 77.829 127.452C78.5092 126.929 79.0518 126.247 79.4095 125.465C81.3575 121.786 81.9263 117.531 83.4364 113.659C85.4498 108.605 90.9867 104.011 89.8189 98.6843C84.8256 76.0677 61.4196 83.3454 59.1344 85.4327Z" fill="url(#paint1_linear_143_707)"/>
<path d="M91.9128 66.6976C91.0621 70.847 90.1712 75.1075 87.886 78.6807C87.0529 80.1235 85.8478 81.3142 84.3977 82.1275C82.9229 82.8704 81.0504 82.9715 79.6712 82.0618C78.9816 81.612 78.2266 80.9044 77.4766 81.238C76.933 81.4856 76.7568 82.1629 76.6813 82.7542C76.4924 84.2068 76.5127 85.6791 76.7417 87.1259C76.8351 87.5333 76.8589 87.9537 76.8122 88.3692C76.7147 88.7536 76.5082 89.1015 76.2179 89.3706C75.9276 89.6397 75.5657 89.8185 75.1763 89.8854C74.3976 89.9994 73.6027 89.8743 72.8961 89.5265C71.7969 89.0329 70.8349 88.2764 70.0943 87.3231C69.3537 86.3698 68.857 85.2487 68.6478 84.0581C68.5422 83.2539 68.4917 82.4434 68.4967 81.6322C68.4011 78.0337 67.8323 74.4505 67.9481 70.8571C68.0639 67.2637 68.9548 63.5237 71.386 60.8704C72.7901 59.4255 74.458 58.2656 76.2987 57.4539C79.042 56.1398 82.1024 55.2149 85.1024 55.6951C86.2962 55.8844 87.435 56.3312 88.4404 57.0048C89.4458 57.6783 90.2938 58.5626 90.9262 59.5968C92.4967 62.0176 92.5017 63.8219 91.9128 66.6976Z" fill="#FFDAD2"/>
<path d="M99.4078 57.5549C99.6122 55.8684 99.3003 54.1594 98.5135 52.6553C97.7267 51.1511 96.5024 49.9232 95.0035 49.135C93.6696 48.4678 92.1847 48.1848 90.7451 47.8007C87.3726 46.891 84.136 45.3849 80.678 45.0615C77.2199 44.738 73.2434 45.956 71.7032 49.1046C71.4213 49.6808 71.1444 50.3783 70.5253 50.5299C70.1871 50.5664 69.8449 50.5355 69.5186 50.4389C67.2082 50.0295 65.1294 52.0107 64.0874 54.1182C62.4062 57.5297 62.3206 61.5072 62.6881 65.2926C63.0253 68.795 63.9163 72.5805 66.7149 74.7133C66.9918 74.9255 67.3995 75.1176 67.6663 74.8902C67.7884 74.762 67.8646 74.5966 67.8827 74.4201C68.1642 73.0922 68.2691 71.7326 68.1948 70.3769C68.1394 69.3661 67.9783 68.2947 68.2401 67.299C68.5018 66.3034 69.3424 65.3583 70.3693 65.3886C71.3206 65.3886 72.0857 66.2781 72.3223 67.2081C72.4909 68.1549 72.4548 69.127 72.2166 70.0585C72.3676 70.4376 72.8961 69.9827 72.9867 69.5885C73.6814 66.4146 73.8374 62.8616 76.032 60.4913C76.4785 60.9553 76.8037 61.5231 76.9783 62.144C77.3064 61.8027 77.7235 61.5611 78.1819 61.4467C78.6404 61.3323 79.1216 61.3498 79.5706 61.4971C80.2075 61.7754 80.7929 62.1599 81.3022 62.6342C86.6478 66.824 98.2853 65.5807 99.4078 57.5549Z" fill="#3F3D56"/>
<path d="M60.6746 90.608C58.9834 91.8412 58.1579 94.0093 58.1075 96.1017C58.0572 98.194 60.2619 111.471 62.3408 115.241C63.9515 118.172 67.3089 125.824 72.4079 127.937C73.9179 128.564 96.2417 128.301 106.601 127.174C106.535 124.712 106.415 122.251 106.253 119.79C106.269 119.465 106.171 119.145 105.977 118.885C105.715 118.612 105.342 116.828 104.97 116.828C98.9296 116.853 92.839 118.708 86.7988 118.85C85.9215 118.907 85.0406 118.854 84.1763 118.693C83.4688 118.516 82.7906 118.237 82.1629 117.864C77.5018 115.216 74.9246 110.015 73.1025 104.956C71.7082 101.055 70.5857 97.0165 68.5723 93.3725C67.8575 92.0736 67.2183 90.8101 65.8089 90.239C64.1528 89.5669 62.2099 89.491 60.6746 90.608Z" fill="#464646"/>
<path d="M60.6746 90.608C58.9834 91.8412 58.1579 94.0093 58.1075 96.1017C58.0572 98.194 60.2619 111.471 62.3408 115.241C63.9515 118.172 67.3089 125.824 72.4079 127.937C73.9179 128.564 96.2417 128.301 106.601 127.174C106.535 124.712 106.415 122.251 106.253 119.79C106.269 119.465 106.171 119.145 105.977 118.885C105.715 118.612 105.342 116.828 104.97 116.828C98.9296 116.853 92.839 118.708 86.7988 118.85C85.9215 118.907 85.0406 118.854 84.1763 118.693C83.4688 118.516 82.7906 118.237 82.1629 117.864C77.5018 115.216 74.9246 110.015 73.1025 104.956C71.7082 101.055 70.5857 97.0165 68.5723 93.3725C67.8575 92.0736 67.2183 90.8101 65.8089 90.239C64.1528 89.5669 62.2099 89.491 60.6746 90.608Z" fill="url(#paint2_linear_143_707)"/>
<path d="M105.715 116.353C108.851 116.055 112.334 116.757 114.322 119.209C114.531 119.432 114.668 119.714 114.715 120.017C114.713 120.29 114.628 120.556 114.473 120.78C113.3 122.736 110.753 123.201 108.614 123.975C107.501 124.375 106.439 124.904 105.448 125.551C104.89 125.996 104.245 126.316 103.555 126.491C102.045 126.719 100.792 125.364 100.107 124.01C99.3221 122.494 98.0939 119.381 99.604 117.945C100.837 116.808 104.164 116.495 105.715 116.353Z" fill="#FFDAD2"/>
<path d="M131.683 115.575C132.241 115.894 132.721 116.334 133.087 116.864C133.266 117.132 133.372 117.442 133.395 117.764C133.418 118.085 133.357 118.407 133.218 118.698C132.981 119.056 132.657 119.349 132.277 119.547C129.493 121.21 126.08 121.508 123.262 123.085C122.683 123.507 122.02 123.797 121.319 123.934C120.906 123.943 120.497 123.857 120.124 123.682C119.75 123.506 119.422 123.247 119.164 122.923C118.651 122.28 118.257 121.549 118.002 120.765C114.705 112.073 126.941 112.543 131.683 115.575Z" fill="#FFDAD2"/>
<path d="M51.9163 111.693H64.9582V122.448C64.9582 123.454 64.5604 124.418 63.8525 125.129C63.1445 125.839 62.1843 126.239 61.183 126.239H55.6914C54.6902 126.239 53.73 125.839 53.022 125.129C52.314 124.418 51.9163 123.454 51.9163 122.448V111.693Z" fill="white"/>
<path d="M64.0771 114.301H68.0285C68.8628 114.301 69.663 114.634 70.253 115.226C70.843 115.819 71.1745 116.622 71.1745 117.46V118.769C71.1745 119.607 70.843 120.41 70.253 121.003C69.663 121.595 68.8628 121.928 68.0285 121.928H64.0771V114.301Z" stroke="white" stroke-width="3.03781" stroke-miterlimit="10"/>
<path d="M210.69 126.006H34.022C32.4764 126.006 31.2234 127.263 31.2234 128.814C31.2234 130.364 32.4764 131.621 34.022 131.621H210.69C212.235 131.621 213.488 130.364 213.488 128.814C213.488 127.263 212.235 126.006 210.69 126.006Z" fill="#464646"/>
<path d="M178.213 131.707H78.3523V166.484H178.213V131.707Z" fill="#464646"/>
<path d="M79.0319 131.707H39.8054V166.484H79.0319V131.707Z" fill="#464646"/>
<path d="M178.218 131.707H79.0117V166.484H178.218V131.707Z" fill="url(#paint3_linear_143_707)"/>
<path d="M79.0319 131.707H39.8054V166.484H79.0319V131.707Z" fill="url(#paint4_linear_143_707)"/>
<path d="M107.21 125.91L171.861 125.91C173.673 125.91 175.143 124.435 175.143 122.615C175.143 120.795 173.673 119.32 171.861 119.32L107.21 119.32C105.397 119.32 103.928 120.795 103.928 122.615C103.928 124.435 105.397 125.91 107.21 125.91Z" fill="#464646"/>
<path d="M107.21 125.91L171.861 125.91C173.673 125.91 175.143 124.435 175.143 122.615C175.143 120.795 173.673 119.32 171.861 119.32L107.21 119.32C105.397 119.32 103.928 120.795 103.928 122.615C103.928 124.435 105.397 125.91 107.21 125.91Z" fill="url(#paint5_linear_143_707)"/>
<path d="M129.629 125.92H179.245L192.332 92.5994C192.506 92.1554 192.569 91.6754 192.516 91.2013C192.463 90.7272 192.296 90.2732 192.028 89.8788C191.761 89.4843 191.402 89.1614 190.982 88.938C190.562 88.7145 190.094 88.5974 189.619 88.5967H150.684C148.801 88.6002 146.962 89.1715 145.406 90.2367C143.85 91.3018 142.648 92.8116 141.956 94.5705L129.629 125.92Z" fill="#464646"/>
<path d="M132.151 125.956H179.275L191.703 94.3026C191.869 93.8808 191.929 93.4248 191.879 92.9742C191.829 92.5236 191.67 92.092 191.416 91.7173C191.162 91.3425 190.82 91.0358 190.421 90.824C190.022 90.6121 189.577 90.5016 189.126 90.502H152.149C150.358 90.5011 148.608 91.0415 147.127 92.0528C145.645 93.0642 144.502 94.4996 143.844 96.1725L132.151 125.956Z" fill="#464646"/>
<path d="M132.151 125.956H179.275L191.703 94.3026C191.869 93.8808 191.929 93.4248 191.879 92.9742C191.829 92.5236 191.67 92.092 191.416 91.7173C191.162 91.3425 190.82 91.0358 190.421 90.824C190.022 90.6121 189.577 90.5016 189.126 90.502H152.149C150.358 90.5011 148.608 91.0415 147.127 92.0528C145.645 93.0642 144.502 94.4996 143.844 96.1725L132.151 125.956Z" fill="url(#paint6_linear_143_707)"/>
<path opacity="0.51" d="M185.502 78.1399H115.737V82.082H185.502V78.1399Z" fill="white"/>
<path d="M165.332 71.3928H115.737V75.3349H165.332V71.3928Z" fill="white"/>
<path d="M205.314 71.3928H172.112V75.3349H205.314V71.3928Z" fill="white"/>
<path d="M205.198 46.436H154.153V49.9385H205.198V46.436Z" fill="white"/>
<path opacity="0.51" d="M198.07 52.6577H143.461V56.1601H198.07V52.6577Z" fill="white"/>
<path d="M150.257 46.436H116.683V49.9385H150.257V46.436Z" fill="white"/>
<path d="M205.198 58.6921H131.411V62.1946H205.198V58.6921Z" fill="white"/>
<path opacity="0.51" d="M127.515 58.6921H116.683V62.1946H127.515V58.6921Z" fill="white"/>
<path opacity="0.51" d="M205.198 64.9136H156.493V68.416H205.198V64.9136Z" fill="white"/>
<path d="M150.257 65.9136H116.683V69.416H150.257V65.9136Z" fill="white"/>
<path d="M138.272 52.511H116.683V56.0134H138.272V52.511Z" fill="white"/>
<path d="M186.528 34.6453H135.483V38.1477H186.528V34.6453Z" fill="white"/>
<path opacity="0.51" d="M179.401 40.8667H124.792V44.3691H179.401V40.8667Z" fill="white"/>
<path d="M131.592 34.6453H98.0186V38.1477H131.592V34.6453Z" fill="white"/>
<path d="M186.075 27.3926H135.03V30.895H186.075V27.3926Z" fill="white"/>
<path d="M131.139 20.8123H97.5654V24.3147H131.139V20.8123Z" fill="white"/>
<path d="M131.139 14.8081H97.5654V18.3105H131.139V14.8081Z" fill="white"/>
<path d="M119.607 40.72H98.0186V44.2224H119.607V40.72Z" fill="white"/>
</g>
<defs>
<linearGradient id="paint0_linear_143_707" x1="83.7885" y1="105.047" x2="109.108" y2="114.658" gradientUnits="userSpaceOnUse">
<stop offset="0.01"/>
<stop offset="0.12" stop-opacity="0.75"/>
<stop offset="1" stop-opacity="0"/>
</linearGradient>
<linearGradient id="paint1_linear_143_707" x1="70.9431" y1="133.062" x2="63.2061" y2="86.5901" gradientUnits="userSpaceOnUse">
<stop offset="0.01"/>
<stop offset="0.12" stop-opacity="0.75"/>
<stop offset="1" stop-opacity="0"/>
</linearGradient>
<linearGradient id="paint2_linear_143_707" x1="73.6813" y1="130.474" x2="86.4115" y2="101.942" gradientUnits="userSpaceOnUse">
<stop offset="0.01"/>
<stop offset="0.12" stop-opacity="0.75"/>
<stop offset="1" stop-opacity="0"/>
</linearGradient>
<linearGradient id="paint3_linear_143_707" x1="140.884" y1="107.701" x2="119.048" y2="180.774" gradientUnits="userSpaceOnUse">
<stop offset="0.01"/>
<stop offset="0.12" stop-opacity="0.75"/>
<stop offset="1" stop-opacity="0"/>
</linearGradient>
<linearGradient id="paint4_linear_143_707" x1="51.4531" y1="111.168" x2="72.6167" y2="211.127" gradientUnits="userSpaceOnUse">
<stop offset="0.01"/>
<stop offset="0.12" stop-opacity="0.75"/>
<stop offset="1" stop-opacity="0"/>
</linearGradient>
<linearGradient id="paint5_linear_143_707" x1="139.399" y1="129.014" x2="139.699" y2="115.257" gradientUnits="userSpaceOnUse">
<stop offset="0.01"/>
<stop offset="0.12" stop-opacity="0.75"/>
<stop offset="1" stop-opacity="0"/>
</linearGradient>
<linearGradient id="paint6_linear_143_707" x1="160.928" y1="137.514" x2="162.978" y2="85.8176" gradientUnits="userSpaceOnUse">
<stop offset="0.01"/>
<stop offset="0.12" stop-opacity="0.75"/>
<stop offset="1" stop-opacity="0"/>
</linearGradient>
<clipPath id="clip0_143_707">
<rect width="222" height="168" fill="white"/>
</clipPath>
</defs>
</svg>
