<svg width="276" height="230" viewBox="0 0 276 230" fill="none" xmlns="http://www.w3.org/2000/svg">
<g clip-path="url(#clip0_143_303)">
<path opacity="0.18" d="M71.453 37.3249C93.8764 34.0369 116.964 36.3016 139.197 31.7891C162.451 27.0668 183.628 15.1816 206.043 7.28887C228.458 -0.603865 254.345 -4.15182 275.141 7.41469C287.872 14.5022 297.24 26.5049 304.59 39.2037C319.077 64.2465 326.928 92.6373 327.387 121.637C327.595 136.013 325.942 150.49 321.574 164.179C306.974 209.925 262.783 241.588 216.184 251.351C165.008 262.079 109.365 249.003 68.0396 216.702C32.8515 189.149 -1.94636 140.023 9.98788 95.2749C17.9025 65.5156 37.8344 42.2568 71.453 37.3249Z" fill="#464646"/>
<path d="M247.352 159.834L221.823 178.916C221.28 179.321 220.599 179.492 219.931 179.392C219.263 179.291 218.662 178.927 218.26 178.379L207.671 163.927C207.471 163.658 207.33 163.349 207.256 163.021C207.132 162.528 207.155 162.009 207.324 161.53C207.492 161.051 207.798 160.633 208.203 160.329L233.74 141.247C234.042 141.023 234.389 140.869 234.756 140.795C235.124 140.721 235.503 140.729 235.866 140.819C236.44 140.967 236.946 141.307 237.303 141.784L247.892 156.244C248.09 156.516 248.233 156.824 248.313 157.151C248.393 157.479 248.409 157.819 248.359 158.152C248.308 158.486 248.194 158.806 248.021 159.094C247.848 159.383 247.621 159.634 247.352 159.834Z" fill="#464646"/>
<path d="M235.866 140.819L231.141 162.258L207.256 163.021C207.132 162.528 207.155 162.009 207.324 161.53C207.492 161.051 207.798 160.633 208.203 160.329L233.74 141.247C234.042 141.023 234.389 140.869 234.756 140.795C235.124 140.721 235.503 140.729 235.866 140.819Z" fill="url(#paint0_linear_143_303)"/>
<path d="M222.57 162.535L223.351 177.767L247.352 159.834L232.827 154.592L231.141 162.258L222.57 162.535Z" fill="url(#paint1_linear_143_303)"/>
<path d="M252.103 37.8449L223.583 78.8855L218.102 63.5278C199.174 68.6053 180.539 74.7405 162.284 81.905C141.24 90.3681 120.976 100.886 115.154 111.756C101.808 136.726 133.159 147.764 133.159 147.764C127.194 148.246 121.196 148.1 115.262 147.328C99.6234 145.257 80.2064 137.607 85.8289 111.756C90.272 91.3327 119.198 74.1549 147.618 61.9173H147.659C151.812 60.1392 155.964 58.47 160.001 56.8848L160.117 56.8344C175.32 50.9634 190.826 45.9235 206.567 41.7367L203.834 28.2998L252.103 37.8449Z" fill="#464646"/>
<path d="M115.154 111.756C101.808 136.726 133.159 147.764 133.159 147.764C127.194 148.246 121.196 148.1 115.262 147.328C112.912 144.565 110.716 141.673 108.684 138.664C90.6873 112.226 129.289 91.3912 129.289 91.3912C132.503 79.5395 147.618 69.7344 147.618 69.7344V61.9171H147.659L160.001 56.8846L160.117 56.8342L162.833 79.7492L162.284 81.888C141.24 90.3679 120.976 100.886 115.154 111.756Z" fill="url(#paint2_linear_143_303)"/>
<path d="M202.671 197.981C201.911 199.287 201.441 200.743 201.293 202.25C201.318 203.759 201.803 205.223 202.68 206.444C204.482 209.145 207.245 211.04 210.395 211.737C210.807 211.865 211.25 211.844 211.649 211.678C211.922 211.509 212.135 211.256 212.255 210.957C213.011 209.405 212.704 207.56 212.206 205.924C211.707 204.289 211.026 202.628 211.101 200.892C211.226 197.646 215.818 191.38 210.47 189.854C206.01 188.545 204.092 195.087 202.671 197.981Z" fill="#B2857F"/>
<path d="M199.532 202.217C199.532 202.217 197.954 203.525 198.253 204.968C198.552 206.411 204.225 216.467 212.305 215.318C220.386 214.169 207.115 206.092 207.115 206.092L199.532 202.217Z" fill="#464646"/>
<path d="M201.974 198.501C202.305 198.513 202.621 198.646 202.863 198.873C203.106 199.101 203.259 199.41 203.294 199.743C203.505 200.701 203.954 201.588 204.6 202.322C205.245 203.056 206.065 203.612 206.982 203.936C209.091 204.515 211.018 202.737 211.965 203.24C212.912 203.743 215.569 210.747 214.872 212.743C214.174 214.74 210.902 214.689 207.995 213.322C205.088 211.955 199.79 206.495 199.383 204.339C198.976 202.183 200.82 199.08 201.974 198.501Z" fill="white"/>
<path d="M168.405 209.581C167.622 211.069 167.168 212.712 167.076 214.396C167.191 216.056 167.798 217.644 168.82 218.95C170.953 221.869 174.118 223.846 177.657 224.469C178.12 224.592 178.61 224.548 179.044 224.343C179.336 224.134 179.562 223.842 179.692 223.504C180.456 221.743 180.016 219.705 179.393 217.893C178.77 216.081 177.939 214.295 177.906 212.382C177.906 208.776 182.698 201.571 176.685 200.137C171.661 198.937 169.834 206.301 168.405 209.581Z" fill="#B2857F"/>
<path d="M165.108 214.505C165.108 214.505 163.447 216.04 163.821 217.625C164.195 219.21 170.988 230.122 179.924 228.445C188.86 226.767 173.729 218.506 173.729 218.506L165.108 214.505Z" fill="#464646"/>
<path d="M167.641 210.21C168.013 210.206 168.373 210.338 168.655 210.582C168.938 210.826 169.123 211.164 169.178 211.536C169.455 212.587 169.996 213.549 170.748 214.329C171.5 215.109 172.438 215.681 173.471 215.989C175.846 216.526 177.914 214.471 178.961 214.974C180.007 215.478 183.329 223.152 182.632 225.392C181.934 227.631 178.305 227.749 175.008 226.373C171.711 224.998 165.557 219.177 165.042 216.803C164.527 214.429 166.387 210.915 167.641 210.21Z" fill="white"/>
<path d="M186.319 122.107C186.545 122.147 186.767 122.206 186.983 122.283C192.232 124.296 198.552 133.271 202.123 137.532C206.766 142.928 210.63 148.959 213.601 155.448C219.63 169.044 220.187 185.936 211.716 198.132L205.204 196.756C204.636 196.693 204.1 196.456 203.668 196.077C203.446 195.748 203.292 195.377 203.217 194.986C203.141 194.595 203.145 194.193 203.228 193.804C203.572 189.106 203.357 184.384 202.588 179.738C202.159 176.554 201.192 173.467 199.731 170.612C197.688 166.897 194.466 164.02 191.327 161.201C181.361 152.285 172.425 143.067 167.483 130.461C171.943 128.247 181.51 121.251 186.319 122.107Z" fill="#473F47"/>
<path d="M171.237 128.951C171.452 129.038 171.656 129.15 171.843 129.287C176.486 132.474 180.564 142.707 183.055 147.672C186.318 154.017 188.683 160.794 190.081 167.803C192.797 182.439 189.45 198.996 178.396 208.902L172.375 206.025C171.839 205.829 171.373 205.475 171.038 205.01C170.898 204.636 170.835 204.237 170.852 203.838C170.869 203.439 170.966 203.047 171.137 202.687C172.558 198.199 173.439 193.555 173.762 188.855C174.08 185.658 173.853 182.43 173.089 179.31C171.968 175.226 169.493 171.669 167.093 168.18C159.494 157.175 152.9 146.095 151.006 132.675C155.848 131.568 166.769 127.022 171.237 128.951Z" fill="#473F47"/>
<path d="M198.286 97.0029C198.291 97.0391 198.291 97.0757 198.286 97.1119C198.361 98.5126 198.818 99.7456 198.461 101.172C198.079 102.757 196.617 104.191 195.023 103.956C193.694 103.763 192.789 102.555 191.767 101.675C190.698 100.81 189.512 100.104 188.246 99.5779C186.585 98.7978 184.874 98.0681 183.163 97.3971C182.067 96.9609 179.974 96.6925 179.509 95.5602C179.044 94.4279 179.193 92.6413 179.06 91.4419L176.993 72.4104L196.235 88.3469C197.024 90.0895 197.639 91.9075 198.071 93.7736C198.254 94.8394 198.327 95.9218 198.286 97.0029Z" fill="white"/>
<path d="M184.002 99.0998C184.118 100.224 184.376 101.339 184.509 102.455C185.206 108.653 184.45 115.221 186.942 121.1C187.507 122.409 188.238 123.801 187.905 125.194C187.5 126.374 186.682 127.364 185.605 127.978C180.522 131.568 174.352 133.17 168.339 134.688C163.813 135.846 157.443 137.951 152.925 135.921C150.998 135.083 150.168 133.137 149.379 131.224C146.887 125.135 145.575 118.425 144.396 111.933C144.246 111.094 144.088 110.255 143.947 109.375C142.967 103.52 142.2 97.6152 141.647 91.66C141.265 87.332 141.09 82.6349 143.532 79.0786C146.771 74.3312 153.631 70.691 158.971 69.0134C160.698 68.452 162.497 68.1496 164.311 68.116C166.895 68.2379 169.44 68.8053 171.835 69.7935C174.684 70.8419 177.217 71.7143 178.836 74.2641C180.632 77.2262 182.007 80.4278 182.922 83.7756C183.784 86.9106 184.212 90.1511 184.193 93.4046C184.193 94.9982 183.977 96.6087 183.985 98.1939C183.959 98.4956 183.965 98.7993 184.002 99.0998Z" fill="white"/>
<path opacity="0.1" d="M162.741 137.012C161.014 137.741 156.728 136.542 155.341 136.45C154.511 136.399 153.68 136.064 152.85 135.963C148.697 135.384 146.929 123.893 146.206 120.866C144.263 112.771 141.721 104.451 140.708 96.2311C140.326 93.0522 140.052 89.8062 140.758 86.6944C141.464 83.5826 143.249 80.5799 146.115 79.1456C151.098 76.6796 154.461 93.1109 155.549 96.466C156.911 100.66 158.281 104.854 159.635 109.047C160.233 110.926 160.424 113.015 161.446 114.734C162.999 117.343 164.311 116.848 166.91 116.412C172.367 115.456 177.466 113.115 182.839 111.807C183.06 111.723 183.296 111.686 183.531 111.698C183.767 111.709 183.998 111.769 184.21 111.874C184.499 112.115 184.696 112.45 184.766 112.822C185.082 113.881 185.256 114.979 185.281 116.085C185.312 116.401 185.267 116.721 185.148 117.016C184.96 117.317 184.7 117.565 184.392 117.737C180.761 120.163 176.772 121.995 172.574 123.164C169.252 124.103 166.105 125.68 163.862 128.481C161.844 130.998 164.469 133.648 163.372 136.374C163.315 136.518 163.23 136.649 163.121 136.758C163.013 136.868 162.883 136.954 162.741 137.012Z" fill="#020202"/>
<path d="M158.954 124.338L190.795 113.493L214.149 126.946L181.652 140.4L158.954 124.338Z" fill="#464646"/>
<path d="M158.954 124.338L190.795 113.493L214.149 126.946L181.652 140.4L158.954 124.338Z" fill="url(#paint3_linear_143_303)"/>
<path d="M160.266 122.602L192.108 111.756L215.461 125.21L182.964 138.664L160.266 122.602Z" fill="#464646"/>
<path d="M184.525 136.81L210.869 125.059L198.012 117.93L171.819 127.944L184.525 136.81Z" fill="url(#paint4_linear_143_303)"/>
<path d="M182.964 138.664H214.365L241.398 121.662L215.461 125.21L182.964 138.664Z" fill="#464646"/>
<path d="M172.25 60.7347C171.927 61.9173 171.578 63.1 171.204 64.2743C170.373 66.9583 168.712 69.4075 165.822 70.0533C165.184 70.1775 164.537 70.256 163.887 70.2882C163.763 70.2882 163.622 70.2882 163.455 70.2882C163.446 70.2926 163.436 70.2949 163.426 70.2949C163.416 70.2949 163.406 70.2926 163.397 70.2882H163.323C162.998 70.2728 162.673 70.3067 162.359 70.3888C162.271 70.3934 162.186 70.4193 162.11 70.4643C161.28 70.8501 161.346 72.2089 161.404 72.9806C161.609 73.8488 161.509 74.7617 161.122 75.564C161.122 75.564 161.122 75.6143 161.072 75.6479C160.842 75.9015 160.564 76.1063 160.254 76.2503C159.945 76.3943 159.61 76.4746 159.27 76.4866C157.838 76.6035 156.416 76.1657 155.292 75.262C154.648 74.6589 154.132 73.9316 153.772 73.1232C153.659 72.8934 153.565 72.655 153.489 72.4102C153.395 71.9952 153.359 71.5689 153.382 71.1437C153.397 70.4915 153.458 69.8412 153.564 69.1978C153.871 67.9279 154.112 66.6429 154.287 65.3479C154.298 64.6918 154.342 64.0367 154.42 63.3852C154.526 62.9689 154.604 62.5457 154.652 62.1186C154.652 60.8857 154.029 59.6946 154.021 58.4449C154.01 57.209 154.124 55.9752 154.361 54.7627C154.805 52.3577 155.842 50.1046 157.376 48.212C160.225 44.857 165.274 43.1794 169.244 45.0918C171.228 46.0477 172.767 47.7436 173.538 49.8224C174.866 53.3536 173.205 57.2874 172.25 60.7347Z" fill="#B2857F"/>
<path d="M168.114 121.285C168.812 121.201 169.518 121.126 170.216 121.067C170.632 121.008 171.055 121.033 171.461 121.142C171.661 121.195 171.843 121.301 171.989 121.448C172.135 121.595 172.24 121.779 172.292 121.981C172.287 122.134 172.319 122.287 172.383 122.426C172.49 122.55 172.637 122.63 172.798 122.652C175.29 123.306 177.864 124.33 179.351 126.401C179.528 126.597 179.652 126.836 179.71 127.095C179.768 127.354 179.759 127.623 179.683 127.878C179.343 128.582 178.346 128.481 177.599 128.272C177.706 128.427 177.763 128.611 177.763 128.8C177.763 128.989 177.706 129.174 177.599 129.329C177.487 129.481 177.34 129.603 177.17 129.685C177.001 129.767 176.815 129.806 176.627 129.798C176.38 129.752 176.127 129.752 175.88 129.798C175.71 129.878 175.553 129.983 175.415 130.109C175.065 130.342 174.672 130.501 174.259 130.576C173.846 130.651 173.423 130.64 173.014 130.545C172.184 130.419 171.353 130.134 170.523 130.067C169.236 129.966 168.081 130.394 166.885 129.865C165.567 129.206 164.172 128.716 162.733 128.406C162.275 128.332 161.853 128.111 161.529 127.777C161.389 127.493 161.316 127.18 161.316 126.863C161.316 126.545 161.389 126.233 161.529 125.948C161.744 124.919 162.131 123.935 162.675 123.038C163.381 122.031 164.56 121.855 165.714 121.654C166.561 121.511 167.317 121.402 168.114 121.285Z" fill="#B2857F"/>
<path d="M143.515 79.0699C137.411 89.2776 131.382 101.104 129.646 112.998C129.189 116.126 128.94 119.817 130.393 122.753C132.769 127.533 140.849 128.465 145.5 128.943C151.069 129.513 156.677 129.589 162.259 129.169C162.382 129.192 162.508 129.185 162.626 129.147C162.745 129.11 162.852 129.043 162.939 128.954C163.026 128.864 163.09 128.754 163.125 128.634C163.16 128.513 163.165 128.386 163.14 128.263L163.372 122.836C163.411 122.583 163.376 122.324 163.273 122.09C163.127 121.919 162.944 121.785 162.737 121.699C162.531 121.613 162.308 121.577 162.085 121.595C158.832 121.332 155.636 120.583 152.601 119.372C149.719 118.215 144.088 115.179 144.495 111.354C144.719 109.207 147.053 106.59 148.207 104.895C150.981 100.827 153.971 96.8852 157.027 93.0269C157.027 93.0269 157.326 71.0765 143.515 79.0699Z" fill="white"/>
<path d="M171.295 55.8029C171.708 55.7064 172.097 55.5227 172.434 55.264C172.772 55.0052 173.052 54.6772 173.255 54.3015C173.596 55.2661 175.207 54.9725 175.614 54.0247C176.021 53.0769 175.614 52.0033 175.248 51.0555C175.63 50.9648 175.983 50.7795 176.276 50.5164C176.569 50.2533 176.792 49.9206 176.925 49.5485C177.059 49.1763 177.099 48.7765 177.041 48.385C176.983 47.9935 176.829 47.6228 176.594 47.3063C176.32 46.9959 175.938 46.7275 175.863 46.3081C175.845 45.9885 175.893 45.6686 176.004 45.3687C176.056 44.8763 175.978 44.3788 175.778 43.9267C175.579 43.4745 175.264 43.0836 174.866 42.7937C174.05 42.225 173.138 41.8101 172.176 41.5691C172.434 41.1446 172.53 40.6394 172.446 40.1484C172.362 39.6573 172.104 39.2141 171.719 38.9019C170.931 38.2946 169.977 37.9488 168.987 37.9121C167.55 37.7528 165.964 37.8199 164.834 38.7509C164.063 38.2675 163.154 38.0578 162.251 38.155C161.349 38.2523 160.504 38.6509 159.851 39.2877C159.619 39.6126 159.295 39.8583 158.921 39.9923C158.654 40.0118 158.386 39.9657 158.14 39.8581C157.093 39.4058 155.934 39.2859 154.818 39.5142C154.26 39.6485 153.773 39.9892 153.451 40.4691C153.13 40.9489 152.998 41.533 153.083 42.106C152.67 42.156 152.283 42.3323 151.972 42.6112C151.662 42.8901 151.444 43.2582 151.347 43.666C151.328 43.9219 151.248 44.1693 151.114 44.3874C150.873 44.6726 150.45 44.6558 150.093 44.6893C149.412 44.7493 148.778 45.0665 148.318 45.5777C147.858 46.0889 147.606 46.7564 147.613 47.447C147.619 48.1375 147.883 48.8003 148.352 49.3028C148.821 49.8054 149.46 50.1108 150.143 50.1581C150.064 50.4951 150.055 50.8448 150.117 51.1854C150.178 51.526 150.309 51.8501 150.5 52.1375C150.94 52.8505 151.529 52.9008 152.111 53.3453C152.451 53.6137 152.318 53.6389 152.302 54.1841C152.285 54.6858 152.31 55.188 152.377 55.6855C152.49 56.6437 152.727 57.5827 153.083 58.4786C153.332 59.1244 153.647 59.7451 153.871 60.3993C154.18 61.4014 154.386 62.4329 154.486 63.4776L155.89 59.4683C155.905 59.4135 155.905 59.3553 155.89 59.3005C155.861 59.2261 155.809 59.1639 155.74 59.1244C155.128 58.6427 154.697 57.9644 154.519 57.2017C154.341 56.4391 154.426 55.6378 154.76 54.9306C154.853 54.7088 155.002 54.5151 155.191 54.3681C155.38 54.2212 155.604 54.126 155.84 54.0918C156.405 54.0918 156.836 54.5867 157.11 55.0816C157.402 55.6088 157.623 56.1729 157.767 56.7591C158.146 55.8413 158.671 54.9915 159.32 54.2428C159.594 53.9325 159.926 53.4041 160.366 53.5634C160.806 53.7228 161.014 54.528 161.196 54.8216C161.851 54.5645 162.447 54.1765 162.949 53.6809C162.891 54.2629 162.999 54.8496 163.261 55.3713C163.523 55.8931 163.928 56.3281 164.427 56.6249C165.474 57.1198 166.993 56.4152 166.993 55.2409C166.993 55.7694 169.261 54.8803 169.427 54.7796C169.602 55.1187 169.873 55.3972 170.206 55.5795C170.539 55.7618 170.918 55.8396 171.295 55.8029Z" fill="#473F47"/>
<path d="M160.341 70.33C161.01 70.4187 161.685 70.4467 162.359 70.4139C162.271 70.4185 162.186 70.4444 162.11 70.4894C161.28 70.8752 161.346 72.234 161.404 73.0057C161.609 73.8739 161.509 74.7868 161.122 75.5891C160.863 75.5911 160.606 75.5543 160.358 75.48C160.104 75.3895 159.87 75.2499 159.668 75.069C158.915 74.4428 158.364 73.6038 158.086 72.6594C157.808 71.715 157.815 70.7082 158.107 69.7681C158.826 70.0474 159.576 70.2362 160.341 70.33Z" fill="#96625E"/>
<path d="M193.254 85.8892C193.254 85.8892 208.46 97.2208 206.359 108.536C204.407 119.062 202.655 127.433 202.655 127.433L195.537 123.239C195.537 123.239 200.296 107.378 190.363 100.484C180.431 93.589 193.254 85.8892 193.254 85.8892Z" fill="white"/>
<path d="M194.275 123.08L193.594 126.645C193.474 127.096 193.457 127.569 193.544 128.029C193.59 128.258 193.711 128.465 193.887 128.617C194.063 128.769 194.285 128.857 194.516 128.867C195.014 128.867 195.438 128.314 195.936 128.414C196.114 128.468 196.282 128.55 196.434 128.658C197.498 129.245 198.785 128.658 199.906 128.129C200.085 128.028 200.293 127.989 200.496 128.02C200.736 128.087 200.886 128.331 201.094 128.482C201.301 128.608 201.542 128.667 201.783 128.652C202.025 128.637 202.257 128.548 202.447 128.398C202.824 128.082 203.11 127.671 203.278 127.207C203.725 126.215 203.919 125.125 203.842 124.038C203.765 122.951 203.42 121.901 202.838 120.983C202.2 120.187 201.363 119.579 200.414 119.222C199.464 118.865 198.437 118.772 197.439 118.953C195.28 119.297 194.666 121.008 194.275 123.08Z" fill="#B2857F"/>
<path d="M181.652 140.4H213.053L240.085 123.398L214.149 126.946L181.652 140.4Z" fill="#464646"/>
<path d="M182.964 138.664L181.652 140.4H213.053L214.365 138.664H182.964Z" fill="url(#paint5_linear_143_303)"/>
<path d="M241.398 121.662L240.085 123.399L213.053 140.4L214.365 138.664L241.398 121.662Z" fill="#464646"/>
<path d="M241.398 121.662L240.085 123.399L213.053 140.4L214.365 138.664L241.398 121.662Z" fill="url(#paint6_linear_143_303)"/>
<path d="M215.777 125.965L237.253 122.937L214.855 136.81L190.413 137.238L215.777 125.965Z" fill="white"/>
<path d="M179.185 124.086L191.343 119.532L185.48 115.204L173.006 119.532L179.185 124.086Z" fill="url(#paint7_linear_143_303)"/>
<path d="M153.166 171.032L104.922 193.276C103.895 193.748 102.725 193.79 101.668 193.392C100.611 192.994 99.7532 192.189 99.2829 191.154L86.9417 163.844C86.7056 163.337 86.5783 162.785 86.568 162.225C86.5359 161.373 86.7558 160.532 87.1996 159.807C87.6434 159.083 88.2909 158.508 89.0595 158.157L137.303 135.913C137.875 135.653 138.496 135.523 139.123 135.532C139.75 135.54 140.368 135.688 140.932 135.963C141.821 136.396 142.532 137.129 142.942 138.035L155.267 165.353C155.498 165.866 155.627 166.419 155.647 166.981C155.666 167.544 155.576 168.105 155.381 168.632C155.186 169.159 154.89 169.643 154.509 170.054C154.129 170.466 153.673 170.798 153.166 171.032Z" fill="#464646"/>
<path d="M153.166 171.032L104.922 193.276C103.895 193.748 102.725 193.79 101.668 193.392C100.611 192.994 99.7532 192.189 99.2829 191.154L86.9417 163.844C86.7056 163.337 86.5783 162.785 86.568 162.225C86.5359 161.373 86.7558 160.532 87.1996 159.807C87.6434 159.083 88.2909 158.508 89.0595 158.157L137.303 135.913C137.875 135.653 138.496 135.523 139.123 135.532C139.75 135.54 140.368 135.688 140.932 135.963C141.821 136.396 142.532 137.129 142.942 138.035L155.267 165.353C155.498 165.866 155.627 166.419 155.647 166.981C155.666 167.544 155.576 168.105 155.381 168.632C155.186 169.159 154.89 169.643 154.509 170.054C154.129 170.466 153.673 170.798 153.166 171.032Z" fill="url(#paint8_linear_143_303)"/>
<path d="M155.4 170.05L107.156 192.294C106.129 192.767 104.959 192.809 103.902 192.411C102.845 192.013 101.987 191.208 101.517 190.172L89.1758 162.871C88.9427 162.362 88.8128 161.812 88.7938 161.252C88.7634 160.4 88.9839 159.558 89.4273 158.832C89.8708 158.106 90.5174 157.53 91.2853 157.175L139.529 134.94C140.555 134.469 141.723 134.427 142.78 134.823C143.836 135.219 144.694 136.021 145.168 137.054L157.509 164.372C157.74 164.885 157.869 165.438 157.888 166.001C157.907 166.564 157.816 167.125 157.62 167.653C157.424 168.18 157.127 168.663 156.746 169.075C156.365 169.486 155.908 169.818 155.4 170.05Z" fill="#464646"/>
<path d="M143.142 134.94L128.076 168.306L88.7938 161.21C88.7634 160.358 88.9839 159.516 89.4273 158.79C89.8708 158.064 90.5174 157.488 91.2853 157.134L139.529 134.898C140.097 134.636 140.715 134.504 141.34 134.511C141.964 134.519 142.579 134.665 143.142 134.94Z" fill="url(#paint9_linear_143_303)"/>
<path d="M113.991 165.756L110.046 190.91L155.4 170.008L133.466 156.37L128.076 168.306L113.991 165.756Z" fill="url(#paint10_linear_143_303)"/>
<path d="M258.688 116.923L227.528 110.708C227.2 110.643 226.888 110.513 226.61 110.326C226.332 110.139 226.093 109.898 225.907 109.618C225.721 109.337 225.592 109.022 225.527 108.691C225.461 108.36 225.461 108.02 225.527 107.689L228.973 90.0747C229.034 89.7444 229.161 89.4303 229.347 89.152C229.625 88.7257 230.022 88.3927 230.488 88.1955C230.954 87.9983 231.467 87.9459 231.963 88.0449L263.123 94.2601C263.492 94.3301 263.841 94.4834 264.143 94.7085C264.445 94.9336 264.692 95.2248 264.867 95.5602C265.148 96.0857 265.242 96.6926 265.133 97.2796L261.678 114.894C261.615 115.226 261.487 115.541 261.302 115.823C261.117 116.105 260.879 116.347 260.601 116.536C260.323 116.725 260.011 116.856 259.683 116.922C259.355 116.989 259.017 116.989 258.688 116.923Z" fill="#464646"/>
<path d="M264.867 95.5433L245.998 106.447L229.389 89.1352C229.666 88.7089 230.063 88.3759 230.529 88.1787C230.995 87.9815 231.509 87.929 232.005 88.028L263.165 94.2432C263.526 94.319 263.867 94.475 264.161 94.6998C264.455 94.9247 264.697 95.2128 264.867 95.5433Z" fill="url(#paint11_linear_143_303)"/>
<path d="M240.027 100.232L229.405 111.077L258.688 116.923L252.742 102.547L245.998 106.447L240.027 100.232Z" fill="url(#paint12_linear_143_303)"/>
</g>
<defs>
<linearGradient id="paint0_linear_143_303" x1="211.525" y1="127.697" x2="233.831" y2="180.446" gradientUnits="userSpaceOnUse">
<stop offset="0.01" stop-color="white"/>
<stop offset="1" stop-color="white" stop-opacity="0"/>
</linearGradient>
<linearGradient id="paint1_linear_143_303" x1="195.595" y1="143.468" x2="299.889" y2="208.524" gradientUnits="userSpaceOnUse">
<stop offset="0.01"/>
<stop offset="0.08" stop-opacity="0.69"/>
<stop offset="0.21" stop-opacity="0.32"/>
<stop offset="1" stop-opacity="0"/>
</linearGradient>
<linearGradient id="paint2_linear_143_303" x1="228.608" y1="164.841" x2="-12.546" y2="1.62904" gradientUnits="userSpaceOnUse">
<stop offset="0.01"/>
<stop offset="0.08" stop-opacity="0.69"/>
<stop offset="0.21" stop-opacity="0.32"/>
<stop offset="1" stop-opacity="0"/>
</linearGradient>
<linearGradient id="paint3_linear_143_303" x1="189.384" y1="110.851" x2="168.67" y2="216.785" gradientUnits="userSpaceOnUse">
<stop offset="0.01"/>
<stop offset="0.08" stop-opacity="0.69"/>
<stop offset="0.21" stop-opacity="0.32"/>
<stop offset="1" stop-opacity="0"/>
</linearGradient>
<linearGradient id="paint4_linear_143_303" x1="176.145" y1="114.13" x2="249.003" y2="172.281" gradientUnits="userSpaceOnUse">
<stop offset="0.01"/>
<stop offset="0.08" stop-opacity="0.69"/>
<stop offset="0.21" stop-opacity="0.32"/>
<stop offset="1" stop-opacity="0"/>
</linearGradient>
<linearGradient id="paint5_linear_143_303" x1="173.305" y1="154.567" x2="309.311" y2="73.4413" gradientUnits="userSpaceOnUse">
<stop offset="0.01"/>
<stop offset="0.08" stop-opacity="0.69"/>
<stop offset="0.21" stop-opacity="0.32"/>
<stop offset="1" stop-opacity="0"/>
</linearGradient>
<linearGradient id="paint6_linear_143_303" x1="218.908" y1="119.708" x2="266.634" y2="183.396" gradientUnits="userSpaceOnUse">
<stop offset="0.01"/>
<stop offset="0.08" stop-opacity="0.69"/>
<stop offset="0.21" stop-opacity="0.32"/>
<stop offset="1" stop-opacity="0"/>
</linearGradient>
<linearGradient id="paint7_linear_143_303" x1="178.446" y1="114.097" x2="195.657" y2="138.655" gradientUnits="userSpaceOnUse">
<stop offset="0.01"/>
<stop offset="0.08" stop-opacity="0.69"/>
<stop offset="0.21" stop-opacity="0.32"/>
<stop offset="1" stop-opacity="0"/>
</linearGradient>
<linearGradient id="paint8_linear_143_303" x1="128.134" y1="159.859" x2="28.6385" y2="225.539" gradientUnits="userSpaceOnUse">
<stop offset="0.01"/>
<stop offset="0.08" stop-opacity="0.69"/>
<stop offset="0.21" stop-opacity="0.32"/>
<stop offset="1" stop-opacity="0"/>
</linearGradient>
<linearGradient id="paint9_linear_143_303" x1="107.88" y1="105.033" x2="125.914" y2="199.042" gradientUnits="userSpaceOnUse">
<stop offset="0.01" stop-color="white"/>
<stop offset="1" stop-color="white" stop-opacity="0"/>
</linearGradient>
<linearGradient id="paint10_linear_143_303" x1="76.45" y1="125.235" x2="224.661" y2="267.793" gradientUnits="userSpaceOnUse">
<stop offset="0.01"/>
<stop offset="0.08" stop-opacity="0.69"/>
<stop offset="0.21" stop-opacity="0.32"/>
<stop offset="1" stop-opacity="0"/>
</linearGradient>
<linearGradient id="paint11_linear_143_303" x1="258.069" y1="68.5876" x2="233.725" y2="120.399" gradientUnits="userSpaceOnUse">
<stop offset="0.01" stop-color="white"/>
<stop offset="1" stop-color="white" stop-opacity="0"/>
</linearGradient>
<linearGradient id="paint12_linear_143_303" x1="235.79" y1="67.323" x2="257.763" y2="189.104" gradientUnits="userSpaceOnUse">
<stop offset="0.01"/>
<stop offset="0.08" stop-opacity="0.69"/>
<stop offset="0.21" stop-opacity="0.32"/>
<stop offset="1" stop-opacity="0"/>
</linearGradient>
<clipPath id="clip0_143_303">
<rect width="335" height="255" fill="white"/>
</clipPath>
</defs>
</svg>
