<svg width="350" height="202" viewBox="0 0 350 202" fill="none" xmlns="http://www.w3.org/2000/svg">
<g clip-path="url(#clip0_143_628)">
<path opacity="0.18" d="M213.231 11.5991C227.886 19.2062 240.048 30.7143 251.432 42.8503C266.855 59.3031 286.512 70.8199 304.464 84.1413C324.836 99.2495 344.361 118.639 348.948 143.619C350.902 154.233 349.965 165.246 347.605 175.79C344.91 188.195 340.054 200.028 333.26 210.748C319.295 232.401 296.871 247.97 272.273 255.692C247.675 263.414 221.133 263.653 195.872 258.628C182.676 256.019 169.639 251.994 156.187 251.649C145.996 251.384 135.858 253.242 125.791 254.586C94.7852 258.726 61.7554 257.717 34.3203 242.68C17.1911 233.198 2.22733 217.01 0.238645 197.479C-2.04172 175.1 12.3741 155.817 26.9754 140.567C38.8948 128.174 49.2811 114.391 57.9106 99.5149C61.7288 92.9957 65.6532 87.8299 67.9954 80.4262C70.2404 73.3498 71.6281 66.0168 74.2708 59.0554C77.2945 51.1361 81.9365 43.9356 87.8999 37.9145C97.5694 28.1844 110.191 21.9926 122.547 16.0041C129.795 12.4659 137.06 8.98078 144.697 6.46864C162.336 0.718109 181.308 0.489754 199.081 5.81407C203.967 7.2995 208.704 9.23616 213.231 11.5991Z" fill="#464646"/>
<path d="M236.839 205.104C234.798 205.741 232.721 206.767 231.616 208.598C231.077 209.681 230.651 210.816 230.343 211.986C229.615 214.027 228.445 215.883 226.917 217.42C225.389 218.957 223.541 220.137 221.504 220.875C220.338 221.291 219.03 221.618 218.305 222.645C217.959 223.196 217.782 223.838 217.798 224.489C217.814 225.14 218.021 225.772 218.393 226.307C219.158 227.358 220.198 228.178 221.398 228.677C225.703 230.694 230.714 230.694 235.381 229.774C240.048 228.854 244.494 227.12 249.028 225.643C254.891 223.793 260.916 222.504 267.023 221.795C271.858 221.238 276.746 221.035 281.412 219.549C286.079 218.063 290.481 215.046 292.266 210.517C286.486 204.582 277.241 203.865 269.012 204.502C258.485 205.298 247.154 201.902 236.839 205.104Z" fill="url(#paint0_linear_143_628)"/>
<path d="M31.9604 196.595C29.9187 197.24 27.8416 198.258 26.7368 200.089C26.1956 201.171 25.7661 202.306 25.4552 203.476C24.7314 205.521 23.5631 207.378 22.0346 208.916C20.5061 210.453 18.6555 211.632 16.6166 212.366C15.4587 212.782 14.1506 213.109 13.417 214.135C13.0752 214.688 12.9015 215.329 12.9172 215.979C12.9329 216.63 13.1373 217.261 13.5054 217.797C14.2666 218.856 15.3115 219.678 16.5194 220.168C20.8238 222.185 25.8353 222.185 30.502 221.265C35.1688 220.345 39.6146 218.611 44.1488 217.134C50.0119 215.283 56.0375 213.995 62.1443 213.286C66.9701 212.729 71.8667 212.525 76.5335 211.048C81.2003 209.571 85.6019 206.537 87.3873 202.008C81.6069 196.073 72.3617 195.356 64.1329 195.993C53.5973 196.763 42.2662 193.331 31.9604 196.595Z" fill="url(#paint1_linear_143_628)"/>
<path d="M117.35 184.706C111.959 185.679 106.426 186.741 101.777 189.642C100.177 190.633 98.6212 192.021 98.3914 193.87C98.1351 195.931 99.6907 197.859 101.573 198.726C103.522 199.455 105.605 199.757 107.681 199.611L131.952 199.761L149.92 199.867C152.095 199.867 154.596 199.549 156.735 199.867C160.651 200.522 164.045 202.433 168.225 202.627C173.608 202.884 178.973 201.884 184.232 200.858C187.52 200.221 190.887 199.549 193.76 197.806C194.918 197.108 196.076 196.037 195.987 194.675C195.865 193.859 195.462 193.111 194.847 192.561C190.755 188.333 184.046 188.678 178.31 187.377C172.211 185.989 166.705 182.468 160.527 181.442C157.691 181.071 154.827 180.964 151.971 181.124C146.871 181.247 141.718 180.566 136.689 181.354C130.219 182.442 123.794 183.627 117.35 184.706Z" fill="url(#paint2_linear_143_628)"/>
<path d="M150.274 176.303C145.749 175.277 146.633 181.707 145.439 184.087C144.695 185.306 143.75 186.392 142.646 187.298C141.535 188.214 140.809 189.515 140.613 190.942C140.585 191.209 140.641 191.478 140.773 191.712C140.991 191.995 141.305 192.19 141.656 192.26C144.24 193.013 147.014 192.737 149.399 191.491C150.513 190.958 151.439 190.096 152.051 189.023C152.545 187.87 152.777 186.623 152.731 185.37C152.864 182.689 154.048 177.134 150.274 176.303Z" fill="#FDB9A9"/>
<path d="M146.235 189.518C146.235 189.518 133.357 190.067 138.81 194.118C144.264 198.169 152.422 193.136 153.235 192.172C154.048 191.208 153.385 189.668 153.385 189.668L146.235 189.518Z" fill="#464646"/>
<path d="M152.678 191.287C151.529 192.685 145.475 194.569 142.805 194.374C140.136 194.18 137.723 192.933 137.979 191.199C138.236 189.465 142.973 185.44 143.866 185.449C144.759 185.458 145.457 187.519 147.251 187.944C148.048 188.078 148.867 188.005 149.628 187.733C150.39 187.46 151.068 186.997 151.6 186.387C151.762 186.163 151.998 186.003 152.265 185.934C152.533 185.864 152.816 185.89 153.067 186.007C153.433 186.853 153.589 187.775 153.522 188.695C153.454 189.614 153.164 190.504 152.678 191.287Z" fill="white"/>
<path d="M165.795 178.842C161.269 177.789 162.153 184.211 160.96 186.59C160.218 187.814 159.273 188.903 158.167 189.81C157.062 190.731 156.337 192.03 156.134 193.454C156.106 193.721 156.161 193.99 156.293 194.224C156.512 194.508 156.826 194.702 157.177 194.772C159.761 195.52 162.533 195.245 164.92 194.003C166.03 193.463 166.953 192.604 167.571 191.535C168.065 190.383 168.298 189.135 168.252 187.882C168.384 185.175 169.569 179.647 165.795 178.842Z" fill="#FDB9A9"/>
<path d="M161.791 192.004C161.791 192.004 148.913 192.543 154.366 196.603C159.82 200.663 167.969 195.613 168.756 194.693C169.542 193.773 168.906 192.181 168.906 192.181L161.791 192.004Z" fill="#464646"/>
<path d="M168.199 193.755C167.05 195.161 161.004 197.037 158.326 196.851C155.648 196.665 153.244 195.409 153.5 193.675C153.756 191.942 158.494 187.908 159.387 187.926C160.279 187.944 160.986 189.996 162.772 190.411C163.57 190.546 164.39 190.473 165.153 190.2C165.916 189.928 166.596 189.465 167.129 188.855C167.29 188.632 167.524 188.472 167.79 188.402C168.056 188.333 168.338 188.358 168.587 188.474C168.954 189.32 169.11 190.243 169.042 191.163C168.975 192.082 168.685 192.972 168.199 193.755Z" fill="white"/>
<path d="M154.128 120.39L160.182 184.078L168.897 182.999C172.344 167.457 171.496 120.939 171.496 120.939L154.128 120.39Z" fill="#473F47"/>
<path d="M160.182 118.665L154.128 182.353L145.351 181.301C140.366 140.983 144.467 115.844 144.467 115.844L160.182 118.665Z" fill="#473F47"/>
<path d="M145.28 95.6227C145.174 94.4551 144.865 93.2963 144.741 92.0845C144.458 89.6777 144.503 87.2436 144.874 84.8488C145.285 82.3035 146.052 79.8289 147.154 77.4982C148.162 75.4726 149.973 74.6145 152.024 73.6062C153.732 72.6787 155.585 72.0476 157.504 71.7397C158.863 71.6168 160.233 71.6943 161.57 71.9697C165.68 72.7481 171.098 74.8711 173.944 78.1616C176.056 80.5941 176.304 84.0881 176.366 87.3167C176.454 91.7631 176.363 96.2094 176.092 100.656C176.092 101.302 176.021 101.947 175.968 102.593C175.588 107.467 175.19 112.527 173.802 117.241C173.369 118.718 172.918 120.204 171.54 121.001C168.322 122.867 163.399 121.885 159.926 121.354C155.321 120.7 150.583 120.019 146.5 117.816C145.647 117.446 144.957 116.78 144.555 115.941C144.202 114.941 144.635 113.853 144.944 112.836C146.323 108.281 145.254 103.495 145.254 98.8513C145.254 98.011 145.36 97.153 145.36 96.3126C145.351 96.0473 145.28 95.835 145.28 95.6227Z" fill="white"/>
<path opacity="0.1" d="M156.47 77.6309C156.928 76.7612 157.473 75.9403 158.096 75.1807C158.175 75.0774 158.278 74.9954 158.397 74.9418C158.504 74.9152 158.616 74.9152 158.724 74.9418L162.666 75.5699C162.85 75.5785 163.028 75.6399 163.178 75.7468C163.303 75.855 163.395 75.9959 163.444 76.1537C163.686 77.1042 163.553 78.1116 163.072 78.9665C161.924 81.1766 160.565 83.2708 159.015 85.2203C158.13 86.4129 157.374 87.697 156.762 89.0505C156.47 89.7316 156.373 90.5011 156.09 91.1822C155.807 91.8633 155.206 91.5095 154.702 91.3945L148.621 90.1119L145.581 89.475C145.139 89.3866 144.794 89.3866 145.024 88.8647C145.105 88.7111 145.215 88.575 145.348 88.4642C145.482 88.3534 145.636 88.2701 145.802 88.219C146.28 88.098 146.768 88.021 147.26 87.989C148.269 87.7399 149.214 87.2819 150.035 86.6445C150.685 86.2251 151.302 85.7579 151.883 85.2469C154.075 83.2389 155.073 80.2668 156.47 77.6309Z" fill="#020202"/>
<path d="M149.85 73.7478C150.262 73.1901 150.814 72.7508 151.449 72.474C152.89 71.9787 154.322 73.1905 155.807 73.5355C156.921 73.7832 158.308 73.6416 158.971 74.5793C159.168 74.9782 159.27 75.4171 159.27 75.8619C159.27 76.3067 159.168 76.7455 158.971 77.1445C157.724 81.1428 156.188 85.0451 154.375 88.8206C153.65 90.3332 152.705 91.6865 151.936 93.1372C151.052 94.7382 150.866 96.4277 149.62 97.8607C148.374 99.2937 146.084 100.302 144.237 99.5679C143.313 99.1609 142.529 98.4902 141.983 97.6396C139.676 94.3048 141.285 90.7489 142.558 87.4053C143.477 85.0524 149.39 74.2608 149.85 73.7478Z" fill="white"/>
<path opacity="0.1" d="M169.728 121.531C168.181 121.814 166.343 122.929 164.743 122.628C162.967 121.778 161.049 121.265 159.086 121.116C156.435 120.806 153.668 119.603 151.131 118.789C150.061 118.544 149.067 118.037 148.241 117.312C146.694 115.702 147.154 113.119 147.472 110.908C147.931 107.675 147.862 104.389 147.269 101.178C147.037 99.6655 146.643 98.1826 146.093 96.755C145.607 95.6405 144.847 94.9152 145.033 93.5883C145.192 92.4207 145.996 91.0497 147.304 90.9347C147.997 90.959 148.671 91.1665 149.258 91.5362C150.918 92.429 152.707 93.0587 154.561 93.4026C156.815 93.6813 159.103 93.3139 161.157 92.3431C163.212 91.3723 164.948 89.8379 166.166 87.9183C167.377 86.0077 168.579 77.1887 171.964 78.4094C173.058 78.8761 174.037 79.5762 174.832 80.4609C175.627 81.3455 176.22 82.3932 176.569 83.531C177.231 85.8281 177.506 88.2197 177.382 90.6074C177.311 96.7993 176.083 103.124 175.296 109.271C174.987 111.598 174.624 120.24 171.549 121.001C170.921 121.125 170.329 121.408 169.728 121.531Z" fill="#020202"/>
<path d="M147.782 87.0691C147.216 86.7166 146.572 86.5103 145.907 86.4686C145.242 86.4269 144.577 86.5512 143.972 86.8303C143.377 87.1298 142.874 87.5863 142.519 88.1506C142.164 88.7149 141.97 89.3656 141.957 90.0323C142.015 90.9406 142.321 91.8156 142.841 92.5622C143.122 93.0529 143.505 93.478 143.963 93.8094C144.689 94.243 145.538 94.4205 146.376 94.3136C147.134 94.2862 147.875 94.0834 148.542 93.7209C149.532 93.1637 150.813 91.5715 150.486 90.3243C149.925 88.9959 148.984 87.8632 147.782 87.0691Z" fill="#FDB9A9"/>
<path d="M175.049 79.4177C178.778 85.6096 180.078 92.8895 181.306 100.001C181.521 100.869 181.56 101.772 181.421 102.655C181.189 103.438 180.757 104.147 180.166 104.71C179.575 105.274 178.847 105.672 178.054 105.866C176.467 106.238 174.827 106.325 173.21 106.122C169.737 105.901 165.618 105.601 162.675 103.584C161.658 102.894 160.765 102.036 159.731 101.372C158.722 100.78 157.674 100.257 156.594 99.8067C154.534 98.8499 152.569 97.7008 150.725 96.3746C150.09 95.9847 149.562 95.4438 149.187 94.8001C148.586 93.5971 149.054 92.1465 149.523 90.9081C149.609 90.5855 149.802 90.3018 150.071 90.1032C150.439 89.9527 150.851 89.9527 151.22 90.1032C156.191 91.5837 161.259 92.7187 166.387 93.4998C167.792 93.721 167.173 92.173 166.988 91.3681C166.679 90.2413 166.431 89.0985 166.245 87.9448C166.063 86.2841 166.29 84.604 166.907 83.0513C167.523 81.4986 168.51 80.1206 169.781 79.0374C170.435 78.4278 171.263 78.0381 172.149 77.9229C172.711 77.9517 173.26 78.1 173.76 78.3577C174.26 78.6155 174.699 78.9769 175.049 79.4177Z" fill="white"/>
<path d="M156.187 64.9286C156.053 64.3131 155.959 63.6897 155.904 63.0622C155.604 60.4086 155.347 57.6487 156.647 55.3666C157.184 54.4073 157.968 53.6087 158.916 53.0529C159.864 52.4971 160.944 52.2041 162.043 52.2041C163.142 52.2041 164.221 52.4971 165.169 53.0529C166.118 53.6087 166.901 54.4073 167.439 55.3666C168.197 56.7964 168.526 58.4155 168.384 60.0282C168.24 61.633 167.944 63.2206 167.5 64.7694C167.076 66.4147 165.998 67.4231 165.379 68.9356C165.168 69.5865 165.07 70.2685 165.087 70.9524C165.176 71.9736 165.176 73.0006 165.087 74.0218C164.08 74.6844 162.928 75.094 161.729 75.216C161.167 75.2068 160.609 75.1113 160.076 74.9329C159.775 74.8732 159.509 74.6988 159.334 74.4464C159.254 74.2254 159.236 73.9871 159.281 73.7565C159.281 73.5353 159.334 73.323 159.334 73.1019C159.457 71.9985 159.44 70.8837 159.281 69.7848C158.922 68.9263 158.331 68.1849 157.575 67.6442C156.842 66.9051 156.357 65.956 156.187 64.9286Z" fill="#FDB9A9"/>
<path opacity="0.1" d="M156.841 66.1318C158.036 65.9817 159.218 65.7422 160.377 65.4153C160.774 65.3003 161.26 65.203 161.561 65.4861C161.696 65.6424 161.787 65.8316 161.826 66.0345C161.97 66.4309 162.036 66.8514 162.021 67.2729C161.95 67.6249 161.853 67.9709 161.729 68.3078C161.672 68.4761 161.652 68.6544 161.668 68.8312C161.685 69.008 161.739 69.1793 161.826 69.3339C162.109 69.7231 162.71 69.8469 162.842 70.3158C162.975 70.7846 162.63 70.9703 162.524 71.2976C162.409 71.6907 162.329 72.0933 162.286 72.5006C162.277 72.9709 162.205 73.4379 162.074 73.8893C161.978 74.1214 161.83 74.3282 161.641 74.4939C161.453 74.6595 161.229 74.7796 160.986 74.8447C160.742 74.9045 160.487 74.9085 160.241 74.8565C159.994 74.8044 159.763 74.6976 159.563 74.5439C159.051 73.9935 158.739 73.2859 158.68 72.536L158.202 70.1565C158.062 69.3285 157.849 68.5145 157.566 67.724C157.28 67.1755 156.949 66.6518 156.576 66.1583L156.841 66.1318Z" fill="#020202"/>
<path d="M81.598 111.775C81.598 111.775 82.146 113.995 76.8871 115.658C71.6281 117.321 69.6836 111.775 69.6836 111.775C69.6836 111.775 79.6535 107.891 81.598 111.775Z" fill="#2F3554"/>
<path d="M54.5519 167.882L55.1617 165.538L56.7527 159.496C56.799 159.209 56.928 158.942 57.1239 158.727C57.3625 158.523 58.105 160.814 58.4232 160.788C60.1588 160.689 61.9 160.817 63.6026 161.168C64.0622 161.257 62.1973 187.227 62.0382 189.775C61.6581 195.613 61.9675 207.156 62.8248 207.085C61.1189 207.227 57.6277 207.422 56.8941 206.652C55.5683 205.325 57.8398 196.772 55.365 186.732C54.7564 184.264 54.4185 181.737 54.3574 179.195C54.2602 175.507 53.6415 171.473 54.5519 167.882Z" fill="#EFAC88"/>
<path d="M66.7492 196.771C66.9425 196.422 67.1023 196.054 67.2265 195.675C67.6331 194.374 67.3237 193.021 67.4121 191.712C67.4651 191.02 67.4651 190.325 67.4121 189.633C67.2707 187.864 67.0409 186.095 66.8199 184.326C66.4399 181.345 65.7416 178.24 65.7416 175.224C65.7416 172.897 67.6154 165.591 67.6154 165.591L65.7416 156.064H75.2519C75.2519 156.064 76.4717 164.025 76.1358 164.91C75.443 166.717 75.0345 168.621 74.9249 170.553C74.9249 173.976 74.4653 177.444 74.2002 180.858C73.8996 184.591 73.605 188.324 73.3163 192.057C73.2102 193.401 73.0953 194.71 72.9893 196.081C72.9082 198.057 73.2737 200.025 74.0587 201.84C74.3592 202.663 74.6951 203.68 74.1206 204.352C73.5461 205.024 72.291 204.794 71.469 204.352C70.3009 203.567 69.0643 202.889 67.7745 202.326C67.2622 202.209 66.7726 202.009 66.3249 201.734C65.4411 201.061 65.4411 199.717 65.8477 198.682C66.1122 198.029 66.4132 197.391 66.7492 196.771Z" fill="#EFAC88"/>
<path d="M72.8744 85.3264C72.8744 85.3264 71.7961 82.4782 74.2443 85.3264C76.6926 88.1747 80.6258 105.017 80.6258 105.017C80.6258 105.017 75.1194 110.076 73.5549 109.077C71.9905 108.077 72.8744 85.3264 72.8744 85.3264Z" fill="#2F3554"/>
<path d="M70.5144 58.4626C73.5991 59.7363 74.3504 64.3095 74.1294 67.202C73.8554 70.8198 70.8238 74.4376 71.8667 78.0731C72.547 79.9357 72.865 81.9113 72.8036 83.8935C72.6092 85.8661 71.3894 87.8828 69.4715 88.3163C69.0131 88.3755 68.5644 88.4945 68.1368 88.6701C67.5893 89.0648 67.166 89.6081 66.9171 90.2357C65.131 93.8534 61.9842 96.6146 58.1669 97.9137C54.3574 99.0724 49.8497 98.1791 47.154 95.26C44.4582 92.341 44.0339 87.3786 46.5971 84.3358C47.3307 83.4512 48.3207 82.6463 48.3649 81.514C48.3387 80.9912 48.2587 80.4725 48.1262 79.9661C47.9844 78.9854 48.1539 77.9849 48.6106 77.1057C49.0673 76.2265 49.7882 75.5129 50.6717 75.0657C52.1036 74.3757 53.9243 74.4111 55.0292 73.2965C56.2666 72.0139 55.9661 69.9706 55.913 68.1927C55.3562 58.896 62.3652 55.1101 70.5144 58.4626Z" fill="#8B2F0C"/>
<path d="M50.4154 136.144C49.6729 143.398 50.9634 150.819 52.2627 158.055C52.5632 159.753 52.9344 161.593 54.1983 162.76C55.1917 163.558 56.3722 164.087 57.6277 164.3C65.8719 166.211 74.5179 165.308 82.1902 161.734L80.2369 143.689C79.7242 138.886 79.1674 133.959 77.4439 129.43C77.1257 128.59 72.1407 120.24 73.3251 119.523C70.974 120.974 68.2429 120.762 65.5471 121.39C62.3571 122.139 59.287 123.33 56.4256 124.928C54.9595 125.575 53.688 126.595 52.7375 127.886C51.787 129.177 51.1906 130.694 51.0076 132.288C50.7399 133.561 50.5422 134.849 50.4154 136.144Z" fill="#464646"/>
<path d="M50.4154 136.144C49.6729 143.398 50.9634 150.819 52.2627 158.055C52.5632 159.753 52.9344 161.593 54.1983 162.76C55.1917 163.558 56.3722 164.087 57.6277 164.3C65.8719 166.211 74.5179 165.308 82.1902 161.734L80.2369 143.689C79.7242 138.886 79.1674 133.959 77.4439 129.43C77.1257 128.59 72.1407 120.24 73.3251 119.523C70.974 120.974 68.2429 120.762 65.5471 121.39C62.3571 122.139 59.287 123.33 56.4256 124.928C54.9595 125.575 53.688 126.595 52.7375 127.886C51.787 129.177 51.1906 130.694 51.0076 132.288C50.7399 133.561 50.5422 134.849 50.4154 136.144Z" fill="url(#paint3_linear_143_628)"/>
<path d="M70.3553 77.6309C70.3553 77.6309 67.96 80.6738 67.9512 82.5402C67.9259 83.7763 67.7568 85.0053 67.4474 86.2022C67.4474 86.2022 67.0673 88.4313 65.8299 87.5645C64.5925 86.6976 60.2439 80.8595 60.2439 80.8595L64.9902 74.5261L70.3553 77.6309Z" fill="#EFAC88"/>
<path d="M77.7266 131.385C77.7266 131.385 76.7544 120.549 74.9513 116.206C74.4508 114.632 74.3296 112.962 74.5978 111.332C74.9602 107.493 76.1269 103.814 76.7544 100.019C76.9455 98.3211 76.8196 96.6024 76.3832 94.9505C75.7232 91.66 74.9513 88.393 74.0675 85.1496C73.9897 84.7323 73.8106 84.3404 73.546 84.0086C73.2445 83.7342 72.8849 83.5317 72.4942 83.4159L67.7655 81.6468C68.2605 83.1682 68.7289 84.8666 68.0484 86.3173C67.8819 86.7406 67.5679 87.0894 67.1645 87.2991C66.2807 87.6618 65.3968 87.078 64.6897 86.4146C63.6194 85.3729 62.7924 84.1072 62.2679 82.7083C62.0027 81.9784 61.8161 81.2222 61.7111 80.4527C61.6404 79.9042 61.7995 79.1081 61.3841 78.7278C60.7123 79.9131 59.3247 80.4969 58.2729 81.3195C57.2211 82.1422 55.8688 83.0886 54.596 83.9732C53.5349 84.5501 52.67 85.431 52.1124 86.503C51.8385 87.4086 51.8385 88.375 52.1124 89.2805C52.3333 90.2889 52.678 91.2708 52.8636 92.288C53.0406 93.5815 53.1468 94.8838 53.1818 96.1889C53.3938 98.1299 53.7394 100.054 54.216 101.947C54.3954 103.104 54.5046 104.271 54.543 105.441C54.543 105.441 56.3107 112.022 55.9572 113.632C55.6036 115.242 52.298 121.461 52.1124 124.185C51.9268 126.909 53.173 132.633 53.173 132.633C53.173 132.633 56.2312 132.836 59.6252 132.969C63.6202 133.119 70.8679 131.43 71.407 130.89C72.1141 130.182 72.503 125.131 72.4412 121.761C74.0498 126.998 75.3137 131.385 75.3137 131.385H77.7266Z" fill="#2F3554"/>
<path d="M54.1983 138.011C54.8612 138.205 55.0822 138.798 55.5771 139.541C56.2399 140.574 56.8505 141.64 57.4067 142.734C57.4828 142.81 57.5256 142.914 57.5256 143.022C57.5256 143.129 57.4828 143.233 57.4067 143.309C57.3414 143.37 57.2573 143.408 57.1681 143.415C56.6021 143.619 55.9926 143.671 55.4004 143.566C55.1731 144.982 55.3892 146.434 56.0191 147.723C56.1693 148.033 56.3284 148.448 56.0809 148.696C55.9661 148.784 55.8277 148.837 55.6832 148.846C54.419 148.928 53.1603 148.619 52.077 147.962C51.4482 147.685 50.8736 147.299 50.38 146.821C49.7094 146.024 49.2181 145.091 48.9393 144.087C48.9393 143.449 49.0015 142.812 49.1249 142.186C49.1249 141.894 49.4255 138.081 49.5138 138.081L53.615 137.922C53.8127 137.923 54.0092 137.953 54.1983 138.011Z" fill="#FDC099"/>
<path d="M54.2248 136.498L54.5519 138.152L48.851 139.143V137.241L54.2248 136.498Z" fill="white"/>
<path d="M54.2249 114.747C54.2249 114.747 58.7591 103.831 58.1404 99.9835C57.5217 96.1357 54.9143 87.1575 52.9875 87.2371C51.0607 87.3167 50.4508 89.8908 50.4508 92.2791C50.4508 94.6674 46.5795 116.206 46.332 118.196C46.0845 120.187 48.5152 138.541 48.5152 138.541L54.9673 137.117L54.2249 114.747Z" fill="#2F3554"/>
<path d="M71.575 61.4966C71.6787 61.5573 71.7689 61.6386 71.8401 61.7354C72.2995 62.5308 72.5997 63.4081 72.724 64.3183C73.9702 68.7411 75.6673 72.9515 73.2366 77.3389C73.0618 77.7003 72.8116 78.02 72.503 78.2766C72.1856 78.4956 71.8232 78.6407 71.4424 78.7011C69.6524 79.0705 67.7892 78.7749 66.2011 77.8697C65.2913 77.4351 64.4061 76.9508 63.5495 76.419C63.1791 76.1578 62.8761 75.8122 62.6657 75.4106C62.4712 74.9949 62.153 74.588 62.2856 74.1015C62.3828 73.7653 62.5773 73.4734 62.648 73.1284C62.7201 72.5898 62.6211 72.0421 62.3651 71.5628C62.3046 71.4597 62.2655 71.3455 62.2503 71.2269C62.2351 71.1083 62.2441 70.9878 62.2768 70.8728C62.4359 70.4925 62.9662 70.519 63.3727 70.4217C63.7045 70.2961 64.0055 70.1009 64.2555 69.8491C64.5056 69.5974 64.6988 69.2949 64.8223 68.9622C65.2134 68.1713 65.51 67.337 65.7061 66.4766C65.8289 65.7338 66.0427 65.0089 66.3425 64.3183C66.9332 63.3697 67.7869 62.6136 68.7996 62.1423C69.4979 61.7354 70.806 61.0189 71.575 61.4966Z" fill="#FDC099"/>
<path d="M73.546 67.9273L73.9438 67.5823C73.9438 67.5823 74.0587 67.83 74.2001 67.8034C74.3256 67.7694 74.4471 67.7219 74.5625 67.6619C74.5625 67.6619 74.3415 67.9803 74.1912 68.0069C73.9829 68.0334 73.772 68.0334 73.5637 68.0069L73.546 67.9273Z" fill="#8A3C1F"/>
<path d="M73.8907 67.609L74.0587 67.3082C74.0587 67.3082 74.1913 67.4321 74.2796 67.379C74.3475 67.33 74.4097 67.2736 74.4653 67.2109C74.4653 67.2109 74.4122 67.4586 74.3238 67.5117C74.1897 67.5663 74.0506 67.6077 73.9084 67.6355L73.8907 67.609Z" fill="#8A3C1F"/>
<path d="M93.3091 96.2507H76.7721L62.595 114.189L78.1951 113.561L93.3091 96.2507Z" fill="#464646"/>
<path d="M83.4806 110.925C83.501 110.752 83.5335 110.581 83.5778 110.412C83.7866 109.301 83.7564 108.158 83.4894 107.06C83.2218 105.952 82.5422 104.987 81.5891 104.362C81.5169 104.318 81.4398 104.282 81.3593 104.256C81.2325 104.256 81.1105 104.304 81.0184 104.391C80.9263 104.479 80.8712 104.598 80.8644 104.725C80.8622 104.979 80.9197 105.231 81.0323 105.459C81.3239 106.187 81.5286 106.947 81.6422 107.723L80.8113 106.777C80.5828 106.466 80.2785 106.22 79.9275 106.06C79.7455 105.99 79.5432 105.993 79.3634 106.069C79.1836 106.144 79.0404 106.287 78.9641 106.467C78.922 106.686 78.953 106.913 79.0525 107.113L79.8303 109.369C79.4692 108.646 78.8912 108.056 78.1774 107.679C78.0352 107.874 77.9585 108.11 77.9585 108.351C77.9585 108.593 78.0352 108.828 78.1774 109.024C78.4586 109.429 78.6985 109.862 78.8934 110.315C78.7078 110.095 78.5393 109.862 78.3896 109.616C78.2039 109.395 77.8504 109.254 77.6383 109.448C77.4261 109.643 77.4969 109.917 77.5587 110.156C78.0909 111.847 78.3008 113.623 78.1774 115.392L79.1674 115.171C79.9504 114.911 80.6916 114.538 81.3682 114.066C81.9305 113.731 82.4117 113.276 82.777 112.733C83.1423 112.19 83.3826 111.573 83.4806 110.925Z" fill="#EFAC88"/>
<path d="M186.645 109.448C186.945 109.192 187.414 108.997 187.714 109.254C187.807 109.357 187.876 109.48 187.917 109.612C187.958 109.745 187.97 109.885 187.953 110.023V111.606C190.649 110.784 192.682 108.617 194.661 106.618C195.077 106.193 195.687 105.733 196.199 106.034C196.385 106.171 196.523 106.361 196.598 106.579C196.672 106.797 196.678 107.033 196.615 107.254C196.463 107.681 196.359 108.123 196.305 108.572C196.305 109.298 196.827 109.926 196.898 110.642C196.977 111.527 196.376 112.323 196.297 113.208V114.092C196.163 114.631 195.899 115.13 195.528 115.543C194.638 116.886 193.457 118.011 192.072 118.833C191.124 119.246 190.12 119.517 189.093 119.638L185.885 120.187C185.572 120.266 185.243 120.266 184.93 120.187C183.967 119.859 183.666 118.285 183.702 117.418C183.843 116.609 184.143 115.836 184.585 115.145C185.248 113.305 185.045 110.793 186.645 109.448Z" fill="#A67C52"/>
<path d="M91.7005 99.7004C91.4883 99.3643 91.0994 99.0459 90.7371 99.1962C90.6182 99.2683 90.5159 99.3647 90.4367 99.479C90.3575 99.5933 90.3032 99.723 90.2775 99.8597L89.7913 101.363C87.4579 99.78 86.1587 97.1087 84.8682 94.6054C84.5942 94.0747 84.1523 93.4643 83.569 93.597C83.3581 93.6771 83.1771 93.8203 83.0505 94.007C82.924 94.1938 82.8581 94.4152 82.8619 94.6408C82.8738 95.0911 82.8413 95.5414 82.7646 95.9853C82.5525 96.6753 81.8808 97.1264 81.5803 97.7544C81.2444 98.5682 81.5803 99.5235 81.3947 100.408C81.3328 100.691 81.209 100.965 81.1649 101.293C81.1294 101.847 81.2359 102.401 81.4742 102.903C81.9192 104.452 82.7112 105.88 83.7899 107.078C84.5727 107.75 85.4478 108.307 86.3885 108.732L89.2964 110.209C89.5659 110.369 89.8681 110.466 90.1802 110.492C91.1967 110.492 91.948 109.059 92.1778 108.219C92.2839 107.41 92.2389 106.588 92.0452 105.795C91.8861 103.805 92.8141 101.496 91.7005 99.7004Z" fill="#A67C52"/>
<path d="M148.047 238.054C146.654 238.847 145.206 239.542 143.716 240.132L143.566 240.194C141.108 241.15 138.36 237.293 138.36 237.293C138.36 237.293 134.886 215.816 135.045 206.917C135.151 200.805 133.71 192.092 131.51 176.285C130.962 192.428 128.231 199.523 128.929 205.307C129.989 214.109 128.726 235.966 128.726 235.966C128.726 235.966 126.401 240.221 123.847 239.646H123.696C122.162 239.295 120.655 238.83 119.189 238.257C119.189 238.257 116.219 208.182 116.219 200.221C116.219 192.26 116.546 185.184 116.546 185.184L114.999 160.036L121.619 150.421L122.158 150.191L122.671 149.687L130.007 144.3C130.007 144.3 130.007 145.556 129.875 147.705L135.567 150.766L136.123 151.182L136.68 151.323L146.235 152.995C146.235 152.995 148.745 191.544 149.549 199.434C150.354 207.324 148.047 238.054 148.047 238.054Z" fill="#464646"/>
<path d="M148.047 238.054C146.654 238.847 145.206 239.542 143.716 240.132L143.566 240.194C141.108 241.15 138.36 237.293 138.36 237.293C138.36 237.293 134.886 215.816 135.045 206.917C135.151 200.805 133.71 192.092 131.51 176.285C130.962 192.428 128.231 199.523 128.929 205.307C129.989 214.109 128.726 235.966 128.726 235.966C128.726 235.966 126.401 240.221 123.847 239.646H123.696C122.162 239.295 120.655 238.83 119.189 238.257C119.189 238.257 116.219 208.182 116.219 200.221C116.219 192.26 116.546 185.184 116.546 185.184L114.999 160.036L121.619 150.421L122.158 150.191L122.671 149.687L130.007 144.3C130.007 144.3 130.007 145.556 129.875 147.705L135.567 150.766L136.123 151.182L136.68 151.323L146.235 152.995C146.235 152.995 148.745 191.544 149.549 199.434C150.354 207.324 148.047 238.054 148.047 238.054Z" fill="url(#paint4_linear_143_628)"/>
<path d="M140.127 85.9103C140.728 86.5118 141.63 87.131 141.382 87.9271C141.25 88.3517 140.799 88.5994 140.498 88.9001C140.067 89.3365 139.726 89.8546 139.497 90.4241C139.268 90.9937 139.155 91.6033 139.164 92.2172C139.201 93.4169 139.03 94.6139 138.66 95.7554C138.453 96.3282 138.055 96.8122 137.534 97.1263C137.013 97.4404 136.399 97.5654 135.796 97.4803C135.098 97.2857 134.4 96.6842 133.728 96.9673C133.215 97.1884 133.056 97.8518 132.791 98.2941C132.41 98.8643 131.877 99.3158 131.252 99.5973C130.626 99.8788 129.935 99.9789 129.256 99.8863C127.903 99.6903 126.599 99.2433 125.411 98.5683C124.902 98.3728 124.463 98.0312 124.147 97.5865C123.942 97.1598 123.892 96.675 124.006 96.2154C124.253 94.809 125.225 93.6502 126.012 92.4384C127.47 90.1985 128.346 87.6289 128.558 84.9639C128.699 83.1063 128.558 81.063 129.751 79.6566C131.368 77.7017 135.275 77.7194 137.281 79.1524C139.588 80.6296 138.28 83.9909 140.127 85.9103Z" fill="#A67C52"/>
<path d="M137.732 77.4982C137.495 77.9591 137.138 78.3473 136.698 78.6216C135.814 79.1435 135.054 79.7538 134.197 80.3288C133.386 80.8738 132.817 81.71 132.606 82.664C132.243 84.4331 133.198 86.2818 132.606 87.9713C132.402 88.3074 131.837 88.104 131.607 87.7679C131.377 87.4317 131.262 87.0072 130.917 86.8037C130.334 86.4676 129.618 87.0337 129.371 87.6883C129.111 88.4189 129.144 89.2215 129.462 89.9285C129.78 90.6356 130.358 91.1925 131.077 91.483C130.997 92.0226 130.29 92.2437 129.742 92.1641C129.198 92.0143 128.636 91.9428 128.071 91.9518C126.808 92.1906 126.304 93.9951 125.066 94.1809C124.63 94.1495 124.207 94.0194 123.829 93.8002C123.451 93.5811 123.127 93.2787 122.883 92.916L121.345 91.1469C121.101 90.8314 120.832 90.5357 120.541 90.2623C120.196 89.9881 119.657 89.9704 119.339 89.6431C119.021 89.3158 119.339 88.564 119.03 88.1571C118.876 88.0163 118.696 87.908 118.499 87.8386C118.056 87.6155 117.704 87.2466 117.501 86.7939C117.298 86.3411 117.257 85.8323 117.386 85.353C117.421 85.2317 117.421 85.1028 117.386 84.9815C117.333 84.8223 117.138 84.7427 116.979 84.6631C116.509 84.3681 116.16 83.9132 115.998 83.3819C115.835 82.8505 115.87 82.2785 116.095 81.7706C116.343 81.1794 116.706 80.6439 117.165 80.1961C117.334 79.9523 117.567 79.7599 117.838 79.6398C118.109 79.5196 118.408 79.4765 118.703 79.515L118.941 77.3036C118.962 76.8536 119.07 76.4119 119.259 76.0033C119.763 75.1187 120.921 74.8888 121.911 74.7738L121.487 72.9339C121.437 72.8211 121.411 72.699 121.411 72.5756C121.411 72.4523 121.437 72.3302 121.487 72.2174C121.621 72.0541 121.809 71.9443 122.017 71.9078C122.613 71.7497 123.223 71.649 123.838 71.6071C123.607 71.0966 123.432 70.5628 123.316 70.0149C123.29 69.9104 123.29 69.8009 123.316 69.6964C123.369 69.5973 123.45 69.5164 123.55 69.4643C123.649 69.4122 123.762 69.3914 123.873 69.4045C124.098 69.4486 124.329 69.4486 124.554 69.4045C124.554 69.4045 124.218 67.8654 124.2 67.7239C124.147 67.4828 124.142 67.2334 124.186 66.9904C124.23 66.7474 124.322 66.5156 124.456 66.3086C124.636 66.0945 124.868 65.9307 125.13 65.833C125.392 65.7353 125.674 65.7072 125.95 65.7513C126.5 65.8505 127.029 66.0419 127.515 66.3174C127.462 65.7248 128.222 65.4329 128.832 65.3798C129.968 65.3143 131.102 65.538 132.128 66.0298C133.154 66.5217 134.039 67.2658 134.7 68.1927C134.804 68.3583 134.929 68.5099 135.072 68.6438C135.343 68.8215 135.641 68.953 135.955 69.033C136.433 69.2455 136.857 69.5611 137.198 69.9572C137.539 70.3534 137.787 70.8201 137.926 71.324C138.184 72.3287 138.288 73.3664 138.236 74.4023C138.264 75.1957 138.19 75.9896 138.015 76.764C137.948 77.0184 137.853 77.2646 137.732 77.4982Z" fill="#2F3554"/>
<path d="M129.344 96.64C130.748 97.2319 132.112 97.9145 133.428 98.6833C133.833 98.8985 134.186 99.2005 134.462 99.5679C134.605 99.7718 134.693 100.009 134.718 100.257C134.742 100.505 134.703 100.755 134.603 100.983C134.232 101.62 133.401 101.381 132.756 101.16C129.777 99.9748 126.569 99.8686 123.511 99.8775C123.3 99.9085 123.085 99.8812 122.889 99.7986C122.692 99.7159 122.522 99.5811 122.397 99.4087C122.322 99.2034 122.295 98.984 122.316 98.7666C122.338 98.5492 122.408 98.3394 122.521 98.1526C124.138 94.9417 126.737 95.4547 129.344 96.64Z" fill="white"/>
<path d="M187.113 121.54C186.505 123.06 185.604 124.446 184.462 125.618C183.375 126.848 182.243 128.033 181.068 129.156C178.3 131.845 175.375 134.368 172.309 136.71C170.126 138.4 167.792 140.063 165.07 140.594C163.987 140.85 162.851 140.78 161.808 140.39C160.945 139.948 160.172 139.348 159.528 138.621C158.741 137.843 149.726 127.458 149.576 127.458C149.067 127.732 148.674 128.181 148.471 128.723C147.164 131.418 146.359 134.328 146.093 137.312C145.987 138.648 145.987 139.991 146.093 141.328C146.447 145.865 148.038 150.545 146.465 154.826C146.158 155.736 145.64 156.561 144.953 157.232C144.288 157.807 143.525 158.257 142.699 158.559C141.248 159.16 139.733 159.593 138.183 159.85C137.307 160.01 136.421 160.107 135.531 160.142C132.234 160.266 128.946 159.62 125.65 159.788C122.839 159.93 120.064 160.673 117.253 160.558C116.735 160.598 116.215 160.524 115.729 160.341C115.244 160.157 114.804 159.869 114.442 159.496C114.124 159.007 113.927 158.449 113.868 157.869C112.771 151.856 112.207 145.759 112.18 139.647C112.18 136.825 111.72 126.511 110.774 124.61C110.659 124.38 110.536 124.265 110.412 124.3C107.265 125.185 100.513 126.954 97.3131 127.52C96.8502 127.632 96.3706 127.656 95.8989 127.591C95.4132 127.466 94.9606 127.237 94.5731 126.918C90.6134 124.008 88.3861 119.674 86.9807 115.11C86.7067 114.225 86.4593 113.34 86.2295 112.456C86.1092 112.22 86.0366 111.963 86.0159 111.699C85.9952 111.435 86.0269 111.17 86.109 110.919C86.1912 110.667 86.3222 110.434 86.4945 110.234C86.6669 110.033 86.8772 109.868 87.1133 109.749C87.1667 109.717 87.2229 109.691 87.2813 109.67L93.212 105.848L97.6313 111.492C98.5151 112.589 99.5227 113.774 100.928 113.933C102.855 114.128 104.304 112.376 105.489 110.881C109.328 106.054 114.252 102.202 119.86 99.6387C120.683 99.243 121.549 98.9461 122.441 98.7541L122.662 98.701C122.79 98.6652 122.92 98.6386 123.051 98.6214C124.204 98.5164 125.366 98.585 126.498 98.8249C134.025 100.097 141.471 101.807 148.798 103.946C149.675 104.077 150.509 104.413 151.232 104.926C151.955 105.439 152.547 106.116 152.961 106.901C155.02 110.006 157.027 113.146 159.095 116.251C160.863 118.904 162.63 122.266 165.282 124.212C171.016 121.886 176.429 118.833 181.386 115.127C182.084 114.605 182.968 114.039 183.772 114.384C184.03 114.511 184.261 114.685 184.453 114.897C186.353 116.799 188.068 118.657 187.113 121.54Z" fill="white"/>
<path d="M230.007 100.744C229.221 101.415 228.273 101.869 227.258 102.062C226.33 102.099 225.405 101.937 224.545 101.585L211.393 97.1617C210.401 97.9351 209.739 99.0555 209.539 100.298C209.339 101.54 209.616 102.812 210.315 103.858C211.428 105.406 213.346 106.14 215.141 106.786L224.156 110.032C225.927 110.764 227.793 111.244 229.698 111.456C232.349 111.633 234.939 110.784 237.458 109.944C240.154 109.059 243.106 107.936 244.396 105.397C245.687 102.858 244.75 99.5146 245.13 96.5514C245.386 94.6231 246.235 92.7743 246.199 90.8283C246.155 89.1654 244.829 86.6621 242.85 87.0071C241.144 87.3078 240.004 90.2799 239.102 91.5271C236.564 95.0513 233.496 98.1606 230.007 100.744Z" fill="white"/>
<path d="M209.749 96.4454C209.603 96.0944 209.393 95.7735 209.13 95.4989C208.995 95.3646 208.824 95.2723 208.637 95.2331C208.45 95.1938 208.256 95.2094 208.078 95.2778C207.905 95.3851 207.766 95.5393 207.677 95.7224C207.588 95.9056 207.552 96.1102 207.575 96.3127C207.593 96.4517 207.562 96.5927 207.486 96.7108C207.428 96.7533 207.361 96.7805 207.29 96.7897C207.219 96.799 207.146 96.7901 207.08 96.7638C205.586 96.4719 204.075 96.2508 202.554 96.1004C202.428 96.0828 202.3 96.0828 202.174 96.1004C201.926 96.1873 201.721 96.366 201.601 96.5997C201.481 96.8334 201.455 97.1043 201.529 97.3565C201.695 97.857 201.943 98.3263 202.263 98.7453C203.032 100.01 203.323 101.682 204.561 102.505C205.315 102.94 206.188 103.123 207.053 103.026C207.937 102.982 208.777 102.823 209.643 102.858C210.219 102.983 210.821 102.918 211.358 102.673C211.556 102.522 211.714 102.324 211.818 102.097C211.921 101.87 211.967 101.621 211.95 101.372C211.861 100.59 211.578 99.8421 211.128 99.1964C210.65 98.2941 210.191 97.3742 209.749 96.4454Z" fill="#FDB9A9"/>
<path d="M246.429 195.542C241.391 194.401 242.381 201.557 241.055 204.211C240.218 205.552 239.167 206.747 237.944 207.749C236.804 208.863 235.734 210.226 235.673 211.809C235.637 212.115 235.699 212.424 235.849 212.693C236.105 213.001 236.457 213.213 236.848 213.295C239.73 214.126 242.821 213.809 245.475 212.41C246.717 211.815 247.75 210.856 248.436 209.659C248.987 208.376 249.246 206.986 249.196 205.59C249.311 202.654 250.628 196.48 246.429 195.542Z" fill="#FDB9A9"/>
<path d="M263.709 198.364C258.671 197.196 259.661 204.343 258.335 206.997C257.506 208.357 256.454 209.568 255.224 210.579C254.083 211.694 253.023 213.056 252.961 214.639C252.922 214.945 252.981 215.254 253.129 215.524C253.383 215.837 253.74 216.051 254.136 216.125C257.016 216.952 260.102 216.635 262.754 215.241C263.997 214.645 265.029 213.686 265.715 212.49C266.266 211.207 266.526 209.817 266.475 208.421C266.59 205.44 267.907 199.248 263.709 198.364Z" fill="#FDB9A9"/>
<path d="M250.725 133.296L257.46 204.228L267.182 203.025C271.018 185.723 270.081 133.933 270.081 133.933L250.725 133.296Z" fill="#473F47"/>
<path d="M257.46 131.376L250.725 202.309L241.002 201.106C235.452 156.224 240.021 128.281 240.021 128.281L257.46 131.376Z" fill="#473F47"/>
<path d="M240.87 105.724C240.755 104.424 240.41 103.133 240.269 101.806C239.952 99.1284 240.002 96.4201 240.419 93.7564C240.876 90.9203 241.73 88.1629 242.956 85.5654C244.078 83.3186 246.102 82.3633 248.374 81.2399C250.277 80.2064 252.343 79.5036 254.481 79.1612C255.994 79.0221 257.518 79.1056 259.007 79.4089C263.576 80.2935 269.613 82.6464 272.733 86.2554C275.084 88.9709 275.384 92.8541 275.437 96.4454C275.538 101.405 275.435 106.358 275.128 111.306C275.128 112.022 275.04 112.739 274.987 113.455C274.562 118.887 274.103 124.521 272.574 129.767C272.088 131.412 271.575 133.066 270.055 133.95C266.519 136.038 260.995 134.888 257.133 134.349C251.998 133.614 246.73 132.854 242.178 130.368C241.232 129.951 240.464 129.211 240.012 128.281C239.615 127.166 240.101 125.954 240.445 124.822C241.983 119.753 240.79 114.428 240.79 109.254C240.79 108.316 240.914 107.361 240.914 106.423C240.905 106.193 240.87 105.954 240.87 105.724Z" fill="white"/>
<path opacity="0.1" d="M255.224 129.537C255.189 128.994 255.321 128.453 255.604 127.989C256.187 127.272 257.301 127.422 258.193 127.644L263.965 129.077C266.148 129.616 269.498 131.73 270.064 133.933C272.282 132.376 272.857 129.758 273.272 127.077C273.687 124.397 273.705 119.17 274.156 116.463C271.334 118.495 267.971 119.641 264.495 119.753C261.216 119.842 257.097 119.753 255.904 116.215C254.534 112.075 254.057 107.732 253.147 103.486C253.149 103.388 253.129 103.291 253.088 103.202C253.047 103.112 252.987 103.034 252.911 102.971C252.835 102.909 252.746 102.865 252.65 102.842C252.555 102.82 252.456 102.819 252.36 102.841L239.897 102.973C239.703 102.964 239.509 103 239.332 103.08C238.969 103.301 238.969 103.823 239.031 104.238C239.495 107.057 240.908 109.632 243.035 111.536C244.052 112.42 244.715 113.004 244.909 114.322C245.148 115.879 245.086 117.533 245.245 119.116C245.517 122.444 246.246 125.718 247.41 128.847C249.196 133.296 254.888 136.772 255.224 129.537Z" fill="#020202"/>
<path d="M251.821 133.137H233.269L230.962 104.265H249.523L251.821 133.137Z" fill="#464646"/>
<path d="M250.742 72.0405C250.752 70.6776 250.838 69.3162 250.999 67.9627C251.122 66.7863 251.308 65.601 251.538 64.4245C251.55 64.0835 251.635 63.7489 251.787 63.4437C251.94 63.1385 252.156 62.8696 252.422 62.6554C254.242 61.5312 256.346 60.954 258.485 60.9925C259.762 60.7913 261.067 61.106 262.113 61.8673C263.159 62.6286 263.86 63.7743 264.062 65.0526C264.105 65.3039 264.125 65.5584 264.124 65.8133C264.442 68.7942 263.673 71.7663 263.24 74.7296C262.903 77.0248 262.782 79.3466 262.878 81.6645C261.757 82.4099 260.47 82.8658 259.13 82.9913C258.505 82.9906 257.883 82.886 257.292 82.6817C257.126 82.6508 256.968 82.5872 256.827 82.4946C256.686 82.4019 256.564 82.2821 256.47 82.1421C256.379 81.8962 256.357 81.6299 256.408 81.3726C256.442 81.1321 256.462 80.89 256.47 80.6472C256.567 79.2913 256.54 77.9294 256.39 76.5783C256.394 76.5215 256.386 76.4644 256.366 76.411C256.347 76.3576 256.316 76.3091 256.275 76.2687C256.183 76.2422 256.085 76.2422 255.993 76.2687H255.612C254.939 76.3218 254.262 76.3218 253.588 76.2687C252.782 76.1805 252.033 75.8073 251.476 75.2161C250.836 74.2896 250.574 73.1539 250.742 72.0405Z" fill="#FDB9A9"/>
<path d="M253.491 63.3011C253.022 63.4957 252.494 63.4957 252.024 63.3011C251.531 63.0373 251.123 62.6384 250.849 62.1512C250.297 61.3204 250.095 60.3052 250.287 59.3263C250.479 58.3474 251.049 57.4839 251.874 56.9235C252.509 56.4758 253.227 56.1592 253.986 55.9921C254.744 55.8251 255.529 55.8109 256.293 55.9505C256.695 55.6939 257.147 55.5252 257.619 55.4551C259.443 54.8995 261.371 54.7813 263.249 55.1101C264.314 55.4199 265.314 55.9204 266.201 56.5873C267.061 57.1554 267.792 57.8965 268.349 58.7633C268.887 59.875 269.225 61.0726 269.348 62.3015C269.636 63.6155 269.793 64.9548 269.816 66.2997C269.814 66.887 269.703 67.4688 269.489 68.0158C269.223 68.6203 268.842 69.1671 268.367 69.6257C267.669 70.3263 266.875 70.9221 266.007 71.3948C265.406 71.7309 264.707 72.0759 264.504 72.7393C264.444 73.0481 264.414 73.3622 264.416 73.6769C264.381 74.1396 264.194 74.5779 263.885 74.9241C263.673 75.1541 263.311 75.7114 263.002 75.8087C262.692 75.906 262.427 75.5168 262.339 75.1983C261.96 73.8574 262.054 72.4271 262.604 71.1471C262.993 70.5231 263.221 69.8116 263.267 69.0772C263.196 68.3607 262.215 67.7858 261.747 68.1927C261.278 68.5996 261.19 69.661 260.606 69.4576C261.269 67.3877 260.412 64.7871 258.423 63.9734C257.36 63.6524 256.254 63.4973 255.144 63.5134C254.614 63.406 254.076 63.3468 253.535 63.3365L253.491 63.3011Z" fill="#DD8049"/>
<path d="M255.63 76.2157C257.201 75.9184 258.738 75.462 260.217 74.8535C260.35 79.639 256.461 80.6297 256.461 80.6297C256.558 79.2737 256.532 77.9118 256.382 76.5607C256.386 76.4464 256.344 76.3351 256.267 76.2511C256.174 76.2246 256.076 76.2246 255.984 76.2511H255.63V76.2157Z" fill="#DE9F93"/>
<path d="M278.611 103.265L280.82 112.942C281.049 113.747 281.148 114.583 281.112 115.419C280.953 116.985 279.883 118.276 278.858 119.462C277.597 121.134 276.013 122.536 274.2 123.584C272.943 124.139 271.607 124.498 270.24 124.645C266.629 125.193 262.974 125.397 259.325 125.255C259.036 125.262 258.749 125.205 258.485 125.087C258.222 124.918 258.003 124.687 257.849 124.415C256.572 122.485 255.474 120.442 254.57 118.312C257.494 116.341 260.705 114.834 264.089 113.845C264.771 113.717 265.409 113.412 265.936 112.96C266.28 112.529 266.508 112.018 266.599 111.474C268.04 105.282 264.716 98.3826 267.377 92.6065C268.888 89.3159 272.114 85.7865 274.448 90.1828C276.648 94.1898 277.603 98.8603 278.611 103.265Z" fill="white"/>
<path d="M252.033 118.382C251.635 118.082 251.212 117.816 250.769 117.586C250.545 117.474 250.296 117.421 250.045 117.432C249.795 117.442 249.551 117.517 249.337 117.648C249.143 117.79 248.992 118.02 248.754 118.099C248.597 118.135 248.434 118.135 248.276 118.099L245.324 117.798C245.091 117.741 244.848 117.738 244.613 117.79C244.378 117.842 244.159 117.948 243.972 118.099C243.592 118.533 243.822 119.214 244.078 119.736C244.836 121.274 245.68 122.769 246.606 124.211C246.774 124.507 246.986 124.775 247.234 125.008C247.573 125.264 247.966 125.442 248.383 125.529C249.904 125.882 251.492 125.814 252.979 125.335C254.455 124.85 255.832 124.104 257.044 123.132C257.218 123.004 257.37 122.849 257.495 122.672C257.617 122.455 257.69 122.213 257.707 121.965C257.849 120.824 257.486 118.984 256.001 119.063C254.64 119.303 253.237 119.063 252.033 118.382Z" fill="#FDB9A9"/>
<path d="M65.8034 198.939C65.8643 198.841 65.9538 198.763 66.0597 198.718C66.3072 198.638 66.537 198.859 66.705 199.054C68.234 200.823 70.5232 201.707 72.7152 202.503C72.8478 202.548 73.0157 202.592 73.1218 202.503C73.2279 202.415 73.2278 202.318 73.272 202.229C73.353 202.12 73.4694 202.041 73.6014 202.007C73.7334 201.974 73.8731 201.986 73.9968 202.044C74.2374 202.172 74.4553 202.34 74.642 202.539C75.5259 203.353 76.7898 203.68 77.7621 204.405C78.0208 204.565 78.2172 204.808 78.3189 205.095C78.3522 205.253 78.3453 205.417 78.299 205.571C78.2527 205.726 78.1684 205.866 78.0537 205.98C77.8124 206.219 77.5042 206.379 77.1699 206.44C76.5622 206.565 75.9381 206.589 75.3226 206.511C72.2644 206.281 69.2181 205.956 66.1835 205.537C65.9467 205.521 65.7154 205.458 65.5029 205.352C65.2691 205.163 65.0871 204.918 64.9742 204.639C64.8613 204.361 64.8212 204.058 64.8577 203.76C64.8917 202.97 64.9833 202.183 65.1317 201.407C65.113 200.536 65.3463 199.679 65.8034 198.939Z" fill="#262836"/>
<path d="M154.596 53.0579C154.448 52.3964 154.559 51.7032 154.905 51.1208C155.194 50.785 155.57 50.5368 155.993 50.4043C156.432 50.2379 156.889 50.1192 157.354 50.0505C157.585 50.0299 157.811 49.9637 158.017 49.8559C158.183 49.7142 158.327 49.547 158.441 49.3605C158.784 48.9812 159.212 48.6881 159.69 48.5052C160.167 48.3224 160.681 48.2547 161.19 48.3079C162.206 48.3079 163.205 48.6086 164.221 48.6529C165.238 48.6971 166.466 48.5113 167.386 49.0775C168.088 49.6039 168.571 50.3732 168.738 51.2358C169.095 51.1854 169.457 51.2706 169.754 51.4746C170.311 51.9876 169.754 53.0314 170.24 53.6417C170.47 53.9336 170.877 54.0575 171.124 54.3671C171.282 54.6622 171.33 55.0043 171.257 55.3312C171.233 55.6913 171.183 56.049 171.107 56.4016C170.859 57.3746 170.223 58.1707 169.922 59.1525C169.772 59.6656 169.737 60.2051 169.613 60.7182C169.267 61.8546 168.713 62.9165 167.978 63.8495C168.488 61.5235 168.545 59.1207 168.146 56.7731C168.154 56.6649 168.128 56.5568 168.073 56.4635C168.018 56.3702 167.935 56.2961 167.836 56.2512C167.695 56.2177 167.546 56.2399 167.421 56.3131C165.068 57.2436 162.469 57.3465 160.05 56.605C159.362 56.2988 158.606 56.1769 157.858 56.2512C157.556 56.3413 157.261 56.4506 156.974 56.5785C156.672 56.6934 156.339 56.6934 156.037 56.5785C155.975 56.7083 155.941 56.8502 155.94 56.9942C155.365 56.8615 155.4 56.03 155.241 55.5701C154.947 54.7552 154.731 53.914 154.596 53.0579Z" fill="#2F3554"/>
<path d="M169.86 61.4878C169.92 61.5783 169.96 61.681 169.975 61.7885C170.097 62.3962 169.987 63.0274 169.666 63.5576C169.354 64.0943 168.89 64.5256 168.331 64.796C168.187 64.8799 168.026 64.9314 167.859 64.9466C167.693 64.9619 167.525 64.9407 167.368 64.8844C167.214 64.7792 167.087 64.6397 166.997 64.477C166.906 64.3143 166.855 64.1328 166.846 63.9468C166.762 63.5698 166.761 63.179 166.844 62.8016C166.926 62.4242 167.09 62.0694 167.324 61.762C167.524 61.5595 167.764 61.4001 168.029 61.2936C168.293 61.1872 168.577 61.1358 168.862 61.1428C169.043 61.1242 169.226 61.1454 169.399 61.205C169.571 61.2645 169.729 61.361 169.86 61.4878Z" fill="#FDB9A9"/>
<path d="M161.075 69.8909C161.119 70.2536 160.836 70.5721 160.801 70.9347C160.765 71.2974 160.801 71.7308 160.801 72.1289C160.783 72.6316 160.617 73.1177 160.324 73.5265C159.972 73.8812 159.528 74.1296 159.042 74.2429C158.047 74.6154 156.993 74.8072 155.931 74.8091C155.491 74.7841 155.054 74.728 154.623 74.641C153.924 74.526 152.112 74.5879 151.971 73.6326C152.014 73.1086 152.158 72.598 152.395 72.1289C152.475 71.8723 152.546 71.6158 152.616 71.3593C152.687 71.1028 152.784 70.7224 152.855 70.404C153.191 68.8825 153.421 67.1842 154.623 66.1493C154.923 65.8751 155.427 65.6805 155.701 65.9812C155.975 66.282 155.878 66.7154 156.196 66.795C156.308 66.8042 156.42 66.786 156.523 66.7419C157.705 66.2042 159.001 65.9643 160.297 66.0431C160.54 66.0561 160.776 66.1302 160.983 66.2585C161.19 66.3868 161.361 66.5652 161.481 66.7773C161.826 67.6619 160.695 68.5464 160.969 69.431C161.022 69.5797 161.057 69.734 161.075 69.8909Z" fill="#FDB9A9"/>
<path d="M158.459 103.893C158.222 103.655 157.961 103.441 157.681 103.256C157.858 106.538 158.397 109.97 160.403 112.571C160.926 113.166 161.413 113.793 161.861 114.446C162.745 115.932 162.816 117.86 163.947 119.169C164.941 120.123 166.208 120.742 167.571 120.939C168.759 121.353 170.06 121.302 171.213 120.797C172.129 120.109 172.807 119.15 173.148 118.055C173.917 116.224 175.331 113.579 174.165 111.598C173.334 110.191 170.718 109.077 169.127 109.077C166.942 108.521 164.808 107.784 162.745 106.874C161.714 106.52 160.747 106 159.882 105.335C159.369 104.902 158.945 104.362 158.459 103.893Z" fill="white"/>
<path opacity="0.1" d="M111.596 117.445C110.978 119.448 110.712 121.543 110.81 123.637C110.813 123.955 110.78 124.272 110.712 124.583C110.597 124.353 110.474 124.238 110.35 124.273C107.203 125.158 100.451 126.927 97.2512 127.493C96.7883 127.605 96.3087 127.629 95.837 127.564C95.3513 127.44 94.8987 127.21 94.5112 126.892C90.5515 123.982 88.3242 119.647 86.9188 115.083C87.0179 114.293 87.1925 113.514 87.4403 112.757C89.3229 113.774 90.304 115.861 91.4795 117.657C92.6122 119.403 94.0075 120.963 95.616 122.283C95.9356 122.579 96.3156 122.803 96.7297 122.938C97.2198 123.032 97.7252 123.011 98.2057 122.876C103.014 121.965 108.105 120.868 111.596 117.445Z" fill="#020202"/>
<path opacity="0.1" d="M181.068 129.174C178.3 131.863 175.375 134.386 172.309 136.728C170.126 138.418 167.792 140.081 165.07 140.611C163.987 140.868 162.851 140.797 161.808 140.408C160.945 139.965 160.172 139.365 159.528 138.639C158.741 137.86 149.726 127.476 149.576 127.476C149.067 127.749 148.674 128.199 148.471 128.741C147.164 131.435 146.359 134.346 146.093 137.33C145.987 138.666 145.987 140.009 146.093 141.345C146.447 145.883 148.038 150.562 146.465 154.844C146.158 155.754 145.64 156.579 144.953 157.25C144.285 157.816 143.522 158.26 142.699 158.559C140.923 159.265 139.108 159.87 137.264 160.372C136.37 160.64 135.426 160.697 134.506 160.54C133.976 160.434 132.641 159.488 132.27 159.532C133.619 159.337 134.887 158.769 135.932 157.893C136.977 157.016 137.756 155.865 138.183 154.57C138.81 152.526 138.501 150.332 138.51 148.192C138.587 145.709 138.883 143.237 139.394 140.806L141.285 130.448C141.922 126.91 143.212 121.885 146.889 120.293C147.622 119.975 148.427 120.496 149.063 120.992C153.323 124.335 157.663 127.759 160.721 132.243C161.605 133.491 162.409 134.897 163.806 135.463C165.202 136.029 167.032 135.525 168.543 134.915C170.798 134.004 172.991 132.949 175.111 131.757C176.701 130.872 178.805 128.864 180.785 129.103C180.881 129.117 180.976 129.141 181.068 129.174Z" fill="#020202"/>
</g>
<defs>
<linearGradient id="paint0_linear_143_628" x1="250.557" y1="181.212" x2="259.029" y2="249.949" gradientUnits="userSpaceOnUse">
<stop offset="0.01"/>
<stop offset="0.08" stop-opacity="0.69"/>
<stop offset="0.21" stop-opacity="0.32"/>
<stop offset="1" stop-opacity="0"/>
</linearGradient>
<linearGradient id="paint1_linear_143_628" x1="45.6779" y1="172.676" x2="54.1495" y2="241.413" gradientUnits="userSpaceOnUse">
<stop offset="0.01"/>
<stop offset="0.08" stop-opacity="0.69"/>
<stop offset="0.21" stop-opacity="0.32"/>
<stop offset="1" stop-opacity="0"/>
</linearGradient>
<linearGradient id="paint2_linear_143_628" x1="152.475" y1="122.92" x2="141.356" y2="272.93" gradientUnits="userSpaceOnUse">
<stop offset="0.01"/>
<stop offset="0.08" stop-opacity="0.69"/>
<stop offset="0.21" stop-opacity="0.32"/>
<stop offset="1" stop-opacity="0"/>
</linearGradient>
<linearGradient id="paint3_linear_143_628" x1="36.4769" y1="144.831" x2="81.7663" y2="141.598" gradientUnits="userSpaceOnUse">
<stop offset="0.01"/>
<stop offset="0.08" stop-opacity="0.69"/>
<stop offset="0.21" stop-opacity="0.32"/>
<stop offset="1" stop-opacity="0"/>
</linearGradient>
<linearGradient id="paint4_linear_143_628" x1="96.7828" y1="145.282" x2="181.483" y2="263.776" gradientUnits="userSpaceOnUse">
<stop offset="0.01"/>
<stop offset="0.08" stop-opacity="0.69"/>
<stop offset="0.21" stop-opacity="0.32"/>
<stop offset="1" stop-opacity="0"/>
</linearGradient>
<clipPath id="clip0_143_628">
<rect width="350" height="264" fill="white"/>
</clipPath>
</defs>
</svg>
