<svg width="404" height="249" viewBox="0 0 404 249" fill="none" xmlns="http://www.w3.org/2000/svg">
<g clip-path="url(#clip0_143_356)">
<path opacity="0.18" d="M373.304 204.574C370.713 214.772 366.218 224.95 362.28 234.027C347.317 268.301 322.068 291.74 282.535 286.949C263.482 284.634 244.834 278.246 225.649 278.863C207.295 279.429 189.821 286.332 172.388 292.083C139.992 302.787 104.123 309.64 72.0817 297.855C40.04 286.069 15.1254 249.814 26.5247 217.673C35.3932 192.586 63.1222 175.757 66.0074 149.316C69.8038 114.951 29.0658 85.3064 37.6609 51.7701C41.3156 37.65 53.0794 27.1384 65.5417 19.5578C94.1718 2.08214 129.372 -3.68918 162.264 2.25397C193.547 7.86357 219.575 34.163 251.1 35.3759C271.429 36.144 290.988 24.6115 311.236 26.5117C336.282 28.9274 354.646 51.0727 366.359 73.319C370.13 80.2639 373.284 87.5251 375.785 95.0196C380.651 110.292 381.639 126.533 378.66 142.282C375.623 158.454 375.987 173.615 375.521 190.201C375.317 195.059 374.573 199.879 373.304 204.574Z" fill="#464646"/>
<path d="M78.2977 202.633C76.6577 202.633 74.3899 203.462 74.7949 205.049L149.64 211.113C158.448 211.831 167.265 212.538 176.114 212.538C189.477 212.538 202.78 210.901 216.113 210.133C228.666 209.415 241.24 209.466 253.803 209.526C265.436 209.587 279.74 211.679 291.039 208.637C292.739 208.182 294.45 206.818 294.339 205.069C294.288 204.26 293.863 203.421 294.177 202.674C294.359 202.306 294.649 202.003 295.007 201.804C297.325 200.379 300.282 201.491 302.954 202.077C307.208 203 311.651 202.437 315.538 200.48C316.267 200.178 316.887 199.664 317.32 199.005C317.526 198.672 317.601 198.274 317.53 197.889C317.459 197.505 317.247 197.16 316.935 196.922C316.621 196.767 316.274 196.687 315.923 196.69L293.013 194.911C292.167 194.78 291.302 194.857 290.492 195.133C289.591 195.528 289.642 196.579 288.913 197.013C287.728 197.711 285.035 197.337 283.679 197.418C280.206 197.61 276.734 197.802 273.251 197.974C266.32 198.304 259.375 198.583 252.416 198.812C238.243 199.288 223.999 199.571 209.795 199.823C181.702 200.278 153.598 200.521 125.515 201.602C109.773 202.188 94.0402 202.289 78.2977 202.633Z" fill="url(#paint0_linear_143_356)"/>
<path d="M135.851 46.9084C134.534 46.4516 133.095 46.4875 131.802 47.0095C130.968 47.3066 130.205 47.7749 129.564 48.3842C128.922 48.9935 128.415 49.7303 128.076 50.5471C128.07 50.6533 128.04 50.7568 127.99 50.8508C127.94 50.9448 127.871 51.027 127.787 51.0921C127.702 51.1571 127.605 51.2035 127.501 51.228C127.398 51.2526 127.29 51.2547 127.185 51.2344C125.712 51.231 124.29 51.7751 123.197 52.7606C121.921 53.923 121.921 55.3481 121.749 57.0158C121.54 56.911 121.309 56.8563 121.076 56.8563C120.842 56.8563 120.611 56.911 120.402 57.0158C119.985 57.2211 119.606 57.4944 119.279 57.8244C118.72 58.2722 118.273 58.843 117.973 59.4922C117.568 60.5939 118.023 61.8067 118.044 62.9792C118.051 63.0317 118.046 63.0852 118.031 63.1358C118.015 63.1864 117.988 63.233 117.953 63.2723C117.911 63.2901 117.866 63.2993 117.821 63.2993C117.776 63.2993 117.731 63.2901 117.689 63.2723C117.375 63.2117 117.092 63.0499 116.778 63.0196C116.411 63.0231 116.057 63.1541 115.776 63.3902C115.495 63.6263 115.305 63.9528 115.239 64.3134C115.12 65.0373 115.158 65.7785 115.351 66.4865C115.539 67.1949 115.518 67.9426 115.29 68.6393C115.047 69.097 114.729 69.5105 114.348 69.8623C113.25 70.8839 112.536 72.2501 112.324 73.7335C112.264 74.4503 112.457 75.1654 112.87 75.7549C113.082 76.046 113.366 76.2772 113.695 76.426C114.023 76.5748 114.384 76.6361 114.743 76.604C116.424 76.3816 117.011 74.0266 118.611 73.4707C120.21 72.9148 122.002 71.0348 123.035 69.549C123.865 68.3563 124.675 66.9716 126.072 66.5168C126.532 66.4192 126.975 66.2558 127.388 66.0316C127.663 65.8176 127.89 65.5492 128.056 65.2432C128.635 64.3917 129.082 63.4581 129.382 62.4738C129.888 60.5332 129.382 58.35 130.324 56.561C130.593 56.0478 130.967 55.5971 131.422 55.2383C131.878 54.8795 132.404 54.6207 132.966 54.4789C133.442 54.3576 133.978 54.3273 134.414 54.1959C134.964 54.0372 135.484 53.7879 135.953 53.458C136.568 53.1045 137.098 52.6195 137.504 52.0376C137.91 51.4557 138.182 50.7914 138.301 50.0923C138.392 48.6671 137.107 47.3936 135.851 46.9084Z" fill="#FF681C"/>
<path d="M139.992 49.304C140.498 49.4989 140.917 49.8675 141.175 50.3437C141.433 50.8198 141.513 51.3722 141.399 51.9016C141.226 52.3296 140.968 52.7181 140.64 53.0437L138.807 55.0652L138.048 52.2553C137.97 51.7281 137.708 51.2451 137.309 50.8908C137.049 50.7419 136.754 50.6635 136.454 50.6635C136.153 50.6635 135.859 50.7419 135.598 50.8908C135.062 51.1637 134.586 51.5882 134.11 51.9016C133.978 51.9824 133.796 52.0734 133.654 51.9925C133.513 51.9117 133.492 51.6185 133.563 51.4164C134.434 49.0108 137.765 48.3438 139.992 49.304Z" fill="#FF681C"/>
<path d="M141.237 125.342C141.293 126.288 141.608 127.201 142.148 127.98C142.968 128.991 144.335 129.496 145.469 130.234C145.586 130.293 145.688 130.377 145.768 130.48C145.849 130.583 145.906 130.703 145.935 130.83C145.928 130.953 145.885 131.072 145.811 131.171C145.737 131.269 145.636 131.344 145.52 131.386C145.279 131.454 145.028 131.471 144.78 131.437C143.624 131.255 142.458 131.144 141.288 131.103C140.701 131.103 140.022 131.164 139.648 130.709C139.407 130.323 139.323 129.86 139.415 129.415C139.519 127.743 139.382 126.065 139.01 124.432C138.886 124.034 138.841 123.615 138.878 123.199C138.916 123.007 139.004 122.828 139.132 122.68C139.261 122.532 139.426 122.42 139.612 122.356C139.797 122.291 139.996 122.277 140.189 122.313C140.382 122.349 140.562 122.435 140.711 122.562C141.379 123.138 141.156 124.563 141.237 125.342Z" fill="#FCBDBA"/>
<path d="M122.508 131.598C122.371 132.535 122.49 133.492 122.852 134.368C123.45 135.57 124.695 136.288 125.657 137.238C125.761 137.318 125.845 137.42 125.903 137.538C125.961 137.655 125.991 137.784 125.991 137.915C125.961 138.034 125.896 138.142 125.803 138.223C125.711 138.304 125.597 138.355 125.474 138.37C125.228 138.396 124.978 138.364 124.746 138.279C123.645 137.878 122.523 137.541 121.384 137.268C120.807 137.167 120.129 137.066 119.856 136.561C119.69 136.139 119.69 135.669 119.856 135.247C120.295 133.627 120.5 131.952 120.463 130.274C120.422 129.859 120.463 129.44 120.585 129.041C120.661 128.86 120.783 128.703 120.939 128.584C121.095 128.465 121.279 128.389 121.474 128.364C121.668 128.338 121.866 128.364 122.048 128.438C122.229 128.513 122.388 128.634 122.508 128.788C123.085 129.466 122.579 130.82 122.508 131.598Z" fill="#FCBDBA"/>
<path d="M118.823 86.115C118.823 86.115 128.481 100.427 134.809 104.703C134.687 106.134 134.718 107.574 134.9 108.998C135.224 111.313 136.347 113.344 136.712 115.618L137.927 123.27C137.977 123.613 138.079 124.028 138.413 124.149C138.613 124.213 138.829 124.213 139.03 124.149L141.703 123.421C141.542 118.824 141.64 114.221 141.996 109.635C142.216 107.78 142.263 105.909 142.138 104.046C141.693 100.003 138.372 96.3942 136.064 93.1498C134.677 91.1889 133.189 88.2578 131.245 86.772C129.625 85.5389 127.337 86.1251 125.302 86.3273C123.776 86.4727 122.237 86.3634 120.747 86.0038C120.442 85.8614 120.107 85.797 119.771 85.8164C119.435 85.8358 119.109 85.9384 118.823 86.115Z" fill="#473F47"/>
<path d="M115.148 86.0239C115.148 86.0239 118.904 102.873 123.247 109.16C122.616 110.454 122.117 111.808 121.759 113.203C121.519 114.344 121.38 115.504 121.344 116.67L120.473 130.739C121.819 130.809 123.167 130.638 124.452 130.234L129.392 117.832C130.336 115.856 130.892 113.719 131.032 111.535C131.032 107.31 126.983 91.8862 126.507 91.1079C125.444 89.3593 123.105 89.0864 121.141 88.5204C119.667 88.1042 118.274 87.4412 117.021 86.5596C116.404 86.1755 115.847 85.8015 115.148 86.0239Z" fill="#473F47"/>
<path d="M149.822 72.9046C151.88 73.8528 154.164 74.2031 156.413 73.9153C157.072 73.7339 157.763 73.6994 158.437 73.8142C158.144 74.2286 157.86 74.825 158.275 75.1787C158.403 75.2617 158.549 75.3105 158.701 75.3202C159.247 75.3905 159.801 75.3316 160.32 75.1484C160.565 75.0271 160.837 74.9681 161.11 74.9766C161.351 75.0364 161.559 75.189 161.688 75.401C161.817 75.6131 161.857 75.8674 161.798 76.1086C161.655 76.5898 161.338 77.0005 160.908 77.2609C160.212 77.7206 159.407 77.9873 158.574 78.0335C157.742 78.0796 156.912 77.9037 156.17 77.5236C155.744 77.2912 155.35 76.9981 154.914 76.7656C154.077 76.3846 153.191 76.1193 152.282 75.9772C149.621 75.4272 147.005 74.6771 144.456 73.7334C144.07 73.6417 143.707 73.4725 143.389 73.2362C143.07 72.9999 142.803 72.7014 142.604 72.3588C142.088 71.0852 143.039 68.9526 144.558 69.7814C146.319 70.8022 147.909 72.1162 149.822 72.9046Z" fill="#FCBDBA"/>
<path d="M137.248 65.6475C140.255 67.6097 143.608 68.9818 147.129 69.6905C147.281 69.6905 147.463 69.7916 147.504 69.9432C147.52 70.0464 147.495 70.1518 147.433 70.2363C146.714 71.6813 145.805 73.024 144.73 74.2287C144.615 74.3816 144.466 74.5061 144.295 74.5926C144.126 74.6417 143.95 74.6564 143.776 74.6355C143.602 74.6147 143.434 74.5588 143.282 74.4713C141.008 73.5616 138.78 72.5509 136.601 71.4391C134.66 70.5895 132.932 69.3229 131.539 67.7297C130.844 66.9029 130.432 65.8757 130.364 64.7985C130.364 63.6058 131.458 61.4631 132.966 62.0493C133.644 62.3121 134.242 63.151 134.758 63.626C135.546 64.3502 136.378 65.0253 137.248 65.6475Z" fill="#464646"/>
<path d="M137.248 65.6475C140.255 67.6097 143.608 68.9818 147.129 69.6905C147.281 69.6905 147.463 69.7916 147.504 69.9432C147.52 70.0464 147.495 70.1518 147.433 70.2363C146.714 71.6813 145.805 73.024 144.73 74.2287C144.615 74.3816 144.466 74.5061 144.295 74.5926C144.126 74.6417 143.95 74.6564 143.776 74.6355C143.602 74.6147 143.434 74.5588 143.282 74.4713C141.008 73.5616 138.78 72.5509 136.601 71.4391C134.66 70.5895 132.932 69.3229 131.539 67.7297C130.844 66.9029 130.432 65.8757 130.364 64.7985C130.364 63.6058 131.458 61.4631 132.966 62.0493C133.644 62.3121 134.242 63.151 134.758 63.626C135.546 64.3502 136.378 65.0253 137.248 65.6475Z" fill="url(#paint1_linear_143_356)"/>
<path d="M179.626 59.6235C180.167 60.3045 180.49 61.1323 180.553 61.9991C180.616 62.8659 180.416 63.7315 179.978 64.483C179.541 65.2346 178.888 65.8374 178.103 66.2127C177.318 66.5881 176.437 66.7187 175.577 66.5875C175.577 66.5875 170.788 66.6986 171.872 71.2065L180.983 82.7896L169.381 91.8863C164.866 92.9677 164.755 88.187 164.755 88.187C164.879 87.3288 164.742 86.4532 164.362 85.6734C163.983 84.8935 163.378 84.2452 162.625 83.8121C161.873 83.379 161.008 83.181 160.142 83.2438C159.276 83.3065 158.448 83.6271 157.766 84.1641C157.084 84.701 156.579 85.4298 156.317 86.2561C156.054 87.0825 156.045 87.9686 156.292 88.7999C156.538 89.6313 157.029 90.3697 157.7 90.9199C158.371 91.47 159.192 91.8066 160.057 91.8863C164.178 93.2406 162.578 97.2432 162.578 97.2432L150.976 106.34L127.398 76.4523L138.888 67.3556C143.404 66.2741 143.515 71.0549 143.515 71.0549C143.407 71.7637 143.478 72.488 143.721 73.1628C143.963 73.8376 144.369 74.4417 144.904 74.9207C145.438 75.3998 146.083 75.7388 146.781 75.9073C147.479 76.0758 148.207 76.0685 148.902 75.8861C149.596 75.7036 150.234 75.3518 150.759 74.8621C151.283 74.3725 151.677 73.7604 151.906 73.0809C152.135 72.4014 152.191 71.6758 152.069 70.9693C151.948 70.2628 151.652 69.5976 151.209 69.0334C150.84 68.57 150.38 68.1859 149.858 67.9045C149.336 67.6231 148.763 67.4501 148.172 67.396C144.092 66.0518 145.692 62.0088 145.692 62.0088L157.405 52.7808L166.516 64.3739C166.516 64.3739 170.566 65.9709 171.882 61.8572C171.969 60.9958 172.312 60.18 172.867 59.515C173.423 58.85 174.165 58.3663 174.998 58.126C175.831 57.8857 176.717 57.8999 177.542 58.1668C178.367 58.4337 179.093 58.941 179.626 59.6235Z" fill="#464646"/>
<path d="M179.626 59.6235C180.167 60.3045 180.49 61.1323 180.553 61.9991C180.616 62.8659 180.416 63.7315 179.978 64.483C179.541 65.2346 178.888 65.8374 178.103 66.2127C177.318 66.5881 176.437 66.7187 175.577 66.5875C175.577 66.5875 170.788 66.6986 171.872 71.2065L180.983 82.7896L169.381 91.8863C164.866 92.9677 164.755 88.187 164.755 88.187C164.879 87.3288 164.742 86.4532 164.362 85.6734C163.983 84.8935 163.378 84.2452 162.625 83.8121C161.873 83.379 161.008 83.181 160.142 83.2438C159.276 83.3065 158.448 83.6271 157.766 84.1641C157.084 84.701 156.579 85.4298 156.317 86.2561C156.054 87.0825 156.045 87.9686 156.292 88.7999C156.538 89.6313 157.029 90.3697 157.7 90.9199C158.371 91.47 159.192 91.8066 160.057 91.8863C164.178 93.2406 162.578 97.2432 162.578 97.2432L150.976 106.34L127.398 76.4523L138.888 67.3556C143.404 66.2741 143.515 71.0549 143.515 71.0549C143.407 71.7637 143.478 72.488 143.721 73.1628C143.963 73.8376 144.369 74.4417 144.904 74.9207C145.438 75.3998 146.083 75.7388 146.781 75.9073C147.479 76.0758 148.207 76.0685 148.902 75.8861C149.596 75.7036 150.234 75.3518 150.759 74.8621C151.283 74.3725 151.677 73.7604 151.906 73.0809C152.135 72.4014 152.191 71.6758 152.069 70.9693C151.948 70.2628 151.652 69.5976 151.209 69.0334C150.84 68.57 150.38 68.1859 149.858 67.9045C149.336 67.6231 148.763 67.4501 148.172 67.396C144.092 66.0518 145.692 62.0088 145.692 62.0088L157.405 52.7808L166.516 64.3739C166.516 64.3739 170.566 65.9709 171.882 61.8572C171.969 60.9958 172.312 60.18 172.867 59.515C173.423 58.85 174.165 58.3663 174.998 58.126C175.831 57.8857 176.717 57.8999 177.542 58.1668C178.367 58.4337 179.093 58.941 179.626 59.6235Z" fill="url(#paint2_linear_143_356)"/>
<path d="M141.288 85.9837C143.768 88.0052 146.35 90.1782 149.387 90.7038C149.971 90.8345 150.576 90.8472 151.165 90.7414C151.754 90.6355 152.317 90.4131 152.819 90.0873C152.992 89.9844 153.133 89.8353 153.226 89.6567C153.319 89.4782 153.36 89.2772 153.345 89.0765C153.234 88.5813 152.626 88.4095 152.13 88.3185C149.81 88.0017 147.582 87.2029 145.59 85.9736C144.852 85.4516 144.151 84.8773 143.495 84.2553L138.564 79.8687C138.504 79.7956 138.429 79.7368 138.343 79.6966C138.257 79.6564 138.163 79.6357 138.068 79.6362C137.866 79.6362 137.744 79.8687 137.653 80.0506C137.348 80.6715 137.117 81.3263 136.965 82.0014C136.813 82.7392 136.965 82.8403 137.603 83.2648C138.878 84.1273 140.107 85.0336 141.288 85.9837Z" fill="url(#paint3_linear_143_356)"/>
<path d="M143.576 82.2842C145.291 83.7827 147.398 84.7641 149.65 85.1143C150.32 85.1233 150.98 85.2786 151.584 85.5691C151.169 85.8824 150.723 86.4181 151.037 86.8325C151.138 86.9478 151.267 87.0349 151.412 87.0852C151.916 87.3002 152.463 87.397 153.011 87.3682C153.282 87.327 153.559 87.3477 153.821 87.4288C153.927 87.4905 154.019 87.5723 154.093 87.6697C154.168 87.7671 154.222 87.8781 154.253 87.9964C154.284 88.1147 154.291 88.238 154.274 88.3591C154.258 88.4802 154.217 88.5969 154.155 88.7024C153.891 89.1306 153.469 89.4388 152.981 89.5615C152.186 89.8118 151.338 89.8445 150.526 89.656C149.714 89.4675 148.967 89.0649 148.364 88.4901C148.01 88.1465 147.716 87.7523 147.352 87.4187C146.655 86.8187 145.879 86.3186 145.044 85.9329C142.643 84.6592 140.341 83.2064 138.16 81.5868C137.815 81.3917 137.514 81.129 137.274 80.8146C137.034 80.5002 136.86 80.1406 136.762 79.7573C136.621 78.3827 138.129 76.5937 139.364 77.8268C140.802 79.2823 141.966 80.95 143.576 82.2842Z" fill="#FCBDBA"/>
<path d="M115.148 88.1869C115.33 88.4039 115.558 88.5767 115.816 88.6923C116.835 89.2725 117.894 89.7791 118.985 90.2084C121.82 91.2217 124.924 91.1966 127.742 90.1377C128.87 89.7324 129.928 89.1562 130.88 88.4295C131.242 88.1838 131.546 87.8632 131.771 87.4895C132.04 86.8801 132.125 86.2056 132.014 85.5489C131.761 82.1427 131.387 78.6253 132.014 75.3202C132.216 74.1848 132.556 73.0783 133.027 72.0252C133.847 70.5882 134.525 69.0751 135.051 67.5072C135.232 66.5437 135.2 65.5524 134.957 64.6027C134.714 63.653 134.266 62.7677 133.644 62.0088C132.328 60.331 129.919 58.8452 127.793 59.6032C125.337 60.5271 123.207 62.1508 121.668 64.2728C119.989 66.6492 118.66 69.2529 117.72 72.005C117.315 73.0865 116.92 74.168 116.606 75.2798C115.936 77.9693 115.502 80.712 115.31 83.4769C115.199 84.6291 115.098 85.7814 114.976 86.9336C114.88 87.3585 114.942 87.8034 115.148 88.1869Z" fill="#464646"/>
<path d="M127.742 90.1378C128.87 89.7325 129.928 89.1563 130.881 88.4296C131.242 88.1839 131.546 87.8633 131.771 87.4896C132.04 86.8802 132.125 86.2057 132.014 85.549C131.761 82.1428 131.387 78.6254 132.014 75.3203C131.609 74.916 131.154 74.5522 130.708 74.1883C129.696 73.3595 128.238 71.7221 126.77 71.8333C127.125 73.3797 127.408 74.9565 127.621 76.5332C127.833 78.11 127.752 79.7474 128.005 81.3039C128.341 84.058 128.276 86.8462 127.813 89.5818C127.77 89.7641 127.746 89.9505 127.742 90.1378Z" fill="url(#paint4_linear_143_356)"/>
<path d="M140.063 76.9779C140.142 77.0182 140.212 77.0738 140.27 77.1415C140.327 77.2091 140.37 77.2876 140.397 77.3721C140.4 77.5401 140.338 77.7029 140.225 77.827C139.305 79.1231 138.151 80.237 136.823 81.1119C136.695 81.2136 136.541 81.2767 136.378 81.2938C136.191 81.2738 136.016 81.192 135.882 81.0613C133.857 79.5149 131.832 78.0291 129.858 76.4119C128.581 75.5075 127.454 74.4094 126.517 73.1573C125.829 72.0273 125.304 70.8056 124.958 69.5288C123.753 65.7385 127.398 64.091 129.838 66.8705C133.057 70.5496 135.993 74.1378 140.063 76.9779Z" fill="#464646"/>
<path d="M139.567 130.85C139.514 130.725 139.495 130.588 139.513 130.453C139.531 130.318 139.584 130.19 139.668 130.082C139.891 129.87 140.255 129.971 140.539 130.082C141.164 130.385 141.819 130.626 142.492 130.8C143.171 130.978 143.891 130.902 144.517 130.587C144.861 130.385 145.195 130.082 145.59 130.112C145.789 130.142 145.979 130.214 146.147 130.325C146.755 130.639 147.407 130.861 148.081 130.982C148.364 131.006 148.638 131.096 148.881 131.244C148.954 131.296 149.007 131.371 149.032 131.457C149.032 131.659 148.84 131.81 148.648 131.881C146.542 132.7 144.183 132.397 141.936 132.154C141.684 132.119 141.428 132.119 141.176 132.154C140.802 132.225 140.346 132.417 140.032 132.154C139.764 131.769 139.603 131.319 139.567 130.85Z" fill="#473F47"/>
<path d="M119.572 136.612C119.539 136.481 119.54 136.344 119.573 136.213C119.607 136.083 119.673 135.962 119.765 135.864C120.018 135.682 120.362 135.864 120.635 135.975C121.224 136.348 121.843 136.67 122.488 136.935C123.141 137.177 123.86 137.177 124.513 136.935C124.877 136.783 125.242 136.521 125.636 136.601C125.828 136.657 126.007 136.75 126.163 136.874C126.72 137.282 127.339 137.599 127.995 137.814C128.277 137.873 128.541 137.997 128.765 138.178C128.797 138.206 128.824 138.24 128.843 138.278C128.863 138.316 128.874 138.358 128.876 138.401C128.876 138.603 128.653 138.724 128.451 138.775C126.254 139.33 123.956 138.775 121.759 138.219C121.512 138.147 121.257 138.11 121 138.107C120.625 138.107 120.149 138.269 119.866 137.926C119.661 137.518 119.56 137.067 119.572 136.612Z" fill="#473F47"/>
<path d="M138.321 56.2375C138.149 56.7934 137.977 57.3493 137.836 57.9153C137.675 58.7595 137.451 59.5906 137.167 60.4017C137.023 60.8062 136.793 61.1747 136.492 61.4818C136.192 61.7889 135.828 62.0273 135.426 62.1806C135.016 62.3113 134.572 62.2792 134.185 62.0909C133.799 61.9026 133.5 61.5727 133.351 61.1699C132.865 61.281 132.693 61.8774 132.703 62.3828C132.784 62.8772 132.691 63.3845 132.44 63.818C131.984 64.3537 131.093 64.1313 130.496 63.7473C129.592 63.1389 128.889 62.2763 128.476 61.2686C128.063 60.261 127.959 59.1537 128.177 58.0871C128.674 55.8332 128.653 53.1345 129.939 51.1838C130.401 50.5255 130.989 49.9655 131.67 49.5363C132.267 49.1002 132.963 48.8189 133.695 48.7176C134.208 48.6875 134.722 48.7284 135.224 48.8389C137.37 49.2027 139.192 49.516 139.202 51.9721C139.136 53.4315 138.839 54.8711 138.321 56.2375Z" fill="#FCBDBA"/>
<path d="M135.679 52.2653C135.345 52.2653 134.96 52.1845 134.667 52.3866C134.373 52.5888 134.353 53.0436 134.171 53.3973C133.816 54.0543 132.915 54.1453 132.237 54.4889C131.826 54.7084 131.484 55.0369 131.248 55.4382C131.012 55.8395 130.892 56.298 130.901 56.7631C130.914 56.4655 130.84 56.1705 130.688 55.9141C130.648 55.8533 130.595 55.8014 130.534 55.7617C130.473 55.7219 130.404 55.695 130.332 55.6827C130.26 55.6704 130.186 55.6729 130.115 55.6901C130.044 55.7073 129.977 55.7388 129.919 55.7827C129.827 55.8907 129.774 56.0256 129.767 56.1668C129.739 56.4554 129.786 56.7463 129.903 57.0117C130.02 57.2771 130.203 57.5081 130.435 57.6829C130.225 58.1163 129.895 58.4807 129.484 58.7332C129.073 58.9857 128.599 59.1157 128.117 59.108C127.812 59.1153 127.514 59.0151 127.276 58.825C127.127 58.6712 127.016 58.4842 126.952 58.2792C126.375 56.662 127.256 54.9337 127.469 53.2255C127.489 52.6224 127.588 52.0244 127.762 51.4466C127.95 51.0385 128.207 50.6658 128.522 50.3449C129.467 49.2119 130.718 48.3734 132.126 47.9292C133.482 47.5553 136.175 47.7473 137.238 48.8187C137.479 49.1253 137.632 49.492 137.679 49.879C137.726 50.266 137.666 50.6585 137.505 51.0138C137.344 51.3691 137.089 51.6737 136.767 51.8943C136.445 52.115 136.069 52.2433 135.679 52.2653Z" fill="#FF681C"/>
<path d="M135.082 205.706V186.795C137.572 181.397 142.482 185.076 142.482 185.076C143.249 185.878 144.238 186.433 145.324 186.668C146.409 186.904 147.539 186.809 148.57 186.397C149.601 185.985 150.484 185.274 151.107 184.356C151.729 183.437 152.061 182.354 152.061 181.246C152.061 180.137 151.729 179.054 151.107 178.136C150.484 177.218 149.601 176.507 148.57 176.095C147.539 175.682 146.409 175.588 145.324 175.823C144.238 176.059 143.249 176.613 142.482 177.415C137.846 180.447 135.082 175.697 135.082 175.697V156.776H154.023C154.023 156.776 158.822 154.016 155.745 149.387C154.941 148.622 154.386 147.634 154.15 146.551C153.914 145.467 154.009 144.338 154.422 143.309C154.835 142.28 155.547 141.398 156.467 140.777C157.386 140.156 158.471 139.824 159.581 139.824C160.692 139.824 161.777 140.156 162.696 140.777C163.616 141.398 164.328 142.28 164.741 143.309C165.154 144.338 165.248 145.467 165.013 146.551C164.777 147.634 164.222 148.622 163.418 149.387C163.418 149.387 159.733 154.289 165.139 156.776H184.081V205.706H135.082Z" fill="url(#paint5_linear_143_356)"/>
<path d="M98.7882 204.695H95.3663L130.395 112.354C130.512 112.056 130.717 111.8 130.983 111.62C131.248 111.439 131.562 111.343 131.883 111.343C132.142 111.343 132.397 111.405 132.627 111.525C132.857 111.645 133.054 111.819 133.201 112.032C133.348 112.244 133.442 112.49 133.473 112.747C133.505 113.003 133.473 113.264 133.381 113.506L98.7882 204.695Z" fill="#464646"/>
<path d="M119.309 204.695H115.887L151.3 111.323H154.722L119.309 204.695Z" fill="#464646"/>
<path d="M145.773 125.908H127.671L128.582 123.502H146.684L145.773 125.908Z" fill="#464646"/>
<path d="M140.205 140.574H122.103L123.025 138.168H141.126L140.205 140.574Z" fill="#464646"/>
<path d="M134.647 155.239H116.545L117.456 152.824H135.558L134.647 155.239Z" fill="#464646"/>
<path d="M129.089 169.895H110.987L111.898 167.49H130L129.089 169.895Z" fill="#464646"/>
<path d="M123.52 184.561H105.419L106.34 182.156H124.432L123.52 184.561Z" fill="#464646"/>
<path d="M128.674 125.908L124.017 138.168H141.156L140.245 140.574H123.136L118.489 152.824H135.588L134.677 155.229H117.548L112.901 167.49H130.02L129.109 169.895H111.99L107.333 182.155H124.442L123.521 184.561H106.421L98.7882 204.695H95.3663L130.395 112.354C130.547 112.037 130.799 111.779 131.113 111.62C131.427 111.461 131.785 111.41 132.131 111.474C132.476 111.539 132.792 111.715 133.027 111.977C133.262 112.238 133.404 112.569 133.432 112.92C133.432 113.113 133.397 113.305 133.33 113.486L129.534 123.502H146.633L145.722 125.908H128.674Z" fill="url(#paint6_linear_143_356)"/>
<path d="M119.309 204.695H115.887L151.3 111.323H154.722L119.309 204.695Z" fill="url(#paint7_linear_143_356)"/>
<path d="M289.074 124.857C288.569 125.284 287.963 125.576 287.313 125.706C286.716 125.731 286.122 125.624 285.572 125.392L277.149 122.593C276.512 123.088 276.087 123.805 275.96 124.6C275.832 125.395 276.011 126.209 276.46 126.878C277.286 127.781 278.36 128.421 279.548 128.718L285.329 130.79C286.663 131.412 288.119 131.73 289.591 131.722C291.064 131.713 292.516 131.377 293.843 130.739C295.564 130.163 297.457 129.445 298.287 127.828C299.117 126.211 298.51 124.068 298.753 122.178C299.072 120.978 299.299 119.755 299.431 118.519C299.431 117.458 298.56 115.861 297.295 116.083C296.202 116.275 295.473 118.176 294.896 118.974C293.269 121.221 291.305 123.205 289.074 124.857Z" fill="white"/>
<path d="M276.096 122.117C276.008 121.89 275.874 121.683 275.701 121.511C275.616 121.424 275.507 121.365 275.388 121.34C275.27 121.314 275.146 121.325 275.033 121.369C274.922 121.437 274.833 121.535 274.776 121.651C274.719 121.768 274.695 121.898 274.709 122.026C274.717 122.072 274.716 122.119 274.705 122.164C274.695 122.209 274.676 122.252 274.648 122.289C274.587 122.35 274.476 122.289 274.385 122.289C273.433 122.107 272.461 121.966 271.49 121.865C271.385 121.844 271.277 121.852 271.177 121.887C271.077 121.923 270.988 121.985 270.921 122.067C270.853 122.149 270.809 122.248 270.794 122.353C270.778 122.458 270.791 122.565 270.832 122.663C270.937 122.985 271.098 123.286 271.307 123.553C271.803 124.361 271.986 125.423 272.775 125.948C273.258 126.23 273.82 126.347 274.375 126.282C274.932 126.282 275.478 126.15 276.035 126.181C276.403 126.259 276.787 126.217 277.128 126.059C277.256 125.964 277.357 125.838 277.423 125.693C277.488 125.548 277.516 125.389 277.503 125.23C277.444 124.731 277.267 124.253 276.987 123.836C276.673 123.29 276.379 122.704 276.096 122.117Z" fill="#FDB9A9"/>
<path d="M299.583 185.42C296.364 184.692 296.991 189.251 296.141 190.949C295.603 191.821 294.918 192.594 294.116 193.233C293.327 193.889 292.811 194.815 292.669 195.831C292.65 196.02 292.688 196.21 292.78 196.376C292.944 196.576 293.173 196.712 293.428 196.761C295.268 197.297 297.246 197.102 298.945 196.215C299.741 195.84 300.402 195.229 300.838 194.466C301.191 193.643 301.357 192.753 301.324 191.858C301.426 189.958 302.276 186.016 299.583 185.42Z" fill="#FDB9A9"/>
<path d="M296.728 194.82C296.728 194.82 287.556 195.214 291.444 198.085C295.331 200.955 301.132 197.387 301.699 196.73C302.266 196.073 301.8 194.951 301.8 194.951L296.728 194.82Z" fill="#464646"/>
<path d="M301.294 196.083C300.484 197.094 296.171 198.418 294.258 198.277C292.345 198.135 290.634 197.266 290.826 196.023C291.018 194.78 294.379 191.919 295.017 191.929C295.655 191.939 296.151 193.405 297.427 193.708C297.997 193.802 298.581 193.75 299.125 193.555C299.669 193.361 300.154 193.031 300.535 192.596C300.649 192.444 300.81 192.335 300.994 192.286C301.177 192.236 301.372 192.249 301.547 192.323C301.814 192.924 301.93 193.58 301.886 194.235C301.842 194.89 301.639 195.524 301.294 196.083Z" fill="white"/>
<path d="M310.648 187.219C307.429 186.471 308.057 191.04 307.206 192.728C306.668 193.603 305.983 194.379 305.181 195.022C304.393 195.674 303.877 196.597 303.734 197.61C303.717 197.802 303.756 197.995 303.845 198.166C304.012 198.362 304.24 198.498 304.493 198.55C306.334 199.082 308.31 198.887 310.011 198.004C310.805 197.622 311.465 197.009 311.904 196.245C312.255 195.425 312.421 194.539 312.39 193.648C312.491 191.727 313.341 187.795 310.648 187.219Z" fill="#FDB9A9"/>
<path d="M307.793 196.579C307.793 196.579 298.621 196.963 302.509 199.853C306.396 202.744 312.197 199.146 312.764 198.489C313.331 197.832 312.865 196.71 312.865 196.71L307.793 196.579Z" fill="#464646"/>
<path d="M312.359 197.822C311.549 198.832 307.237 200.167 305.323 200.025C303.41 199.884 301.699 199.014 301.891 197.771C302.084 196.528 305.445 193.668 306.083 193.728C306.72 193.789 307.216 195.204 308.492 195.497C309.061 195.594 309.646 195.543 310.19 195.35C310.734 195.157 311.219 194.829 311.6 194.395C311.713 194.242 311.874 194.131 312.058 194.082C312.242 194.032 312.438 194.047 312.612 194.122C312.869 194.714 312.98 195.359 312.936 196.003C312.892 196.646 312.694 197.27 312.359 197.822Z" fill="white"/>
<path d="M302.337 145.647L306.649 190.969L312.865 190.201C315.325 179.143 314.718 146.062 314.718 146.062L302.337 145.647Z" fill="#473F47"/>
<path d="M306.649 144.425L302.337 189.736L296.1 188.968C292.547 160.303 295.483 142.474 295.483 142.474L306.649 144.425Z" fill="#473F47"/>
<path d="M296.05 128.04C295.969 127.212 295.746 126.383 295.665 125.534C295.463 123.826 295.493 122.099 295.756 120.399C296.049 118.586 296.598 116.823 297.386 115.164C298.095 113.728 299.411 113.142 300.849 112.394C302.071 111.738 303.396 111.29 304.766 111.07C305.731 110.982 306.703 111.037 307.652 111.232C310.588 111.788 314.445 113.253 316.449 115.608C317.958 117.337 318.13 119.823 318.18 122.117C318.241 125.281 318.18 128.445 317.978 131.608C317.978 132.063 317.927 132.518 317.887 132.983C317.723 136.502 317.191 139.995 316.297 143.404C316.13 144.469 315.552 145.426 314.688 146.072C312.39 147.406 308.887 146.668 306.406 146.325C303.116 145.86 299.745 145.375 296.829 143.778C296.224 143.518 295.735 143.048 295.453 142.454C295.307 141.705 295.403 140.931 295.726 140.24C296.738 137.006 295.949 133.599 295.949 130.294C295.949 129.698 296.019 129.092 296.019 128.485C296.05 128.344 296.05 128.192 296.05 128.04Z" fill="white"/>
<path d="M306.376 133.893C307.156 134.377 308.017 134.72 308.917 134.903C311.6 135.682 314.354 136.096 317.016 136.925C317.197 136.96 317.365 137.044 317.502 137.167C317.611 137.335 317.661 137.534 317.644 137.733C317.656 138.512 317.54 139.287 317.3 140.028C317.222 140.398 317.009 140.725 316.702 140.948C316.313 141.089 315.887 141.089 315.498 140.948L305.465 138.825C304.747 138.642 304.009 138.554 303.268 138.562C302.391 138.664 301.53 138.878 300.707 139.199C299.168 139.691 297.585 140.029 295.979 140.21C296.064 138.298 296.298 136.395 296.678 134.519C296.825 133.965 297.035 133.429 297.305 132.922C297.629 132.422 298.009 131.961 298.439 131.548C300.059 129.86 301.183 127.747 302.823 126.059C303.683 125.17 304.756 124.604 305.516 123.654C305.819 123.27 308.451 119.965 308.198 119.611C308.705 120.237 309.96 119.611 310.416 120.258C310.699 120.662 310.415 121.208 310.152 121.622C308.213 124.865 306.859 128.423 306.153 132.134C305.951 132.993 305.647 133.296 306.376 133.893Z" fill="url(#paint8_linear_143_356)"/>
<path d="M298.196 92.4019C299.127 92.9989 299.858 93.8597 300.296 94.874C300.734 95.8883 300.858 97.01 300.654 98.0955C300.45 99.181 299.925 100.181 299.148 100.967C298.371 101.754 297.377 102.29 296.293 102.509C296.293 102.509 290.543 104.672 293.772 109.665L309.747 119.823L299.624 135.773C294.622 138.997 292.456 133.256 292.456 133.256C292.238 132.172 291.701 131.178 290.913 130.402C290.124 129.625 289.121 129.102 288.033 128.9C286.944 128.697 285.82 128.824 284.805 129.265C283.789 129.706 282.929 130.44 282.335 131.372C281.741 132.305 281.44 133.394 281.471 134.499C281.502 135.604 281.863 136.675 282.508 137.573C283.154 138.471 284.053 139.156 285.092 139.54C286.13 139.923 287.26 139.988 288.336 139.725C293.904 139.613 293.661 145.142 293.661 145.142L283.537 161.092L242.191 134.812L252.265 119.005C257.266 115.79 259.432 121.521 259.432 121.521C259.647 122.609 260.183 123.608 260.971 124.389C261.76 125.17 262.764 125.697 263.856 125.902C264.947 126.108 266.075 125.982 267.094 125.542C268.113 125.101 268.977 124.366 269.573 123.431C270.17 122.495 270.472 121.403 270.441 120.295C270.41 119.187 270.047 118.113 269.4 117.212C268.752 116.312 267.848 115.626 266.806 115.243C265.764 114.859 264.631 114.797 263.553 115.063C257.984 115.174 258.238 109.645 258.238 109.645L268.503 93.5339L284.488 103.702C284.488 103.702 290.026 103.945 289.915 98.3855C289.738 97.6553 289.71 96.8972 289.831 96.1559C289.953 95.4146 290.222 94.7052 290.624 94.0696C291.421 92.8634 292.658 92.0146 294.071 91.7033C295.485 91.3919 296.964 91.6425 298.196 92.4019Z" fill="#464646"/>
<path d="M322.847 125.079C323.262 125.8 323.601 126.562 323.86 127.353C324.187 128.739 324.221 130.178 323.961 131.578C323.839 132.95 323.345 134.264 322.534 135.378C320.823 137.4 317.765 137.592 315.113 137.339C312.102 137.062 309.129 136.465 306.244 135.56C305.976 135.5 305.724 135.383 305.505 135.217C305.272 134.952 305.111 134.632 305.04 134.287C304.819 133.449 304.673 132.593 304.604 131.729C307.642 130.86 311.003 131.568 314.171 131.103C314.387 131.102 314.6 131.05 314.791 130.95C314.983 130.851 315.148 130.707 315.273 130.531C315.398 130.355 315.478 130.152 315.509 129.938C315.539 129.725 315.518 129.507 315.447 129.304C315.295 127.525 314.192 125.968 313.675 124.25C313.169 122.596 313.212 120.824 313.797 119.196C313.971 118.623 314.268 118.094 314.666 117.645C315.064 117.197 315.555 116.84 316.105 116.599C317.37 116.184 317.856 117.175 318.555 118.105C320.163 120.316 321.598 122.648 322.847 125.079Z" fill="white"/>
<path d="M303.339 130.598C303.22 130.501 303.076 130.438 302.924 130.416C302.807 130.428 302.696 130.471 302.602 130.54C302.508 130.609 302.434 130.703 302.387 130.81C302.298 131.028 302.197 131.24 302.084 131.447C301.932 131.615 301.743 131.747 301.533 131.833C301.323 131.919 301.096 131.956 300.869 131.942C300.414 131.896 299.956 131.896 299.502 131.942C299.334 131.976 299.177 132.053 299.046 132.164C298.922 132.286 298.834 132.44 298.793 132.609C298.716 132.952 298.726 133.31 298.821 133.648C298.917 133.987 299.095 134.297 299.34 134.55C299.834 135.05 300.442 135.424 301.112 135.641C301.795 135.942 302.553 136.034 303.288 135.904C303.692 135.787 304.077 135.613 304.432 135.389L305.91 134.57C306.034 134.512 306.144 134.429 306.234 134.327C306.558 133.923 306.113 132.71 305.819 132.306C305.08 131.619 304.245 131.043 303.339 130.598Z" fill="#FDB9A9"/>
<path d="M302.347 106.481C302.347 105.612 302.418 104.733 302.509 103.884C302.6 103.035 302.711 102.368 302.853 101.62C302.863 101.398 302.92 101.182 303.021 100.985C303.123 100.787 303.266 100.615 303.44 100.478C304.61 99.7801 305.955 99.4295 307.318 99.4669C307.833 99.4307 308.35 99.5019 308.836 99.6759C309.323 99.8499 309.767 100.123 310.142 100.478C310.599 101.058 310.871 101.763 310.922 102.499C310.969 104.412 310.779 106.324 310.355 108.19C310.141 109.655 310.063 111.137 310.122 112.617C309.404 113.093 308.58 113.385 307.723 113.466C307.324 113.462 306.927 113.397 306.548 113.274C306.337 113.226 306.15 113.104 306.022 112.93C305.976 112.768 305.976 112.597 306.022 112.435C306.032 112.28 306.032 112.125 306.022 111.97C306.081 111.104 306.064 110.235 305.971 109.372C305.973 109.335 305.967 109.297 305.953 109.262C305.939 109.227 305.917 109.196 305.89 109.17C305.835 109.15 305.774 109.15 305.718 109.17H305.475C305.044 109.216 304.61 109.216 304.179 109.17C303.661 109.119 303.179 108.882 302.823 108.503C302.411 107.915 302.241 107.191 302.347 106.481Z" fill="#FDB9A9"/>
<path d="M304.149 100.943C303.845 100.943 303.572 101.104 303.309 100.943C303.033 100.715 302.791 100.449 302.59 100.154C302.106 99.5137 301.869 98.7209 301.922 97.9205C301.94 97.5582 302.06 97.2084 302.266 96.9097C302.491 96.6381 302.779 96.4262 303.106 96.2932C303.734 95.9845 304.433 95.8484 305.131 95.899C306.142 96.0302 307.086 96.4799 307.824 97.1826C307.979 97.3446 308.17 97.469 308.381 97.5465C308.574 97.5871 308.774 97.5871 308.968 97.5465C310.249 97.4388 311.522 97.83 312.521 98.6381C313.088 99.1333 313.534 99.7701 314.121 100.205C314.708 100.639 315.285 100.801 315.589 101.357C315.716 101.615 315.767 101.904 315.736 102.19C315.706 102.476 315.595 102.748 315.417 102.974C315.04 103.417 314.521 103.717 313.949 103.823C314.011 103.988 314.041 104.163 314.035 104.339C314.029 104.515 313.989 104.688 313.915 104.848C313.842 105.008 313.737 105.152 313.607 105.271C313.477 105.39 313.325 105.482 313.159 105.541C312.925 105.577 312.699 105.652 312.491 105.764C312.349 105.875 312.288 106.047 312.147 106.158C311.812 106.431 311.377 106.522 311.235 106.987C311.193 107.183 311.176 107.383 311.185 107.583C311.16 107.88 311.039 108.16 310.841 108.382C310.709 108.523 310.476 108.877 310.284 108.917C310.091 108.958 309.919 108.725 309.859 108.523C309.621 107.666 309.682 106.754 310.031 105.936C310.281 105.541 310.428 105.088 310.456 104.622C310.456 104.157 309.788 103.793 309.444 104.066C309.099 104.339 309.079 104.996 308.715 104.864C308.941 104.211 308.924 103.498 308.668 102.856C308.411 102.214 307.932 101.686 307.318 101.367C306.636 101.159 305.925 101.06 305.212 101.074C304.879 101.004 304.54 100.967 304.199 100.963L304.149 100.943Z" fill="#473F47"/>
<path d="M305.475 109.19C306.48 108.999 307.464 108.708 308.411 108.321C308.496 109.117 308.304 109.919 307.867 110.591C307.431 111.263 306.775 111.764 306.012 112.01C306.088 111.146 306.088 110.277 306.012 109.412C306.011 109.337 305.982 109.265 305.931 109.21C305.875 109.19 305.814 109.19 305.759 109.21H305.526L305.475 109.19Z" fill="#DE9F93"/>
<path d="M273.778 116.457C273.931 116.677 274.03 116.93 274.067 117.195C274.104 117.46 274.078 117.73 273.99 117.983C273.814 118.49 273.558 118.964 273.231 119.388L271.641 121.733C271.226 122.34 270.629 123.027 269.931 122.966C268.189 122.845 267.42 118.337 268.068 117.003C268.817 115.335 272.634 115.032 273.778 116.457Z" fill="#FDB9A9"/>
<path d="M281.978 156.776V205.706H232.979V186.785C232.979 186.785 235.743 181.994 240.379 185.066C241.146 185.868 242.135 186.423 243.22 186.658C244.305 186.893 245.436 186.799 246.467 186.387C247.498 185.975 248.381 185.264 249.003 184.345C249.626 183.427 249.958 182.344 249.958 181.236C249.958 180.127 249.626 179.044 249.003 178.126C248.381 177.208 247.498 176.497 246.467 176.085C245.436 175.672 244.305 175.578 243.22 175.813C242.135 176.049 241.146 176.603 240.379 177.405C240.379 177.405 235.469 181.084 232.979 175.687V156.776H251.92C257.326 154.289 253.641 149.387 253.641 149.387C252.838 148.622 252.283 147.634 252.047 146.551C251.811 145.467 251.906 144.338 252.319 143.309C252.732 142.28 253.444 141.398 254.363 140.777C255.283 140.156 256.368 139.824 257.478 139.824C258.589 139.824 259.674 140.156 260.593 140.777C261.513 141.398 262.225 142.28 262.638 143.309C263.051 144.338 263.145 145.467 262.91 146.551C262.674 147.634 262.119 148.622 261.315 149.387C258.278 154.016 263.036 156.776 263.036 156.776H281.978Z" fill="#464646"/>
<path d="M281.978 156.776V205.706H232.979V186.785C232.979 186.785 235.743 181.994 240.379 185.066C241.146 185.868 242.135 186.423 243.22 186.658C244.305 186.893 245.436 186.799 246.467 186.387C247.498 185.975 248.381 185.264 249.003 184.345C249.626 183.427 249.958 182.344 249.958 181.236C249.958 180.127 249.626 179.044 249.003 178.126C248.381 177.208 247.498 176.497 246.467 176.085C245.436 175.672 244.305 175.578 243.22 175.813C242.135 176.049 241.146 176.603 240.379 177.405C240.379 177.405 235.469 181.084 232.979 175.687V156.776H251.92C257.326 154.289 253.641 149.387 253.641 149.387C252.838 148.622 252.283 147.634 252.047 146.551C251.811 145.467 251.906 144.338 252.319 143.309C252.732 142.28 253.444 141.398 254.363 140.777C255.283 140.156 256.368 139.824 257.478 139.824C258.589 139.824 259.674 140.156 260.593 140.777C261.513 141.398 262.225 142.28 262.638 143.309C263.051 144.338 263.145 145.467 262.91 146.551C262.674 147.634 262.119 148.622 261.315 149.387C258.278 154.016 263.036 156.776 263.036 156.776H281.978Z" fill="url(#paint9_linear_143_356)"/>
<path d="M200.967 132.306C200.964 133.414 200.629 134.496 200.006 135.412C199.382 136.329 198.499 137.039 197.468 137.45C196.438 137.862 195.308 137.957 194.223 137.723C193.138 137.489 192.148 136.936 191.38 136.137C186.744 133.104 183.98 137.855 183.98 137.855V156.776H232.979V107.846H183.98V126.757C186.47 132.154 191.38 128.475 191.38 128.475C192.148 127.675 193.138 127.123 194.223 126.889C195.308 126.655 196.438 126.75 197.468 127.161C198.499 127.573 199.382 128.283 200.006 129.199C200.629 130.116 200.964 131.198 200.967 132.306Z" fill="#464646"/>
<path d="M204.642 164.164C203.839 164.929 203.284 165.917 203.048 167.001C202.812 168.084 202.907 169.213 203.32 170.242C203.733 171.271 204.445 172.153 205.364 172.774C206.284 173.396 207.369 173.728 208.479 173.728C209.59 173.728 210.674 173.396 211.594 172.774C212.514 172.153 213.226 171.271 213.639 170.242C214.052 169.213 214.146 168.084 213.91 167.001C213.675 165.917 213.119 164.929 212.316 164.164C212.316 164.164 208.631 159.262 214.037 156.776H202.911C202.911 156.776 207.72 159.535 204.642 164.164Z" fill="#464646"/>
<path d="M183.98 107.846V126.757C186.47 132.154 191.38 128.475 191.38 128.475C192.147 127.673 193.136 127.119 194.221 126.883C195.306 126.648 196.437 126.743 197.468 127.155C198.499 127.567 199.382 128.278 200.004 129.196C200.627 130.114 200.959 131.197 200.959 132.306C200.959 133.414 200.627 134.498 200.004 135.416C199.382 136.334 198.499 137.045 197.468 137.457C196.437 137.869 195.306 137.964 194.221 137.728C193.136 137.493 192.147 136.939 191.38 136.137C186.744 133.104 183.98 137.855 183.98 137.855V156.776H202.911C202.911 156.776 207.71 159.535 204.632 164.164C203.829 164.93 203.274 165.918 203.038 167.001C202.802 168.084 202.897 169.213 203.31 170.242C203.723 171.271 204.435 172.153 205.354 172.775C206.274 173.396 207.359 173.728 208.469 173.728C209.579 173.728 210.664 173.396 211.584 172.775C212.504 172.153 213.216 171.271 213.629 170.242C214.041 169.213 214.136 168.084 213.9 167.001C213.665 165.918 213.109 164.93 212.306 164.164C212.306 164.164 208.621 159.262 214.027 156.776H232.979V107.846H183.98Z" fill="url(#paint10_linear_143_356)"/>
<path d="M183.98 156.776V205.706H232.979V186.784C232.979 186.784 235.743 181.994 240.379 185.066C241.146 185.868 242.135 186.423 243.22 186.658C244.305 186.893 245.436 186.799 246.467 186.387C247.498 185.974 248.381 185.263 249.003 184.345C249.626 183.427 249.958 182.344 249.958 181.236C249.958 180.127 249.626 179.044 249.003 178.126C248.381 177.208 247.498 176.497 246.467 176.084C245.436 175.672 244.305 175.578 243.22 175.813C242.135 176.048 241.146 176.603 240.379 177.405C240.379 177.405 235.469 181.084 232.979 175.687V156.776H214.047C208.641 159.262 212.326 164.164 212.326 164.164C213.13 164.929 213.685 165.917 213.921 167.001C214.156 168.084 214.062 169.213 213.649 170.242C213.236 171.271 212.524 172.153 211.604 172.774C210.685 173.396 209.6 173.728 208.489 173.728C207.379 173.728 206.294 173.396 205.375 172.774C204.455 172.153 203.743 171.271 203.33 170.242C202.917 169.213 202.822 168.084 203.058 167.001C203.294 165.917 203.849 164.929 204.652 164.164C207.69 159.535 202.931 156.776 202.931 156.776H183.98Z" fill="#464646"/>
<path d="M135.082 205.706V186.795C137.572 181.397 142.482 185.076 142.482 185.076C143.249 185.878 144.238 186.433 145.324 186.668C146.409 186.904 147.539 186.809 148.57 186.397C149.601 185.985 150.484 185.274 151.107 184.356C151.729 183.437 152.061 182.354 152.061 181.246C152.061 180.137 151.729 179.054 151.107 178.136C150.484 177.218 149.601 176.507 148.57 176.095C147.539 175.682 146.409 175.588 145.324 175.823C144.238 176.059 143.249 176.613 142.482 177.415C137.846 180.447 135.082 175.697 135.082 175.697V156.776H154.023C154.023 156.776 158.822 154.016 155.745 149.387C154.941 148.622 154.386 147.634 154.15 146.551C153.914 145.467 154.009 144.338 154.422 143.309C154.835 142.28 155.547 141.398 156.467 140.777C157.386 140.156 158.471 139.824 159.581 139.824C160.692 139.824 161.777 140.156 162.696 140.777C163.616 141.398 164.328 142.28 164.741 143.309C165.154 144.338 165.248 145.467 165.013 146.551C164.777 147.634 164.222 148.622 163.418 149.387C163.418 149.387 159.733 154.289 165.139 156.776H184.081V205.706H135.082Z" fill="#464646"/>
<path d="M135.082 205.706V186.795C137.572 181.397 142.482 185.076 142.482 185.076C143.249 185.878 144.238 186.433 145.324 186.668C146.409 186.904 147.539 186.809 148.57 186.397C149.601 185.985 150.484 185.274 151.107 184.356C151.729 183.437 152.061 182.354 152.061 181.246C152.061 180.137 151.729 179.054 151.107 178.136C150.484 177.218 149.601 176.507 148.57 176.095C147.539 175.682 146.409 175.588 145.324 175.823C144.238 176.059 143.249 176.613 142.482 177.415C137.846 180.447 135.082 175.697 135.082 175.697V156.776H154.023C154.023 156.776 158.822 154.016 155.745 149.387C154.941 148.622 154.386 147.634 154.15 146.551C153.914 145.467 154.009 144.338 154.422 143.309C154.835 142.28 155.547 141.398 156.467 140.777C157.386 140.156 158.471 139.824 159.581 139.824C160.692 139.824 161.777 140.156 162.696 140.777C163.616 141.398 164.328 142.28 164.741 143.309C165.154 144.338 165.248 145.467 165.013 146.551C164.777 147.634 164.222 148.622 163.418 149.387C163.418 149.387 159.733 154.289 165.139 156.776H184.081V205.706H135.082Z" fill="url(#paint11_linear_143_356)"/>
<path d="M201.028 132.316C201.025 133.424 200.69 134.506 200.066 135.422C199.443 136.339 198.559 137.049 197.529 137.46C196.499 137.872 195.369 137.967 194.284 137.733C193.199 137.499 192.209 136.946 191.441 136.147C191.441 136.147 186.531 132.468 184.04 137.865V156.776H165.099C159.693 154.289 163.378 149.387 163.378 149.387C164.181 148.622 164.736 147.634 164.972 146.551C165.208 145.467 165.113 144.339 164.7 143.309C164.288 142.28 163.575 141.398 162.656 140.777C161.736 140.156 160.651 139.824 159.541 139.824C158.431 139.824 157.346 140.156 156.426 140.777C155.506 141.398 154.794 142.28 154.381 143.309C153.969 144.339 153.874 145.467 154.11 146.551C154.345 147.634 154.901 148.622 155.704 149.387C158.741 154.016 153.983 156.776 153.983 156.776H135.082V107.846H153.841C159.247 110.332 155.562 115.234 155.562 115.234C154.759 116 154.204 116.988 153.968 118.071C153.732 119.154 153.827 120.283 154.24 121.312C154.653 122.341 155.365 123.223 156.284 123.845C157.204 124.466 158.289 124.798 159.399 124.798C160.51 124.798 161.594 124.466 162.514 123.845C163.434 123.223 164.146 122.341 164.559 121.312C164.972 120.283 165.066 119.154 164.83 118.071C164.595 116.988 164.039 116 163.236 115.234C160.199 110.605 164.957 107.846 164.957 107.846H184.081V126.767C184.081 126.767 186.845 131.558 191.481 128.485C192.25 127.685 193.239 127.133 194.324 126.899C195.409 126.665 196.539 126.76 197.569 127.171C198.6 127.583 199.483 128.293 200.107 129.21C200.73 130.126 201.065 131.208 201.069 132.316H201.028Z" fill="#464646"/>
<path d="M213.035 226.335C213.053 227.444 212.737 228.534 212.128 229.462C211.519 230.391 210.645 231.115 209.62 231.543C208.594 231.971 207.463 232.082 206.374 231.861C205.285 231.641 204.286 231.099 203.508 230.307C203.508 230.307 198.548 226.699 196.138 232.126L196.412 251.037L177.47 251.31C172.024 248.905 175.638 243.952 175.638 243.952C176.426 243.176 176.964 242.182 177.182 241.097C177.4 240.013 177.288 238.889 176.86 237.869C176.433 236.849 175.709 235.98 174.783 235.375C173.856 234.769 172.77 234.453 171.662 234.469C170.555 234.486 169.478 234.832 168.569 235.465C167.661 236.097 166.963 236.986 166.565 238.018C166.167 239.05 166.088 240.177 166.337 241.255C166.587 242.332 167.153 243.31 167.964 244.063C171.112 248.642 166.354 251.472 166.354 251.472L147.413 251.745L146.704 202.815L165.463 202.552C170.91 204.958 167.296 209.91 167.296 209.91C166.507 210.687 165.969 211.681 165.751 212.765C165.533 213.849 165.646 214.973 166.073 215.993C166.501 217.013 167.224 217.882 168.151 218.488C169.077 219.094 170.164 219.409 171.271 219.393C172.379 219.377 173.456 219.03 174.364 218.398C175.273 217.765 175.971 216.876 176.368 215.844C176.766 214.812 176.846 213.685 176.596 212.608C176.347 211.53 175.78 210.552 174.97 209.799C171.821 205.22 176.579 202.39 176.579 202.39L195.703 202.117L195.976 221.038C195.976 221.038 198.811 225.789 203.397 222.646C203.917 222.092 204.544 221.649 205.24 221.343C205.936 221.037 206.686 220.875 207.447 220.867C208.913 220.856 210.324 221.425 211.371 222.45C212.418 223.474 213.016 224.871 213.035 226.335Z" fill="#464646"/>
<path d="M153.568 202.997C152.89 203.745 152.363 205.392 153.436 206.09C153.82 206.297 154.246 206.414 154.682 206.433L160.412 207.131C160.239 207.131 163.236 240.839 164.41 248.005C164.552 248.854 164.907 249.915 165.767 250.027C166.025 250.011 166.276 249.935 166.499 249.806C166.722 249.676 166.912 249.495 167.053 249.279C167.88 247.985 168.351 246.496 168.419 244.963C169.843 233.96 170.519 222.874 170.444 211.78C170.444 209.587 170.363 207.293 169.27 205.382C168.598 204.343 167.718 203.454 166.685 202.772C165.651 202.09 164.487 201.63 163.266 201.42C159.997 200.682 155.947 200.349 153.568 202.997Z" fill="url(#paint12_linear_143_356)"/>
<path d="M184.587 269.635C183.75 270.11 182.881 270.525 181.985 270.878H181.904C180.426 271.454 178.776 269.14 178.776 269.14C178.776 269.14 176.691 256.283 176.751 250.946C176.822 247.287 175.952 242.072 174.646 232.612C174.322 242.274 172.682 246.519 173.097 249.986C173.734 255.252 172.975 268.331 172.975 268.331C172.975 268.331 171.578 270.878 170.049 270.534H169.958C169.038 270.326 168.134 270.049 167.255 269.706C167.255 269.706 165.473 251.694 165.473 246.944C165.473 242.193 165.676 237.938 165.676 237.938L164.745 222.898L168.713 217.137L169.037 217.006L169.341 216.703L173.745 213.478C173.745 213.478 173.745 214.226 173.664 215.5L177.085 217.329L177.409 217.572L177.743 217.653L183.473 218.663C183.473 218.663 184.972 241.739 185.498 246.459C186.025 251.179 184.587 269.635 184.587 269.635Z" fill="#464646"/>
<path d="M184.587 269.635C183.75 270.11 182.881 270.525 181.985 270.878H181.904C180.426 271.454 178.776 269.14 178.776 269.14C178.776 269.14 176.691 256.283 176.751 250.946C176.822 247.287 175.952 242.072 174.646 232.612C174.322 242.274 172.682 246.519 173.097 249.986C173.734 255.252 172.975 268.331 172.975 268.331C172.975 268.331 171.578 270.878 170.049 270.534H169.958C169.038 270.326 168.134 270.049 167.255 269.706C167.255 269.706 165.473 251.694 165.473 246.944C165.473 242.193 165.676 237.938 165.676 237.938L164.745 222.898L168.713 217.137L169.037 217.006L169.341 216.703L173.745 213.478C173.745 213.478 173.745 214.226 173.664 215.5L177.085 217.329L177.409 217.572L177.743 217.653L183.473 218.663C183.473 218.663 184.972 241.739 185.498 246.459C186.025 251.179 184.587 269.635 184.587 269.635Z" fill="url(#paint13_linear_143_356)"/>
<path d="M211.557 189.2C211.628 189.15 211.713 189.121 211.8 189.119C212.033 189.119 212.043 189.493 211.962 189.716C211.75 190.336 211.443 190.919 211.051 191.444C210.924 191.575 210.848 191.747 210.838 191.929C210.838 192.111 211 192.243 211.122 192.374C211.494 192.806 211.759 193.319 211.894 193.872C212.03 194.426 212.032 195.003 211.901 195.558C211.62 196.665 211.043 197.675 210.231 198.479C210.035 198.727 209.792 198.935 209.516 199.089C209.24 199.244 208.935 199.342 208.621 199.378C207.528 199.378 206.161 198.034 205.726 197.104C205.567 196.64 205.532 196.142 205.625 195.66C205.717 195.178 205.933 194.728 206.252 194.355C207.544 192.207 209.372 190.431 211.557 189.2Z" fill="#A67C52"/>
<path d="M179.839 178.587C180.193 178.951 180.74 179.325 180.588 179.8C180.507 180.053 180.234 180.205 180.031 180.387C179.532 180.916 179.262 181.621 179.282 182.347C179.304 183.07 179.201 183.792 178.979 184.48C178.852 184.821 178.612 185.107 178.298 185.291C177.985 185.476 177.617 185.546 177.258 185.491C176.842 185.38 176.427 185.016 176.022 185.188C175.617 185.359 175.617 185.693 175.455 185.976C175.234 186.324 174.92 186.604 174.548 186.782C174.175 186.961 173.76 187.032 173.35 186.987C172.538 186.865 171.755 186.594 171.042 186.188C170.738 186.068 170.475 185.865 170.282 185.602C170.165 185.346 170.136 185.058 170.201 184.783C170.451 183.961 170.861 183.195 171.406 182.529C172.279 181.186 172.804 179.648 172.935 178.052C173.016 176.94 172.935 175.717 173.653 174.858C174.666 173.685 176.964 173.696 178.169 174.555C179.373 175.414 178.725 177.445 179.839 178.587Z" fill="#A67C52"/>
<path d="M178.401 173.554C178.26 173.831 178.047 174.065 177.784 174.231C177.247 174.545 176.772 174.909 176.286 175.242C175.796 175.565 175.451 176.065 175.324 176.637C175.111 177.648 175.678 178.8 175.324 179.821C175.192 180.033 174.858 179.902 174.727 179.699C174.595 179.497 174.514 179.245 174.311 179.123C173.957 178.921 173.532 179.265 173.38 179.639C173.223 180.074 173.241 180.552 173.43 180.974C173.618 181.396 173.963 181.729 174.392 181.903C174.342 182.226 173.927 182.358 173.593 182.317C173.263 182.227 172.922 182.183 172.58 182.186C171.821 182.327 171.568 183.409 170.778 183.52C170.517 183.503 170.263 183.425 170.036 183.294C169.81 183.162 169.617 182.98 169.472 182.762L168.551 181.751C168.403 181.555 168.24 181.369 168.065 181.195C167.853 181.034 167.508 181.023 167.336 180.831C167.164 180.639 167.336 180.185 167.154 179.942C167.068 179.852 166.96 179.786 166.84 179.75C166.575 179.616 166.364 179.396 166.242 179.125C166.121 178.855 166.096 178.551 166.172 178.264C166.197 178.192 166.197 178.114 166.172 178.042C166.172 177.941 166.03 177.9 165.929 177.85C165.65 177.669 165.444 177.394 165.349 177.076C165.255 176.757 165.277 176.415 165.413 176.111C165.567 175.763 165.787 175.447 166.061 175.181C166.157 175.033 166.294 174.915 166.456 174.842C166.617 174.768 166.796 174.742 166.972 174.767L167.124 173.443C167.12 173.219 167.166 172.996 167.259 172.792C167.352 172.588 167.489 172.407 167.66 172.262C167.832 172.116 168.033 172.011 168.25 171.953C168.467 171.895 168.694 171.886 168.915 171.927L168.612 170.835C168.556 170.696 168.556 170.54 168.612 170.401C168.695 170.304 168.81 170.24 168.936 170.219C169.289 170.118 169.652 170.057 170.019 170.037C169.887 169.731 169.786 169.412 169.715 169.087C169.692 169.04 169.684 168.987 169.691 168.935C169.698 168.884 169.72 168.835 169.755 168.796C169.789 168.757 169.835 168.729 169.886 168.716C169.936 168.703 169.99 168.705 170.039 168.723C170.173 168.743 170.31 168.743 170.444 168.723C170.444 168.723 170.242 167.793 170.232 167.712C170.17 167.42 170.225 167.116 170.383 166.863C170.494 166.737 170.635 166.641 170.792 166.583C170.949 166.525 171.118 166.506 171.284 166.53C171.613 166.588 171.928 166.704 172.216 166.873C172.216 166.519 172.651 166.337 173.006 166.307C173.688 166.269 174.368 166.404 174.984 166.699C175.6 166.994 176.132 167.44 176.529 167.995C176.594 168.093 176.669 168.184 176.751 168.268C176.913 168.371 177.091 168.446 177.278 168.49C177.565 168.617 177.82 168.807 178.025 169.044C178.23 169.282 178.379 169.562 178.462 169.865C178.614 170.466 178.675 171.086 178.644 171.704C178.668 172.18 178.623 172.656 178.513 173.12C178.493 173.268 178.455 173.414 178.401 173.554Z" fill="#2F3554"/>
<path d="M173.37 185.016C174.213 185.368 175.032 185.777 175.82 186.239C176.063 186.369 176.274 186.552 176.437 186.774C176.525 186.896 176.578 187.039 176.593 187.188C176.607 187.337 176.581 187.487 176.518 187.623C176.306 187.997 175.8 187.866 175.415 187.724C173.631 187.12 171.748 186.859 169.867 186.956C169.741 186.977 169.612 186.962 169.494 186.914C169.376 186.866 169.274 186.786 169.199 186.683C169.155 186.559 169.139 186.427 169.151 186.297C169.163 186.166 169.204 186.039 169.27 185.925C170.232 183.995 171.801 184.308 173.37 185.016Z" fill="white"/>
<path d="M208.024 199.914C207.658 200.822 207.118 201.649 206.434 202.35C205.776 203.088 205.098 203.795 204.409 204.483C202.746 206.088 200.992 207.596 199.155 209.001C197.907 210.101 196.421 210.897 194.812 211.325C194.16 211.478 193.477 211.436 192.848 211.204C192.337 210.949 191.874 210.607 191.481 210.193C191.016 209.728 185.61 203.512 185.518 203.512C185.212 203.677 184.974 203.946 184.85 204.27C184.069 205.886 183.586 207.629 183.423 209.415C183.357 210.212 183.357 211.013 183.423 211.81C183.635 214.529 184.587 217.329 183.646 219.896C183.458 220.439 183.146 220.93 182.734 221.332C182.338 221.678 181.882 221.948 181.388 222.13C180.515 222.487 179.605 222.745 178.675 222.898C178.143 222.996 177.605 223.053 177.065 223.07C175.04 223.151 173.117 222.767 171.133 222.858C169.452 222.949 167.782 223.383 166.071 223.323C165.829 223.37 165.581 223.364 165.342 223.306C165.103 223.247 164.88 223.138 164.687 222.985C164.495 222.832 164.338 222.64 164.227 222.421C164.116 222.202 164.055 221.961 164.046 221.716C163.39 218.117 163.052 214.468 163.034 210.81C163.034 209.536 162.963 208.253 162.882 206.979C162.811 205.898 163.104 203.148 161.869 202.936C158.731 202.33 155.471 203.098 152.302 202.653C152.39 200.583 153.271 198.626 154.762 197.185C155.494 196.569 156.288 196.03 157.131 195.578C158.102 194.884 158.974 194.061 159.723 193.132C161.876 190.478 164.603 188.346 167.701 186.896C168.194 186.654 168.714 186.471 169.25 186.35H169.381C169.459 186.341 169.537 186.341 169.614 186.35C170.291 186.293 170.973 186.334 171.639 186.471C176.156 187.219 180.625 188.232 185.022 189.503C185.603 189.634 186.153 189.874 186.642 190.211C186.984 190.519 187.277 190.877 187.513 191.272C188.748 193.132 189.953 195.012 191.198 196.872C192.271 198.469 193.324 200.47 194.903 201.642C198.341 200.247 201.587 198.42 204.561 196.205C204.976 195.891 205.513 195.548 205.989 195.76C206.147 195.831 206.288 195.934 206.404 196.063C207.568 197.074 208.591 198.186 208.024 199.914Z" fill="white"/>
</g>
<defs>
<linearGradient id="paint0_linear_143_356" x1="189.538" y1="93.1701" x2="198.297" y2="237" gradientUnits="userSpaceOnUse">
<stop offset="0.01"/>
<stop offset="0.08" stop-opacity="0.69"/>
<stop offset="0.21" stop-opacity="0.32"/>
<stop offset="1" stop-opacity="0"/>
</linearGradient>
<linearGradient id="paint1_linear_143_356" x1="109.469" y1="70.7524" x2="132.646" y2="76.1347" gradientUnits="userSpaceOnUse">
<stop offset="0.01"/>
<stop offset="0.08" stop-opacity="0.69"/>
<stop offset="0.21" stop-opacity="0.32"/>
<stop offset="1" stop-opacity="0"/>
</linearGradient>
<linearGradient id="paint2_linear_143_356" x1="190.806" y1="142.788" x2="103.255" y2="-35.2579" gradientUnits="userSpaceOnUse">
<stop offset="0.01"/>
<stop offset="0.08" stop-opacity="0.69"/>
<stop offset="0.21" stop-opacity="0.32"/>
<stop offset="1" stop-opacity="0"/>
</linearGradient>
<linearGradient id="paint3_linear_143_356" x1="141.207" y1="66.3652" x2="150.29" y2="110.985" gradientUnits="userSpaceOnUse">
<stop offset="0.01"/>
<stop offset="0.08" stop-opacity="0.69"/>
<stop offset="0.21" stop-opacity="0.32"/>
<stop offset="1" stop-opacity="0"/>
</linearGradient>
<linearGradient id="paint4_linear_143_356" x1="141.601" y1="70.3816" x2="114.045" y2="92.2209" gradientUnits="userSpaceOnUse">
<stop offset="0.01"/>
<stop offset="0.08" stop-opacity="0.69"/>
<stop offset="0.21" stop-opacity="0.32"/>
<stop offset="1" stop-opacity="0"/>
</linearGradient>
<linearGradient id="paint5_linear_143_356" x1="160.189" y1="105.289" x2="158.665" y2="285.908" gradientUnits="userSpaceOnUse">
<stop offset="0.01"/>
<stop offset="0.08" stop-opacity="0.69"/>
<stop offset="0.21" stop-opacity="0.32"/>
<stop offset="1" stop-opacity="0"/>
</linearGradient>
<linearGradient id="paint6_linear_143_356" x1="153.791" y1="135.874" x2="80.1386" y2="178.185" gradientUnits="userSpaceOnUse">
<stop offset="0.01"/>
<stop offset="0.08" stop-opacity="0.69"/>
<stop offset="0.21" stop-opacity="0.32"/>
<stop offset="1" stop-opacity="0"/>
</linearGradient>
<linearGradient id="paint7_linear_143_356" x1="156.261" y1="146.011" x2="27.1447" y2="220.178" gradientUnits="userSpaceOnUse">
<stop offset="0.01"/>
<stop offset="0.08" stop-opacity="0.69"/>
<stop offset="0.21" stop-opacity="0.32"/>
<stop offset="1" stop-opacity="0"/>
</linearGradient>
<linearGradient id="paint8_linear_143_356" x1="279.214" y1="74.0164" x2="345.091" y2="228.928" gradientUnits="userSpaceOnUse">
<stop offset="0.01"/>
<stop offset="0.08" stop-opacity="0.69"/>
<stop offset="0.21" stop-opacity="0.32"/>
<stop offset="1" stop-opacity="0"/>
</linearGradient>
<linearGradient id="paint9_linear_143_356" x1="159.764" y1="112.323" x2="399.795" y2="280.876" gradientUnits="userSpaceOnUse">
<stop offset="0.01"/>
<stop offset="0.08" stop-opacity="0.69"/>
<stop offset="0.21" stop-opacity="0.32"/>
<stop offset="1" stop-opacity="0"/>
</linearGradient>
<linearGradient id="paint10_linear_143_356" x1="189.922" y1="231.924" x2="235.105" y2="-11.4172" gradientUnits="userSpaceOnUse">
<stop offset="0.01"/>
<stop offset="0.08" stop-opacity="0.69"/>
<stop offset="0.21" stop-opacity="0.32"/>
<stop offset="1" stop-opacity="0"/>
</linearGradient>
<linearGradient id="paint11_linear_143_356" x1="162.183" y1="65.5363" x2="155.362" y2="366.06" gradientUnits="userSpaceOnUse">
<stop offset="0.01"/>
<stop offset="0.08" stop-opacity="0.69"/>
<stop offset="0.21" stop-opacity="0.32"/>
<stop offset="1" stop-opacity="0"/>
</linearGradient>
<linearGradient id="paint12_linear_143_356" x1="134.839" y1="192.283" x2="223.337" y2="288.618" gradientUnits="userSpaceOnUse">
<stop offset="0.01"/>
<stop offset="0.08" stop-opacity="0.69"/>
<stop offset="0.21" stop-opacity="0.32"/>
<stop offset="1" stop-opacity="0"/>
</linearGradient>
<linearGradient id="paint13_linear_143_356" x1="153.841" y1="214.115" x2="204.493" y2="285.136" gradientUnits="userSpaceOnUse">
<stop offset="0.01"/>
<stop offset="0.08" stop-opacity="0.69"/>
<stop offset="0.21" stop-opacity="0.32"/>
<stop offset="1" stop-opacity="0"/>
</linearGradient>
<clipPath id="clip0_143_356">
<rect width="404" height="304" fill="white"/>
</clipPath>
</defs>
</svg>
