<svg width="30" height="30" viewBox="0 0 30 30" fill="none" xmlns="http://www.w3.org/2000/svg">
<g clip-path="url(#clip0_143_752)">
<path d="M26.6667 0H3.33333C1.5 0 0 1.5 0 3.33333V26.6667C0 28.5 1.5 30 3.33333 30H26.6667C28.5 30 30 28.5 30 26.6667V3.33333C30 1.5 28.5 0 26.6667 0ZM9.08333 25.8333H4.58333V11.375H9.04167V25.8333H9.08333ZM6.79167 9.5C5.33333 9.5 4.16667 8.29167 4.16667 6.83333C4.16667 5.375 5.33333 4.16667 6.79167 4.16667C8.25 4.16667 9.41667 5.375 9.41667 6.83333C9.45833 8.29167 8.29167 9.5 6.79167 9.5ZM25.8333 25.8333H21.375V18.25C21.375 16.1667 20.5833 15 18.9583 15C17.1667 15 16.25 16.2083 16.25 18.25V25.8333H11.9167V11.375H16.2083V13.3333C16.2083 13.3333 17.5 10.9583 20.5833 10.9583C23.6667 10.9583 25.8333 12.8333 25.8333 16.7083V25.8333Z" fill="#F7F7FB"/>
</g>
<defs>
<clipPath id="clip0_143_752">
<rect width="30" height="30" fill="white"/>
</clipPath>
</defs>
</svg>
