<?xml version="1.0" encoding="utf-8"?>
<!-- Generator: Adobe Illustrator 26.5.0, SVG Export Plug-In . SVG Version: 6.00 Build 0)  -->
<svg version="1.1" id="Ebene_1" xmlns="http://www.w3.org/2000/svg" xmlns:xlink="http://www.w3.org/1999/xlink" x="0px" y="0px"
	 viewBox="0 0 66.6 28.4" style="enable-background:new 0 0 66.6 28.4;" xml:space="preserve">
<style type="text/css">
	.st0{fill:#009FE3;}
</style>
<g>
	<path class="st0" d="M40.8,17.5c0-5.7-4-10.4-9.6-10.4c-6,0-9.9,5-9.9,10.7c0,6.4,4.6,10.6,10.7,10.6c3.2,0.1,6.2-1.3,8.4-3.6
		l-3.1-3.2c-1.3,1.4-3.2,2.3-5.1,2.3c-2.8,0.1-5.2-2-5.5-4.8h14.1C40.8,18.6,40.8,18.1,40.8,17.5z M26.8,15.1
		c0.4-2.1,2.2-3.6,4.4-3.6c2,0,3.8,1.6,4,3.6H26.8z"/>
	<path class="st0" d="M56.6,7.1C54.5,7,52.5,7.7,50.8,9V0h-5.5v27.9h5.2v-1.6c1.6,1.4,3.6,2.1,5.7,2.1c2.9,0,5.7-1.3,7.7-3.5
		c1.7-2,2.6-4.5,2.6-7.2C66.6,11.7,62.2,7.1,56.6,7.1z M55.9,23.4c-3,0.1-5.5-2.2-5.6-5.2c0-0.1,0-0.3,0-0.4c-0.2-2.9,2-5.4,4.9-5.6
		c0.2,0,0.4,0,0.7,0c3.1,0.1,5.5,2.7,5.4,5.8C61.2,20.9,58.8,23.3,55.9,23.4z"/>
	<polygon class="st0" points="0,7.5 2.6,12.1 10.7,12.1 6.3,18.5 9.1,23.3 17.8,10.9 17.8,7.5 	"/>
</g>
<polygon class="st0" points="9.1,23.3 11.7,27.9 18.7,27.9 18.7,23.3 "/>
</svg>
