<?xml version="1.0" encoding="utf-8"?>
<!-- Generator: Adobe Illustrator 26.5.0, SVG Export Plug-In . SVG Version: 6.00 Build 0)  -->
<svg version="1.1" id="Ebene_1" xmlns="http://www.w3.org/2000/svg" xmlns:xlink="http://www.w3.org/1999/xlink" x="0px" y="0px"
	 viewBox="0 0 2200 551.89" style="enable-background:new 0 0 2200 551.89;" xml:space="preserve">
<style type="text/css">
	.st0{fill:#F7F7FB;}
</style>
<g id="Bildmaterial_11_00000168820052245316579880000016562473441215950725_">
	<g>
		<g>
			<path class="st0" d="M211.85,0C89.45,0.37-1.26,100.36,0.01,211.9C-1.09,324.65,90.1,421.4,207.35,423.73
				c121.29,2.41,216.77-95.35,216.55-211.82C423.69,94.8,328.96-0.35,211.85,0 M290.86,232.64c0,0-131.83,54.74-195.98,81.36
				c-0.74,0.31-1.55,0.46-3.31,0.97c0-10.51,0-20.3,0-30.08c0-6.49,0.22-16.72-0.08-23.19c0,0,79.51-33.34,116.94-48.46
				c1.51-0.61,2.99-1.27,5.3-2.26c-14.76-6.03-28.68-11.74-42.63-17.4c-24.93-10.13-79.63-33.74-79.63-33.74
				c0.24-14.63,0.09-33.17,0.09-47.81v-5.65c7.03,2.89,13.14,5.39,19.24,7.92c58.31,24.22,174.96,72.57,180.1,74.43
				C290.64,200.05,290.75,221.33,290.86,232.64 M319.8,313.08c-15.05,0-27.25-12.2-27.25-27.25c0-15.05,12.2-27.25,27.25-27.25
				c15.05,0,27.25,12.2,27.25,27.25C347.04,300.88,334.84,313.08,319.8,313.08"/>
			<path class="st0" d="M1797.2,50.37c1.46-0.11,2.91-0.31,4.36-0.32c13.65-0.02,27.31,0.09,40.96-0.08
				c3.59-0.05,4.96,0.85,4.94,4.71c-0.14,31.27,0.05,62.54-0.15,93.8c-0.07,10.45-0.96,20.9-1.47,31.35
				c-0.06,1.25-0.01,2.51,0.91,4.13c0.9-1.25,1.84-2.47,2.71-3.74c18.81-27.67,45.46-38.06,78.04-35.16
				c40.13,3.58,63.14,31.45,71.07,62.99c8.83,35.09,6.44,69.35-11.22,101.49c-21.42,38.99-64.24,58.94-107.11,50.35
				c-16.11-3.23-29.27-11.48-38.84-25.06c-0.65-0.92-1.4-1.77-2.81-3.53c-1.77,9.3-3.37,17.69-5.03,26.36h-36.36V50.37z
				 M1847.36,263.01c-0.09,16.13,3.15,31.16,15.29,42.84c19.05,18.31,54.51,15.26,71.51-7.12c19.98-26.31,21.97-55.83,10.16-85.89
				c-6.2-15.78-19.66-23.35-36.79-23.51c-16.25-0.16-29.84,6.03-40.61,18.08C1852.79,223.2,1847.55,242.24,1847.36,263.01"/>
			<path class="st0" d="M1184.93,357.68h-49.2V50.44h50.87c-0.59,49.38-1.19,98.5-1.77,147.15c0.28-0.48,1.03-1.67,1.69-2.89
				c12.55-23.14,29.93-40.6,56.22-47.44c13.78-3.59,27.71-3.71,41.5-0.29c23.8,5.9,37.95,22.16,44.53,44.76
				c3.49,11.99,5.75,24.74,5.98,37.19c0.68,36.41,0.06,72.85-0.05,109.28c-0.02,6.3,0,12.61,0,19.34h-50.43
				c0-12.36-0.01-24.62,0-36.88c0.03-29.61,0.21-59.21-0.03-88.82c-0.04-5.39-1.26-10.92-2.81-16.12
				c-5.71-19.12-20.17-27.34-39.65-23.03c-12.31,2.73-21.8,9.46-28.93,19.76c-11.04,15.96-16.02,34.17-19.67,52.83
				c-5.28,27-7.04,54.35-7.37,81.8c-0.02,1.5-0.01,3-0.14,4.48C1185.5,353.52,1185.2,355.47,1184.93,357.68"/>
			<path class="st0" d="M1727.33,174.13c1.62-8.34,3.24-16.73,4.9-25.27h36.38v208.81h-50.17v-34.55c-1.19,1.6-2.14,2.83-3.04,4.09
				c-18.62,26.03-44.21,36.45-75.71,34.25c-38.72-2.71-65.89-28.81-74.02-68.8c-6.9-33.91-4.3-67.11,13.82-97.39
				c21.14-35.33,53.03-52.32,94.23-50.42c21.17,0.98,38.74,9.99,51.22,27.71c0.37,0.53,0.88,0.96,1.35,1.4
				C1726.37,174.06,1726.58,174.02,1727.33,174.13 M1718.01,242.84c0-3.16,0.17-6.33-0.03-9.47c-1.25-19.97-13.08-36.18-30.36-41.75
				c-22.05-7.11-46.36,0.55-59.08,19.92c-16.7,25.44-18.17,53.02-7.66,81.05c5.34,14.26,16.55,22.83,31.96,24.53
				c15.9,1.75,30.01-2.91,41.71-13.92C1711.93,286.85,1718.03,265.96,1718.01,242.84"/>
			<path class="st0" d="M902.07,268.96H760.98c0.73,4.03,1.09,7.57,2.03,10.94c4.33,15.45,14.24,26.36,28.92,32.19
				c20.83,8.27,41.98,8.77,62.21-1.91c7.35-3.88,13.61-9.81,20.08-14.59c9.26,8.85,19.11,18.26,29.51,28.19
				c-3.7,3.97-6.79,7.61-10.22,10.9c-21.77,20.93-48.5,27.95-77.83,27.07c-18.59-0.55-36.69-3.67-53.52-12.17
				c-31-15.65-46.98-41.65-51.31-75.3c-3.15-24.5-1.08-48.62,10.02-71.02c18.62-37.6,49.14-57.4,91.33-58.56
				c16.67-0.46,32.89,1.99,47.8,9.93c22.61,12.03,34.54,31.89,40.23,56.06C904.71,229.71,904.09,248.94,902.07,268.96
				 M762.66,232.24h6.22c23.98,0,47.95,0,71.93,0c4.66,0,9.34,0.19,13.98-0.14c1.32-0.09,3.61-1.67,3.63-2.61
				c0.5-19.16-5-37.72-27.83-44.69c-8.91-2.72-18.03-3.01-27.11-1.04C781.6,188.51,765.66,207.14,762.66,232.24"/>
			<path class="st0" d="M509.14,109.59V63.02h246.77c-2.13,15.4-4.26,30.72-6.45,46.57c-2.39,0-4.35,0-6.31,0
				c-26.64,0-53.29,0.11-79.93-0.1c-4.67-0.04-5.82,1.42-5.81,5.94c0.13,78.52,0.09,157.03,0.09,235.55v6.68h-53.72v-6.56
				c0-78.35,0-156.7,0-235.05c0-6.44-0.01-6.45-6.6-6.45c-27.31-0.01-54.62,0-81.93,0H509.14z"/>
			<path class="st0" d="M2183.33,199.39c-14.12,3.77-27.71,7.39-41.47,11.06c-0.56-1.3-0.98-2.16-1.31-3.06
				c-4.24-11.57-12.48-18.61-24.45-21.18c-9.89-2.13-19.82-2.21-29.52,1c-2.8,0.93-5.57,2.3-7.95,4.03
				c-13.29,9.65-12.04,27.13,2.98,33.61c9.83,4.24,20.54,6.41,30.84,9.59c14.57,4.51,29.6,7.95,43.57,13.87
				c42.23,17.9,37.14,69.87,12.33,91.25c-13.85,11.93-29.95,18.37-47.76,20.77c-23.73,3.2-47.18,1.86-69.83-6.46
				c-24.16-8.88-40.02-29.33-42.35-54.39c13.87-3.38,27.82-6.78,41.71-10.16c0.51,0.75,0.92,1.12,1.02,1.56
				c3.88,17.68,15.69,26.64,32.78,29.74c12.43,2.26,24.83,2.3,37.03-1.35c6.06-1.81,11.26-5.02,14.4-10.79
				c4.64-8.53,1.79-18.85-7.7-23.12c-8.86-3.98-18.41-6.54-27.79-9.23c-13.55-3.89-27.42-6.76-40.82-11.08
				c-50.51-16.3-47.21-74.33-17.75-98.96c15.39-12.87,33.08-19.59,52.82-21.06c20.93-1.56,41.29,0.62,59.63,11.97
				C2169.42,166.7,2179.85,180.26,2183.33,199.39"/>
			<path class="st0" d="M1421.75,310.59h66.2h65.93c-1.28,16.04-2.51,31.5-3.76,47.17h-181.54V63.11h53.16V310.59z"/>
			<path class="st0" d="M1111.28,187.37c-12.1,9.17-23.76,18-35.72,27.07c-1-1.29-2.01-2.33-2.74-3.54
				c-16.98-27.88-56.48-25.37-74.58-9.18c-14.58,13.04-20.99,29.74-21.74,48.65c-0.36,9.2,0.16,18.74,2.22,27.68
				c6.94,30.1,30.4,40.96,57.17,38.73c17.39-1.45,30.71-10.04,40.21-25.48c11.83,9.46,23.45,18.74,35.14,28.09
				c-10.34,17.03-24.27,29.1-42.8,35.48c-27.34,9.41-54.99,9.65-82.27,0.49c-28.48-9.56-47.91-29.03-56.63-57.91
				c-9.53-31.58-8.96-63.18,5.07-93.4c16.33-35.18,44.84-54.13,83.18-58.53c21.59-2.48,42.51-0.29,62.04,10.04
				C1093.47,162.78,1103.43,173.66,1111.28,187.37"/>
			<g>
				<path class="st0" d="M1636.61,546.75l4.34-106.16h13.91l40.22,87.32l40.22-87.32h13.91l3.59,106.16h-14.5l-2.54-75.81
					l-35.14,75.81h-12.11l-34.54-75.36l-3.29,75.36H1636.61z"/>
				<path class="st0" d="M1797.49,548.1c-7.88,0-13.88-2.71-18.02-8.15c-4.14-5.43-6.16-12.93-6.06-22.5l0.45-45.6h14.21
					l-0.45,44.11c0,5.88,1.07,10.47,3.21,13.76c2.14,3.29,5.56,4.93,10.24,4.93c4.68,0,8.84-1.89,12.48-5.68
					c3.64-3.79,6.53-10.27,8.67-19.44c2.14-9.17,3.21-21.73,3.21-37.68h13.76v74.91h-14.35l0.9-20.78
					c-2.89,7.38-6.8,12.91-11.74,16.6C1809.08,546.25,1803.57,548.1,1797.49,548.1z M1793.31,461.82c-2.89,0-5.11-0.85-6.65-2.54
					c-1.55-1.69-2.32-3.64-2.32-5.83c0-2.19,0.77-4.11,2.32-5.76c1.54-1.64,3.76-2.47,6.65-2.47c2.59,0,4.66,0.82,6.21,2.47
					c1.54,1.64,2.32,3.57,2.32,5.76c0,2.19-0.77,4.14-2.32,5.83C1797.97,460.98,1795.9,461.82,1793.31,461.82z M1820.52,461.82
					c-2.79,0-4.96-0.85-6.5-2.54c-1.55-1.69-2.32-3.64-2.32-5.83c0-2.19,0.77-4.11,2.32-5.76c1.54-1.64,3.71-2.47,6.5-2.47
					c2.69,0,4.81,0.82,6.35,2.47c1.54,1.64,2.32,3.57,2.32,5.76c0,2.19-0.77,4.14-2.32,5.83
					C1825.33,460.98,1823.21,461.82,1820.52,461.82z"/>
				<path class="st0" d="M1860.29,546.75v-74.91h14.35l-0.9,22.13c2.79-7.48,6.73-13.23,11.81-17.27
					c5.08-4.04,11.01-6.06,17.79-6.06c7.97,0,14.05,2.77,18.24,8.3s6.23,13.48,6.13,23.85l-0.3,43.96h-14.2l0.3-42.61
					c0.1-13.46-4.49-20.19-13.76-20.19c-4.88,0-9.2,1.9-12.93,5.68c-3.74,3.79-6.71,10.27-8.9,19.44
					c-2.19,9.17-3.34,21.73-3.44,37.68H1860.29z"/>
			</g>
			<g>
				<path class="st0" d="M1972.89,548.1c-9.77,0-17.29-1.94-22.58-5.83c-5.29-3.89-8.32-9.37-9.12-16.45l12.26-2.99
					c0.7,4.59,2.59,8.03,5.68,10.32c3.09,2.29,7.67,3.44,13.76,3.44c4.88,0,8.62-0.92,11.21-2.77c2.59-1.84,3.89-4.31,3.89-7.4
					c0-2.99-1.37-5.21-4.11-6.65c-2.74-1.44-6.95-2.71-12.63-3.81c-5.28-1-9.84-2.32-13.68-3.96c-3.84-1.65-6.8-3.89-8.9-6.73
					c-2.09-2.84-3.14-6.6-3.14-11.29c0-4.49,1.22-8.47,3.66-11.96c2.44-3.49,5.78-6.25,10.02-8.3c4.24-2.04,9.09-3.07,14.58-3.07
					c7.38,0,13.43,1.77,18.17,5.31c4.73,3.54,7.55,8.2,8.45,13.98l-11.81,3.14c-1.6-7.28-6.63-10.92-15.1-10.92
					c-4.39,0-7.83,1.02-10.32,3.07c-2.49,2.04-3.74,4.66-3.74,7.85c0,2.79,1.2,5.06,3.59,6.8c2.39,1.75,6.68,3.21,12.86,4.41
					c5.28,1.1,9.87,2.42,13.76,3.96c3.89,1.55,6.9,3.64,9.05,6.28c2.14,2.64,3.26,6.26,3.36,10.84c0,4.39-1.22,8.3-3.66,11.74
					c-2.44,3.44-5.86,6.13-10.24,8.07C1983.75,547.12,1978.67,548.1,1972.89,548.1z"/>
			</g>
			<g>
				<path class="st0" d="M2045.4,548.1c-8.87,0-15.62-2.37-20.26-7.1c-4.64-4.73-6.9-11.04-6.8-18.91l0.6-38.13h-13.01v-12.11h13.16
					l0.15-15.55h14.35l-0.3,15.55h25.42v12.11h-25.57l-0.45,36.93c0,4.39,1.14,7.9,3.44,10.54c2.29,2.64,5.83,3.96,10.62,3.96
					c2.29,0,4.43-0.27,6.43-0.82c1.99-0.55,4.09-1.67,6.28-3.36l4.34,11.21c-2.19,1.89-4.91,3.31-8.15,4.26
					C2052.41,547.62,2048.99,548.1,2045.4,548.1z"/>
			</g>
			<g>
				<path class="st0" d="M2106.11,548.1c-11.76,0-21.03-3.34-27.81-10.02c-6.78-6.68-10.17-15.9-10.17-27.66
					c0-7.78,1.57-14.65,4.71-20.63c3.14-5.98,7.45-10.67,12.93-14.06c5.48-3.39,11.71-5.08,18.69-5.08
					c10.77,0,18.94,3.71,24.52,11.14c5.58,7.43,7.53,18.17,5.83,32.22h-52.18c0.3,6.78,2.57,12.04,6.8,15.77
					c4.24,3.74,10.14,5.61,17.72,5.61c3.69,0,7.25-0.82,10.69-2.47c3.44-1.64,6.4-4.11,8.9-7.4l8.67,8.37
					c-3.49,4.59-7.63,8.1-12.41,10.54C2118.22,546.87,2112.59,548.1,2106.11,548.1z M2104.61,481.71c-6.08,0-11.02,2.04-14.8,6.13
					c-3.79,4.09-6.08,9.22-6.88,15.4h39.47c0.3-7.57-1.22-13.06-4.56-16.45C2114.5,483.4,2110.09,481.71,2104.61,481.71z"/>
				<path class="st0" d="M2197.16,485.6c-1.89-0.6-4.19-0.9-6.88-0.9c-5.58,0-10.14,2.12-13.68,6.35
					c-3.54,4.24-6.13,10.92-7.77,20.04c-1.65,9.12-2.47,21.01-2.47,35.66h-14.2V498.6l-0.15-26.76h14.35l-0.9,23.92
					c2.49-9.07,6.1-15.52,10.84-19.36c4.73-3.84,9.79-5.76,15.18-5.76c1.59,0,3.07,0.08,4.41,0.22s2.52,0.43,3.51,0.82
					L2197.16,485.6z"/>
			</g>
		</g>
	</g>
</g>
</svg>
