<svg width="180" height="80" viewBox="0 0 180 80" fill="none" xmlns="http://www.w3.org/2000/svg">
<path d="M69.0365 12.5099C61.1853 4.23151 51.42 0.175456 40.0336 0.000698922C29.1491 -0.0641303 19.3048 4.38653 12.4008 11.047C4.60886 18.5644 0.402767 27.7899 0.0278273 38.591C-0.352751 49.4597 3.17112 59.0375 10.5543 67.0482C18.2561 75.4027 27.9059 79.7744 39.2584 79.9915C50.4784 80.2085 60.2212 76.2765 68.188 68.387C75.667 60.9796 79.6532 51.8838 79.9774 41.3448C80.3242 30.2618 76.6763 20.5572 69.0337 12.5099M17.4386 59.3617C17.4386 55.9145 17.4414 52.5715 17.4358 49.223C21.2331 47.6981 25.0332 46.1704 28.8305 44.637C32.7322 43.0614 36.6366 41.4773 40.6538 39.8509C39.8786 39.5211 39.202 39.2252 38.5198 38.9433C34.4687 37.2972 30.4064 35.6511 26.3497 34.0078C23.3784 32.8043 20.4043 31.5894 17.4245 30.3943C17.4498 27.1923 17.4442 23.9875 17.4358 20.7911C17.4358 20.4163 17.4555 19.9906 17.4555 19.9906C20.3704 21.228 52.5504 34.8337 54.7493 35.7385C54.738 38.4529 54.7324 41.1672 54.7521 43.876C52.9958 44.5891 18.0306 59.1165 17.4386 59.3617M60.3509 58.9812C57.5741 58.9812 55.3216 56.7291 55.3216 53.9527C55.3216 51.1763 57.5741 48.9242 60.3509 48.9242C63.1277 48.9242 65.3801 51.1763 65.3801 53.9527C65.3801 56.7291 63.1333 58.9812 60.3509 58.9812Z" fill="#F7F7FB"/>
<path d="M156.252 52.0379C156.252 50.3219 154.985 49.4646 152.452 49.4659H150.342V54.6339H152.294C153.646 54.6339 154.646 54.4279 155.294 54.0159C155.942 53.6039 156.261 52.9446 156.252 52.0379Z" fill="#F7F7FB"/>
<path d="M140 0C117.908 0 100 17.908 100 40C100 62.092 117.908 80 140 80C162.092 80 180 62.09 180 40C180 17.91 162.092 0 140 0ZM142.712 17.716C142.881 17.5373 143.087 17.3981 143.316 17.3082C143.545 17.2183 143.791 17.18 144.036 17.196C144.275 17.1841 144.514 17.2245 144.736 17.3143C144.958 17.4041 145.158 17.5412 145.322 17.716C145.624 18.0253 145.792 18.4401 145.792 18.872C145.792 19.3039 145.624 19.7187 145.322 20.028C145.16 20.2061 144.961 20.3462 144.739 20.4381C144.516 20.5301 144.276 20.5717 144.036 20.56C143.79 20.5758 143.543 20.5362 143.314 20.4441C143.085 20.3521 142.879 20.2099 142.712 20.028C142.419 19.7143 142.256 19.3011 142.256 18.872C142.256 18.4429 142.419 18.0297 142.712 17.716V17.716ZM137.854 17.716C138.027 17.5371 138.237 17.3982 138.47 17.309C138.702 17.2199 138.952 17.1827 139.2 17.2C139.437 17.1867 139.675 17.2265 139.895 17.3165C140.115 17.4064 140.312 17.5443 140.472 17.72C140.766 18.033 140.93 18.4464 140.93 18.876C140.93 19.3056 140.766 19.719 140.472 20.032C140.314 20.2106 140.117 20.3511 139.897 20.4433C139.677 20.5354 139.438 20.5766 139.2 20.564C138.86 20.5892 138.521 20.5107 138.227 20.3388C137.933 20.167 137.698 19.91 137.553 19.6018C137.408 19.2935 137.361 18.9486 137.416 18.6126C137.472 18.2766 137.628 17.9653 137.864 17.72L137.854 17.716ZM114.162 39.674H111.2L111.868 22.116H114.668L121.098 35.642L127.498 22.116H130.298L130.842 39.674H127.74L127.4 28.744L122.182 39.674H119.752L114.6 28.818L114.162 39.674ZM130.372 62.114C129.786 62.9254 128.991 63.5627 128.072 63.958C126.991 64.4222 125.824 64.6493 124.648 64.624C122.585 64.624 120.978 64.1627 119.826 63.24C118.674 62.3173 118.014 60.9653 117.846 59.184L120.864 58.74C121.16 60.8493 122.471 61.904 124.796 61.904C125.796 61.904 126.584 61.704 127.146 61.304C127.417 61.1149 127.636 60.8605 127.783 60.5645C127.93 60.2684 127.999 59.9402 127.986 59.61C127.998 59.3074 127.925 59.0076 127.777 58.7436C127.629 58.4795 127.41 58.2617 127.146 58.114C126.583 57.778 125.685 57.4607 124.45 57.162C123.43 56.9284 122.436 56.5934 121.482 56.162C120.717 55.8256 120.062 55.2817 119.59 54.592C119.154 53.9333 118.935 53.06 118.934 51.972C118.916 50.9893 119.195 50.024 119.734 49.202C120.287 48.3795 121.052 47.7217 121.948 47.298C122.969 46.8162 124.087 46.5773 125.216 46.6C126.848 46.6 128.181 47.0287 129.216 47.886C130.251 48.7433 130.861 49.922 131.046 51.422L128.228 51.892C127.88 50.176 126.825 49.3187 125.062 49.32C124.205 49.32 123.508 49.5427 122.972 49.988C122.712 50.1989 122.505 50.4669 122.366 50.7712C122.228 51.0755 122.161 51.4077 122.172 51.742C122.156 52.0649 122.221 52.3867 122.361 52.6783C122.5 52.9698 122.71 53.222 122.972 53.412C123.505 53.8 124.404 54.142 125.668 54.438C126.67 54.6606 127.652 54.9704 128.6 55.364C129.362 55.669 130.025 56.1784 130.516 56.836C130.972 57.4627 131.2 58.3173 131.2 59.4C131.219 60.3695 130.929 61.3199 130.372 62.114V62.114ZM145.572 49.664H140.132V64.4H136.914V49.664H131.274V46.844H145.964L145.572 49.664ZM145.66 38.882C144.545 39.558 143.206 39.896 141.642 39.896C139.135 39.896 137.251 39.2653 135.99 38.004C134.729 36.7427 134.098 34.818 134.098 32.23V22.116H137.314V31.984C137.314 33.748 137.673 35.0253 138.39 35.816C139.107 36.6067 140.174 37.0027 141.59 37.004C143.025 37.004 144.1 36.542 144.816 35.618C145.532 34.694 145.883 33.26 145.868 31.316L145.844 22.116H149.044L149.068 31.464C149.084 33.212 148.799 34.716 148.214 35.976C147.676 37.1821 146.784 38.1957 145.656 38.882H145.66ZM160.6 64.414C160.11 64.5556 159.602 64.6263 159.092 64.624C157.244 64.624 155.793 63.808 154.74 62.176L152.2 58.27C151.997 57.9207 151.717 57.623 151.38 57.4C151.103 57.2362 150.786 57.1505 150.464 57.152H150.342V64.4H147.2V46.844H152.666C154.891 46.844 156.577 47.306 157.724 48.23C158.871 49.154 159.443 50.4207 159.442 52.03C159.475 52.8815 159.267 53.7251 158.843 54.464C158.418 55.2029 157.794 55.8074 157.042 56.208C156.262 56.6366 155.405 56.9084 154.52 57.008C155.078 57.3326 155.546 57.7919 155.88 58.344L157.266 60.4C157.531 60.8279 157.88 61.1979 158.292 61.488C158.664 61.6992 159.088 61.8024 159.516 61.786C160.068 61.7924 160.609 61.6374 161.074 61.34L161.816 63.838C161.448 64.1008 161.036 64.2959 160.6 64.414V64.414ZM166.982 39.674H164.162L155.432 27.432V39.674H152.346V22.116H155.164L163.894 34.356V22.116H166.986L166.982 39.674Z" fill="#F7F7FB"/>
</svg>
