<svg width="113" height="113" viewBox="0 0 113 113" fill="none" xmlns="http://www.w3.org/2000/svg">
<g filter="url(#filter0_d_143_288)">
<circle cx="56.5" cy="52.5" r="52.5" fill="#FA1E5A" fill-opacity="0.8"/>
<path d="M56.5 90C35.8227 90 19 73.1784 19 52.5C19 31.8216 35.8227 15 56.5 15C77.1773 15 94 31.8224 94 52.5C94 73.1776 77.1773 90 56.5 90ZM56.5 18.8315C37.9352 18.8315 22.8316 33.9356 22.8316 52.5C22.8316 71.0644 37.9352 86.1685 56.5 86.1685C75.0648 86.1685 90.1684 71.0659 90.1684 52.5C90.1684 33.9341 75.0648 18.8315 56.5 18.8315Z" fill="#F6F6FA"/>
<path d="M57.9251 42.5767H61.7263L55.4118 64.3387H50.8758L46.9247 47.7257L42.201 64.3387H37.6338L32.239 42.5767H36.2547L40.1775 59.2201L44.8367 42.5767H49.4655L53.358 59.1289L57.9251 42.5767Z" fill="#F6F6FA"/>
<path d="M63.749 64.3387V42.5767H70.2164C74.4468 42.5767 77.6447 43.4859 79.8102 45.3044C81.9756 47.1229 83.0588 49.8101 83.0598 53.366C83.0598 55.573 82.5796 57.4989 81.6191 59.1437C80.6586 60.7885 79.2995 62.0657 77.5418 62.9752C75.7861 63.8847 73.7224 64.3392 71.3506 64.3387H63.749ZM67.7335 60.813H71.1969C73.7513 60.813 75.6926 60.1945 77.0207 58.9574C78.3489 57.7203 79.0132 55.9067 79.0137 53.5167C79.0137 51.0242 78.3341 49.1646 76.9747 47.9379C75.6154 46.7112 73.537 46.0984 70.7397 46.0994H67.7335V60.813Z" fill="#F6F6FA"/>
</g>
<defs>
<filter id="filter0_d_143_288" x="0" y="0" width="113" height="113" filterUnits="userSpaceOnUse" color-interpolation-filters="sRGB">
<feFlood flood-opacity="0" result="BackgroundImageFix"/>
<feColorMatrix in="SourceAlpha" type="matrix" values="0 0 0 0 0 0 0 0 0 0 0 0 0 0 0 0 0 0 127 0" result="hardAlpha"/>
<feOffset dy="4"/>
<feGaussianBlur stdDeviation="2"/>
<feComposite in2="hardAlpha" operator="out"/>
<feColorMatrix type="matrix" values="0 0 0 0 0 0 0 0 0 0 0 0 0 0 0 0 0 0 0.25 0"/>
<feBlend mode="normal" in2="BackgroundImageFix" result="effect1_dropShadow_143_288"/>
<feBlend mode="normal" in="SourceGraphic" in2="effect1_dropShadow_143_288" result="shape"/>
</filter>
</defs>
</svg>
